STARTFONT 2.1
COMMENT "Generated by fontforge, http://fontforge.sourceforge.net"
COMMENT "(c) 2020 Slavfox"
FONT -slavfox-Whyozette-Medium-R-Normal--13-120-75-75-M-60-ISO10646-1
SIZE 12 75 75
FONTBOUNDINGBOX 12 13 -1 -3
STARTPROPERTIES 41
FOUNDRY "ccain"
FAMILY_NAME "Whyozette"
WEIGHT_NAME "Medium"
SLANT "R"
SETWIDTH_NAME "Normal"
ADD_STYLE_NAME ""
PIXEL_SIZE 13
POINT_SIZE 120
RESOLUTION_X 75
RESOLUTION_Y 75
SPACING "M"
AVERAGE_WIDTH 60
CHARSET_REGISTRY "ISO10646"
CHARSET_ENCODING "1"
FONTNAME_REGISTRY ""
FONT_NAME "Whyozette"
FACE_NAME "Whyozette"
COPYRIGHT "(c) 2020 ?"
FONT_VERSION "1.080"
FONT_ASCENT 10
FONT_DESCENT 3
UNDERLINE_POSITION -19
UNDERLINE_THICKNESS 13
X_HEIGHT 5
CAP_HEIGHT 7
DEFAULT_CHAR 0
RAW_ASCENT 769
RAW_DESCENT 230
NORM_SPACE 6
RELATIVE_WEIGHT 50
RELATIVE_SETWIDTH 50
SUPERSCRIPT_X 0
SUPERSCRIPT_Y 2
SUPERSCRIPT_SIZE 2
SUBSCRIPT_X 0
SUBSCRIPT_Y 2
SUBSCRIPT_SIZE 2
FIGURE_WIDTH 6
AVG_LOWERCASE_WIDTH 60
AVG_UPPERCASE_WIDTH "60"
_GBDFED_INFO "Edited with gbdfed 1.6."
ENDPROPERTIES
CHARS 1429
STARTCHAR .notdef
ENCODING -1
SWIDTH 800 0
DWIDTH 10 0
BBX 7 13 0 -3
BITMAP
AA
00
82
00
82
00
82
00
82
00
82
00
AA
ENDCHAR
STARTCHAR u1F512
ENCODING -1
SWIDTH 800 0
DWIDTH 10 0
BBX 5 8 1 -1
BITMAP
70
50
50
F8
D8
D8
F8
F8
ENDCHAR
STARTCHAR u1F333
ENCODING -1
SWIDTH 800 0
DWIDTH 10 0
BBX 7 10 0 -1
BITMAP
7C
FE
FE
FE
FE
FE
7C
28
28
38
ENDCHAR
STARTCHAR u1F439
ENCODING -1
SWIDTH 800 0
DWIDTH 10 0
BBX 9 8 -1 0
BITMAP
7700
5D00
6300
4100
5500
4900
4900
B680
ENDCHAR
STARTCHAR u1F40F
ENCODING -1
SWIDTH 800 0
DWIDTH 10 0
BBX 7 8 0 0
BITMAP
30
5C
FE
BE
BE
FE
3C
24
ENDCHAR
STARTCHAR u1F52E
ENCODING -1
SWIDTH 800 0
DWIDTH 10 0
BBX 7 8 0 0
BITMAP
38
44
9A
82
82
44
7C
FE
ENDCHAR
STARTCHAR u1F4E6
ENCODING -1
SWIDTH 800 0
DWIDTH 10 0
BBX 7 10 0 0
BITMAP
28
44
82
FE
BA
82
C2
82
82
FE
ENDCHAR
STARTCHAR u1F418
ENCODING -1
SWIDTH 800 0
DWIDTH 10 0
BBX 7 7 0 0
BITMAP
70
B4
F6
AE
BC
24
24
ENDCHAR
STARTCHAR u1F40D
ENCODING -1
SWIDTH 800 0
DWIDTH 10 0
BBX 7 8 0 0
BITMAP
1C
36
BE
46
86
06
7E
FC
ENDCHAR
STARTCHAR u1F48E
ENCODING -1
SWIDTH 800 0
DWIDTH 10 0
BBX 7 6 0 1
BITMAP
7C
FA
FE
7C
38
10
ENDCHAR
STARTCHAR u1F980
ENCODING -1
SWIDTH 800 0
DWIDTH 10 0
BBX 8 7 0 0
BITMAP
81
A5
C3
5A
3C
5A
24
ENDCHAR
STARTCHAR u1F4A0
ENCODING -1
SWIDTH 800 0
DWIDTH 10 0
BBX 7 7 0 0
BITMAP
10
38
54
EE
54
38
10
ENDCHAR
STARTCHAR u1F6E1
ENCODING -1
SWIDTH 800 0
DWIDTH 10 0
BBX 7 10 0 -2
BITMAP
92
FE
FE
FE
FE
FE
7C
7C
38
10
ENDCHAR
STARTCHAR u1F608
ENCODING -1
SWIDTH 800 0
DWIDTH 10 0
BBX 7 10 0 -1
BITMAP
82
FE
44
82
A6
82
A6
9A
44
38
ENDCHAR
STARTCHAR u1F50B
ENCODING -1
SWIDTH 800 0
DWIDTH 10 0
BBX 7 10 0 -1
BITMAP
38
FE
FE
EE
C6
EE
FE
C6
FE
FE
ENDCHAR
STARTCHAR u1F448
ENCODING -1
SWIDTH 800 0
DWIDTH 10 0
BBX 7 7 0 1
BITMAP
18
14
FA
82
62
22
1C
ENDCHAR
STARTCHAR u1F447
ENCODING -1
SWIDTH 800 0
DWIDTH 10 0
BBX 7 7 0 0
BITMAP
78
84
8A
8E
68
28
18
ENDCHAR
STARTCHAR u1F331
ENCODING -1
SWIDTH 800 0
DWIDTH 10 0
BBX 7 7 0 0
BITMAP
E0
70
10
16
1C
10
10
ENDCHAR
STARTCHAR u1F31E
ENCODING -1
SWIDTH 800 0
DWIDTH 10 0
BBX 8 8 0 0
BITMAP
54
3D
C2
57
C2
43
BC
2A
ENDCHAR
STARTCHAR .notdef.dup1
ENCODING 0
SWIDTH 800 0
DWIDTH 10 0
BBX 7 13 0 -3
BITMAP
AA
00
82
00
82
00
82
00
82
00
82
00
AA
ENDCHAR
STARTCHAR uni0001
ENCODING 1
SWIDTH 800 0
DWIDTH 10 0
BBX 5 6 1 1
BITMAP
F8
88
88
88
88
F8
ENDCHAR
STARTCHAR uni0002
ENCODING 2
SWIDTH 800 0
DWIDTH 10 0
BBX 5 6 1 1
BITMAP
F8
88
88
88
88
F8
ENDCHAR
STARTCHAR uni0003
ENCODING 3
SWIDTH 800 0
DWIDTH 10 0
BBX 5 6 1 1
BITMAP
F8
88
88
88
88
F8
ENDCHAR
STARTCHAR uni0004
ENCODING 4
SWIDTH 800 0
DWIDTH 10 0
BBX 5 6 1 1
BITMAP
F8
88
88
88
88
F8
ENDCHAR
STARTCHAR uni0005
ENCODING 5
SWIDTH 800 0
DWIDTH 10 0
BBX 5 6 1 1
BITMAP
F8
88
88
88
88
F8
ENDCHAR
STARTCHAR uni0006
ENCODING 6
SWIDTH 800 0
DWIDTH 10 0
BBX 5 6 1 1
BITMAP
F8
88
88
88
88
F8
ENDCHAR
STARTCHAR uni0007
ENCODING 7
SWIDTH 800 0
DWIDTH 10 0
BBX 5 6 1 1
BITMAP
F8
88
88
88
88
F8
ENDCHAR
STARTCHAR uni0008
ENCODING 8
SWIDTH 800 0
DWIDTH 10 0
BBX 5 6 1 1
BITMAP
F8
88
88
88
88
F8
ENDCHAR
STARTCHAR uni0009
ENCODING 9
SWIDTH 800 0
DWIDTH 10 0
BBX 0 0 0 0
BITMAP
ENDCHAR
STARTCHAR uni000A
ENCODING 10
SWIDTH 800 0
DWIDTH 10 0
BBX 5 6 1 1
BITMAP
F8
88
88
88
88
F8
ENDCHAR
STARTCHAR uni000B
ENCODING 11
SWIDTH 800 0
DWIDTH 10 0
BBX 5 6 1 1
BITMAP
F8
88
88
88
88
F8
ENDCHAR
STARTCHAR uni000C
ENCODING 12
SWIDTH 800 0
DWIDTH 10 0
BBX 5 6 1 1
BITMAP
F8
88
88
88
88
F8
ENDCHAR
STARTCHAR uni000D
ENCODING 13
SWIDTH 800 0
DWIDTH 10 0
BBX 5 6 1 1
BITMAP
F8
88
88
88
88
F8
ENDCHAR
STARTCHAR uni000E
ENCODING 14
SWIDTH 800 0
DWIDTH 10 0
BBX 4 7 0 3
BITMAP
10
10
10
10
10
10
F0
ENDCHAR
STARTCHAR uni000F
ENCODING 15
SWIDTH 800 0
DWIDTH 10 0
BBX 4 7 3 3
BITMAP
80
80
80
80
80
80
F0
ENDCHAR
STARTCHAR uni0010
ENCODING 16
SWIDTH 800 0
DWIDTH 10 0
BBX 4 7 3 -3
BITMAP
F0
80
80
80
80
80
80
ENDCHAR
STARTCHAR uni0011
ENCODING 17
SWIDTH 800 0
DWIDTH 10 0
BBX 4 7 0 -3
BITMAP
F0
10
10
10
10
10
10
ENDCHAR
STARTCHAR uni0012
ENCODING 18
SWIDTH 800 0
DWIDTH 10 0
BBX 7 1 0 3
BITMAP
FE
ENDCHAR
STARTCHAR uni0013
ENCODING 19
SWIDTH 800 0
DWIDTH 10 0
BBX 1 13 3 -3
BITMAP
80
80
80
80
80
80
80
80
80
80
80
80
80
ENDCHAR
STARTCHAR uni0014
ENCODING 20
SWIDTH 800 0
DWIDTH 10 0
BBX 4 13 0 -3
BITMAP
10
10
10
10
10
10
F0
10
10
10
10
10
10
ENDCHAR
STARTCHAR uni0015
ENCODING 21
SWIDTH 800 0
DWIDTH 10 0
BBX 7 7 0 3
BITMAP
10
10
10
10
10
10
FE
ENDCHAR
STARTCHAR uni0016
ENCODING 22
SWIDTH 800 0
DWIDTH 10 0
BBX 4 13 3 -3
BITMAP
80
80
80
80
80
80
F0
80
80
80
80
80
80
ENDCHAR
STARTCHAR uni0017
ENCODING 23
SWIDTH 800 0
DWIDTH 10 0
BBX 7 7 0 -3
BITMAP
FE
10
10
10
10
10
10
ENDCHAR
STARTCHAR uni0018
ENCODING 24
SWIDTH 800 0
DWIDTH 10 0
BBX 7 13 0 -3
BITMAP
10
10
10
10
10
10
FE
10
10
10
10
10
10
ENDCHAR
STARTCHAR uni0019
ENCODING 25
SWIDTH 800 0
DWIDTH 10 0
BBX 7 13 0 -3
BITMAP
AA
54
AA
54
AA
54
AA
54
AA
54
AA
54
AA
ENDCHAR
STARTCHAR uni001A
ENCODING 26
SWIDTH 800 0
DWIDTH 10 0
BBX 5 5 1 1
BITMAP
10
F8
20
F8
40
ENDCHAR
STARTCHAR uni001B
ENCODING 27
SWIDTH 800 0
DWIDTH 10 0
BBX 5 7 1 0
BITMAP
18
60
80
60
18
00
F8
ENDCHAR
STARTCHAR uni001C
ENCODING 28
SWIDTH 800 0
DWIDTH 10 0
BBX 5 6 1 0
BITMAP
F8
50
50
50
50
50
ENDCHAR
STARTCHAR uni001D
ENCODING 29
SWIDTH 800 0
DWIDTH 10 0
BBX 5 7 1 0
BITMAP
C0
30
08
30
C0
00
F8
ENDCHAR
STARTCHAR uni001E
ENCODING 30
SWIDTH 800 0
DWIDTH 10 0
BBX 5 8 1 0
BITMAP
30
40
40
F0
40
40
80
F8
ENDCHAR
STARTCHAR uni001F
ENCODING 31
SWIDTH 800 0
DWIDTH 10 0
BBX 3 1 2 3
BITMAP
E0
ENDCHAR
STARTCHAR space
ENCODING 32
SWIDTH 800 0
DWIDTH 10 0
BBX 0 0 0 0
BITMAP
ENDCHAR
STARTCHAR exclam
ENCODING 33
SWIDTH 800 0
DWIDTH 10 0
BBX 1 8 3 0
BITMAP
80
80
80
80
80
80
00
80
ENDCHAR
STARTCHAR quotedbl
ENCODING 34
SWIDTH 800 0
DWIDTH 10 0
BBX 3 3 2 6
BITMAP
A0
A0
A0
ENDCHAR
STARTCHAR numbersign
ENCODING 35
SWIDTH 800 0
DWIDTH 10 0
BBX 5 8 1 0
BITMAP
50
50
F8
50
50
F8
50
50
ENDCHAR
STARTCHAR dollar
ENCODING 36
SWIDTH 800 0
DWIDTH 10 0
BBX 5 10 1 -1
BITMAP
20
70
A8
A0
70
28
28
A8
70
20
ENDCHAR
STARTCHAR percent
ENCODING 37
SWIDTH 800 0
DWIDTH 10 0
BBX 5 9 1 0
BITMAP
40
A0
48
10
20
40
90
28
10
ENDCHAR
STARTCHAR ampersand
ENCODING 38
SWIDTH 800 0
DWIDTH 10 0
BBX 5 9 1 0
BITMAP
20
50
50
20
68
90
90
90
68
ENDCHAR
STARTCHAR quotesingle
ENCODING 39
SWIDTH 800 0
DWIDTH 10 0
BBX 1 3 3 6
BITMAP
80
80
80
ENDCHAR
STARTCHAR parenleft
ENCODING 40
SWIDTH 800 0
DWIDTH 10 0
BBX 3 11 2 -2
BITMAP
20
40
40
80
80
80
80
80
40
40
20
ENDCHAR
STARTCHAR parenright
ENCODING 41
SWIDTH 800 0
DWIDTH 10 0
BBX 3 11 2 -2
BITMAP
80
40
40
20
20
20
20
20
40
40
80
ENDCHAR
STARTCHAR asterisk
ENCODING 42
SWIDTH 800 0
DWIDTH 10 0
BBX 5 5 1 1
BITMAP
50
20
F8
20
50
ENDCHAR
STARTCHAR plus
ENCODING 43
SWIDTH 800 0
DWIDTH 10 0
BBX 5 5 1 1
BITMAP
20
20
F8
20
20
ENDCHAR
STARTCHAR comma
ENCODING 44
SWIDTH 800 0
DWIDTH 10 0
BBX 2 4 2 -2
BITMAP
C0
C0
40
80
ENDCHAR
STARTCHAR hyphen
ENCODING 45
SWIDTH 800 0
DWIDTH 10 0
BBX 5 1 1 3
BITMAP
F8
ENDCHAR
STARTCHAR period
ENCODING 46
SWIDTH 800 0
DWIDTH 10 0
BBX 2 2 2 0
BITMAP
C0
C0
ENDCHAR
STARTCHAR slash
ENCODING 47
SWIDTH 800 0
DWIDTH 10 0
BBX 5 10 1 -1
BITMAP
08
08
10
10
20
20
40
40
80
80
ENDCHAR
STARTCHAR zero
ENCODING 48
SWIDTH 800 0
DWIDTH 10 0
BBX 5 8 1 0
BITMAP
70
88
88
98
A8
C8
88
70
ENDCHAR
STARTCHAR one
ENCODING 49
SWIDTH 800 0
DWIDTH 10 0
BBX 3 8 1 0
BITMAP
20
60
A0
20
20
20
20
20
ENDCHAR
STARTCHAR two
ENCODING 50
SWIDTH 800 0
DWIDTH 10 0
BBX 5 8 1 0
BITMAP
70
88
08
10
20
40
80
F8
ENDCHAR
STARTCHAR three
ENCODING 51
SWIDTH 800 0
DWIDTH 10 0
BBX 5 8 1 0
BITMAP
F8
88
10
30
08
08
88
70
ENDCHAR
STARTCHAR four
ENCODING 52
SWIDTH 800 0
DWIDTH 10 0
BBX 6 8 1 0
BITMAP
08
18
28
48
88
FC
08
08
ENDCHAR
STARTCHAR five
ENCODING 53
SWIDTH 800 0
DWIDTH 10 0
BBX 5 8 1 0
BITMAP
F8
80
80
F0
08
08
88
70
ENDCHAR
STARTCHAR six
ENCODING 54
SWIDTH 800 0
DWIDTH 10 0
BBX 5 8 1 0
BITMAP
30
40
80
F0
88
88
88
70
ENDCHAR
STARTCHAR seven
ENCODING 55
SWIDTH 800 0
DWIDTH 10 0
BBX 5 8 1 0
BITMAP
F8
08
10
10
20
20
40
40
ENDCHAR
STARTCHAR eight
ENCODING 56
SWIDTH 800 0
DWIDTH 10 0
BBX 5 8 1 0
BITMAP
70
88
88
70
88
88
88
70
ENDCHAR
STARTCHAR nine
ENCODING 57
SWIDTH 800 0
DWIDTH 10 0
BBX 5 8 1 0
BITMAP
70
88
88
88
78
08
88
70
ENDCHAR
STARTCHAR colon
ENCODING 58
SWIDTH 800 0
DWIDTH 10 0
BBX 2 6 2 0
BITMAP
C0
C0
00
00
C0
C0
ENDCHAR
STARTCHAR semicolon
ENCODING 59
SWIDTH 800 0
DWIDTH 10 0
BBX 2 8 2 -2
BITMAP
C0
C0
00
00
C0
C0
40
80
ENDCHAR
STARTCHAR less
ENCODING 60
SWIDTH 800 0
DWIDTH 10 0
BBX 4 7 2 0
BITMAP
10
20
40
80
40
20
10
ENDCHAR
STARTCHAR equal
ENCODING 61
SWIDTH 800 0
DWIDTH 10 0
BBX 5 3 1 2
BITMAP
F8
00
F8
ENDCHAR
STARTCHAR greater
ENCODING 62
SWIDTH 800 0
DWIDTH 10 0
BBX 4 7 1 0
BITMAP
80
40
20
10
20
40
80
ENDCHAR
STARTCHAR question
ENCODING 63
SWIDTH 800 0
DWIDTH 10 0
BBX 5 8 1 0
BITMAP
70
88
08
10
20
20
00
20
ENDCHAR
STARTCHAR at
ENCODING 64
SWIDTH 800 0
DWIDTH 10 0
BBX 5 8 1 0
BITMAP
F8
88
88
B8
A8
B8
80
F8
ENDCHAR
STARTCHAR A
ENCODING 65
SWIDTH 800 0
DWIDTH 10 0
BBX 5 8 1 0
BITMAP
70
88
88
88
F8
88
88
88
ENDCHAR
STARTCHAR B
ENCODING 66
SWIDTH 800 0
DWIDTH 10 0
BBX 5 8 1 0
BITMAP
E0
90
90
F0
88
88
88
F0
ENDCHAR
STARTCHAR C
ENCODING 67
SWIDTH 800 0
DWIDTH 10 0
BBX 5 8 1 0
BITMAP
70
88
80
80
80
80
88
70
ENDCHAR
STARTCHAR D
ENCODING 68
SWIDTH 800 0
DWIDTH 10 0
BBX 5 8 1 0
BITMAP
E0
90
88
88
88
88
90
E0
ENDCHAR
STARTCHAR E
ENCODING 69
SWIDTH 800 0
DWIDTH 10 0
BBX 5 8 1 0
BITMAP
F8
80
80
80
E0
80
80
F8
ENDCHAR
STARTCHAR F
ENCODING 70
SWIDTH 800 0
DWIDTH 10 0
BBX 5 8 1 0
BITMAP
F8
80
80
E0
80
80
80
80
ENDCHAR
STARTCHAR G
ENCODING 71
SWIDTH 800 0
DWIDTH 10 0
BBX 5 8 1 0
BITMAP
70
88
80
80
B8
88
88
70
ENDCHAR
STARTCHAR H
ENCODING 72
SWIDTH 800 0
DWIDTH 10 0
BBX 5 8 1 0
BITMAP
88
88
88
F8
88
88
88
88
ENDCHAR
STARTCHAR I
ENCODING 73
SWIDTH 800 0
DWIDTH 10 0
BBX 3 8 2 0
BITMAP
E0
40
40
40
40
40
40
E0
ENDCHAR
STARTCHAR J
ENCODING 74
SWIDTH 800 0
DWIDTH 10 0
BBX 5 8 1 0
BITMAP
38
08
08
08
08
08
88
70
ENDCHAR
STARTCHAR K
ENCODING 75
SWIDTH 800 0
DWIDTH 10 0
BBX 5 8 1 0
BITMAP
88
90
A0
E0
90
90
88
88
ENDCHAR
STARTCHAR L
ENCODING 76
SWIDTH 800 0
DWIDTH 10 0
BBX 5 8 1 0
BITMAP
80
80
80
80
80
80
80
F8
ENDCHAR
STARTCHAR M
ENCODING 77
SWIDTH 800 0
DWIDTH 10 0
BBX 5 8 1 0
BITMAP
88
D8
F8
A8
88
88
88
88
ENDCHAR
STARTCHAR N
ENCODING 78
SWIDTH 800 0
DWIDTH 10 0
BBX 5 8 1 0
BITMAP
88
C8
C8
A8
A8
98
98
88
ENDCHAR
STARTCHAR O
ENCODING 79
SWIDTH 800 0
DWIDTH 10 0
BBX 5 8 1 0
BITMAP
70
88
88
88
88
88
88
70
ENDCHAR
STARTCHAR P
ENCODING 80
SWIDTH 800 0
DWIDTH 10 0
BBX 5 8 1 0
BITMAP
F0
88
88
88
F0
80
80
80
ENDCHAR
STARTCHAR Q
ENCODING 81
SWIDTH 800 0
DWIDTH 10 0
BBX 5 9 1 -1
BITMAP
70
88
88
88
88
88
98
78
08
ENDCHAR
STARTCHAR R
ENCODING 82
SWIDTH 800 0
DWIDTH 10 0
BBX 5 8 1 0
BITMAP
F0
88
88
F0
C0
A0
90
88
ENDCHAR
STARTCHAR S
ENCODING 83
SWIDTH 800 0
DWIDTH 10 0
BBX 5 8 1 0
BITMAP
70
88
80
70
08
08
88
70
ENDCHAR
STARTCHAR T
ENCODING 84
SWIDTH 800 0
DWIDTH 10 0
BBX 5 8 1 0
BITMAP
F8
20
20
20
20
20
20
20
ENDCHAR
STARTCHAR U
ENCODING 85
SWIDTH 800 0
DWIDTH 10 0
BBX 5 8 1 0
BITMAP
88
88
88
88
88
88
88
70
ENDCHAR
STARTCHAR V
ENCODING 86
SWIDTH 800 0
DWIDTH 10 0
BBX 5 8 1 0
BITMAP
88
88
88
88
88
88
50
20
ENDCHAR
STARTCHAR W
ENCODING 87
SWIDTH 800 0
DWIDTH 10 0
BBX 5 8 1 0
BITMAP
88
88
88
88
A8
F8
D8
88
ENDCHAR
STARTCHAR X
ENCODING 88
SWIDTH 800 0
DWIDTH 10 0
BBX 5 8 1 0
BITMAP
88
88
70
70
88
88
88
88
ENDCHAR
STARTCHAR Y
ENCODING 89
SWIDTH 800 0
DWIDTH 10 0
BBX 5 8 1 0
BITMAP
88
88
88
78
08
08
88
78
ENDCHAR
STARTCHAR Z
ENCODING 90
SWIDTH 800 0
DWIDTH 10 0
BBX 5 8 1 0
BITMAP
F8
10
20
20
40
40
80
F8
ENDCHAR
STARTCHAR bracketleft
ENCODING 91
SWIDTH 800 0
DWIDTH 10 0
BBX 3 11 2 -2
BITMAP
E0
80
80
80
80
80
80
80
80
80
E0
ENDCHAR
STARTCHAR backslash
ENCODING 92
SWIDTH 800 0
DWIDTH 10 0
BBX 5 10 1 -1
BITMAP
80
80
40
40
20
20
10
10
08
08
ENDCHAR
STARTCHAR bracketright
ENCODING 93
SWIDTH 800 0
DWIDTH 10 0
BBX 3 11 2 -2
BITMAP
E0
20
20
20
20
20
20
20
20
20
E0
ENDCHAR
STARTCHAR asciicircum
ENCODING 94
SWIDTH 800 0
DWIDTH 10 0
BBX 5 3 1 7
BITMAP
20
50
88
ENDCHAR
STARTCHAR underscore
ENCODING 95
SWIDTH 800 0
DWIDTH 10 0
BBX 5 1 1 -1
BITMAP
F8
ENDCHAR
STARTCHAR grave
ENCODING 96
SWIDTH 800 0
DWIDTH 10 0
BBX 2 2 2 7
BITMAP
80
40
ENDCHAR
STARTCHAR a
ENCODING 97
SWIDTH 800 0
DWIDTH 10 0
BBX 5 6 1 0
BITMAP
78
88
88
88
98
68
ENDCHAR
STARTCHAR b
ENCODING 98
SWIDTH 800 0
DWIDTH 10 0
BBX 5 9 1 0
BITMAP
80
80
80
F0
88
88
88
88
F0
ENDCHAR
STARTCHAR c
ENCODING 99
SWIDTH 800 0
DWIDTH 10 0
BBX 5 6 1 0
BITMAP
70
88
80
80
88
70
ENDCHAR
STARTCHAR d
ENCODING 100
SWIDTH 800 0
DWIDTH 10 0
BBX 5 9 1 0
BITMAP
08
08
08
78
88
88
88
88
78
ENDCHAR
STARTCHAR e
ENCODING 101
SWIDTH 800 0
DWIDTH 10 0
BBX 5 6 1 0
BITMAP
70
88
F8
80
80
78
ENDCHAR
STARTCHAR f
ENCODING 102
SWIDTH 800 0
DWIDTH 10 0
BBX 5 11 1 -2
BITMAP
30
48
40
40
F0
40
40
40
40
40
80
ENDCHAR
STARTCHAR g
ENCODING 103
SWIDTH 800 0
DWIDTH 10 0
BBX 5 9 1 -3
BITMAP
78
88
88
88
88
78
08
08
70
ENDCHAR
STARTCHAR h
ENCODING 104
SWIDTH 800 0
DWIDTH 10 0
BBX 5 9 1 0
BITMAP
80
80
80
F0
88
88
88
88
88
ENDCHAR
STARTCHAR i
ENCODING 105
SWIDTH 800 0
DWIDTH 10 0
BBX 5 8 1 0
BITMAP
20
00
E0
20
20
20
20
18
ENDCHAR
STARTCHAR j
ENCODING 106
SWIDTH 800 0
DWIDTH 10 0
BBX 3 10 2 -2
BITMAP
20
00
E0
20
20
20
20
20
20
40
ENDCHAR
STARTCHAR k
ENCODING 107
SWIDTH 800 0
DWIDTH 10 0
BBX 5 9 1 0
BITMAP
80
80
80
88
90
A0
E0
90
88
ENDCHAR
STARTCHAR l
ENCODING 108
SWIDTH 800 0
DWIDTH 10 0
BBX 4 9 1 0
BITMAP
C0
40
40
40
40
40
40
40
30
ENDCHAR
STARTCHAR m
ENCODING 109
SWIDTH 800 0
DWIDTH 10 0
BBX 5 6 1 0
BITMAP
88
F8
A8
88
88
88
ENDCHAR
STARTCHAR n
ENCODING 110
SWIDTH 800 0
DWIDTH 10 0
BBX 5 6 1 0
BITMAP
F0
88
88
88
88
88
ENDCHAR
STARTCHAR o
ENCODING 111
SWIDTH 800 0
DWIDTH 10 0
BBX 5 6 1 0
BITMAP
70
88
88
88
88
70
ENDCHAR
STARTCHAR p
ENCODING 112
SWIDTH 800 0
DWIDTH 10 0
BBX 5 9 1 -3
BITMAP
F0
88
88
88
88
F0
80
80
80
ENDCHAR
STARTCHAR q
ENCODING 113
SWIDTH 800 0
DWIDTH 10 0
BBX 5 9 1 -3
BITMAP
78
88
88
88
88
78
08
08
08
ENDCHAR
STARTCHAR r
ENCODING 114
SWIDTH 800 0
DWIDTH 10 0
BBX 5 6 1 0
BITMAP
F0
88
80
80
80
80
ENDCHAR
STARTCHAR s
ENCODING 115
SWIDTH 800 0
DWIDTH 10 0
BBX 5 6 1 0
BITMAP
78
80
70
08
08
F0
ENDCHAR
STARTCHAR t
ENCODING 116
SWIDTH 800 0
DWIDTH 10 0
BBX 4 8 1 0
BITMAP
40
40
F0
40
40
40
40
20
ENDCHAR
STARTCHAR u
ENCODING 117
SWIDTH 800 0
DWIDTH 10 0
BBX 5 6 1 0
BITMAP
88
88
88
88
88
78
ENDCHAR
STARTCHAR v
ENCODING 118
SWIDTH 800 0
DWIDTH 10 0
BBX 5 6 1 0
BITMAP
88
88
88
88
50
20
ENDCHAR
STARTCHAR w
ENCODING 119
SWIDTH 800 0
DWIDTH 10 0
BBX 5 6 1 0
BITMAP
88
88
88
A8
F8
88
ENDCHAR
STARTCHAR x
ENCODING 120
SWIDTH 800 0
DWIDTH 10 0
BBX 5 6 1 0
BITMAP
88
88
70
70
88
88
ENDCHAR
STARTCHAR y
ENCODING 121
SWIDTH 800 0
DWIDTH 10 0
BBX 5 9 1 -3
BITMAP
88
88
88
88
88
78
08
88
70
ENDCHAR
STARTCHAR z
ENCODING 122
SWIDTH 800 0
DWIDTH 10 0
BBX 5 6 1 0
BITMAP
F8
10
20
40
80
F8
ENDCHAR
STARTCHAR braceleft
ENCODING 123
SWIDTH 800 0
DWIDTH 10 0
BBX 5 11 1 -2
BITMAP
18
20
20
20
20
C0
20
20
20
20
18
ENDCHAR
STARTCHAR bar
ENCODING 124
SWIDTH 800 0
DWIDTH 10 0
BBX 1 11 3 -2
BITMAP
80
80
80
80
80
80
80
80
80
80
80
ENDCHAR
STARTCHAR braceright
ENCODING 125
SWIDTH 800 0
DWIDTH 10 0
BBX 5 11 1 -2
BITMAP
C0
20
20
20
20
18
20
20
20
20
C0
ENDCHAR
STARTCHAR asciitilde
ENCODING 126
SWIDTH 800 0
DWIDTH 10 0
BBX 5 3 1 2
BITMAP
48
A8
90
ENDCHAR
STARTCHAR uni007F
ENCODING 127
SWIDTH 800 0
DWIDTH 10 0
BBX 0 0 0 0
BITMAP
ENDCHAR
STARTCHAR uni00A0
ENCODING 160
SWIDTH 800 0
DWIDTH 10 0
BBX 0 0 0 0
BITMAP
ENDCHAR
STARTCHAR exclamdown
ENCODING 161
SWIDTH 800 0
DWIDTH 10 0
BBX 1 8 3 -2
BITMAP
80
00
80
80
80
80
80
80
ENDCHAR
STARTCHAR cent
ENCODING 162
SWIDTH 800 0
DWIDTH 10 0
BBX 5 8 1 -1
BITMAP
20
70
A8
A0
A0
A8
70
20
ENDCHAR
STARTCHAR sterling
ENCODING 163
SWIDTH 800 0
DWIDTH 10 0
BBX 5 8 1 0
BITMAP
30
40
40
F0
40
40
40
B8
ENDCHAR
STARTCHAR currency
ENCODING 164
SWIDTH 800 0
DWIDTH 10 0
BBX 5 6 1 0
BITMAP
88
70
50
50
70
88
ENDCHAR
STARTCHAR yen
ENCODING 165
SWIDTH 800 0
DWIDTH 10 0
BBX 5 9 1 0
BITMAP
88
88
88
50
20
F8
20
F8
20
ENDCHAR
STARTCHAR brokenbar
ENCODING 166
SWIDTH 800 0
DWIDTH 10 0
BBX 1 11 3 -2
BITMAP
80
80
80
80
00
00
00
80
80
80
80
ENDCHAR
STARTCHAR section
ENCODING 167
SWIDTH 800 0
DWIDTH 10 0
BBX 5 10 1 -1
BITMAP
70
88
80
60
50
50
30
08
88
70
ENDCHAR
STARTCHAR dieresis
ENCODING 168
SWIDTH 800 0
DWIDTH 10 0
BBX 3 1 2 8
BITMAP
A0
ENDCHAR
STARTCHAR copyright
ENCODING 169
SWIDTH 800 0
DWIDTH 10 0
BBX 7 7 0 0
BITMAP
38
44
BA
A2
BA
44
38
ENDCHAR
STARTCHAR ordfeminine
ENCODING 170
SWIDTH 800 0
DWIDTH 10 0
BBX 4 5 2 3
BITMAP
60
10
70
90
70
ENDCHAR
STARTCHAR guillemotleft
ENCODING 171
SWIDTH 800 0
DWIDTH 10 0
BBX 5 5 1 1
BITMAP
28
50
A0
50
28
ENDCHAR
STARTCHAR logicalnot
ENCODING 172
SWIDTH 800 0
DWIDTH 10 0
BBX 4 4 1 0
BITMAP
F0
10
10
10
ENDCHAR
STARTCHAR uni00AD
ENCODING 173
SWIDTH 800 0
DWIDTH 10 0
BBX 3 1 2 3
BITMAP
E0
ENDCHAR
STARTCHAR registered
ENCODING 174
SWIDTH 800 0
DWIDTH 10 0
BBX 7 7 0 0
BITMAP
38
44
BA
A2
A2
44
38
ENDCHAR
STARTCHAR macron
ENCODING 175
SWIDTH 800 0
DWIDTH 10 0
BBX 7 1 0 9
BITMAP
FE
ENDCHAR
STARTCHAR degree
ENCODING 176
SWIDTH 800 0
DWIDTH 10 0
BBX 4 4 1 4
BITMAP
60
90
90
60
ENDCHAR
STARTCHAR plusminus
ENCODING 177
SWIDTH 800 0
DWIDTH 10 0
BBX 5 7 1 0
BITMAP
20
20
F8
20
20
00
F8
ENDCHAR
STARTCHAR uni00B2
ENCODING 178
SWIDTH 800 0
DWIDTH 10 0
BBX 4 5 1 4
BITMAP
60
90
20
40
F0
ENDCHAR
STARTCHAR uni00B3
ENCODING 179
SWIDTH 800 0
DWIDTH 10 0
BBX 4 5 1 4
BITMAP
E0
10
60
10
E0
ENDCHAR
STARTCHAR acute
ENCODING 180
SWIDTH 800 0
DWIDTH 10 0
BBX 2 2 3 7
BITMAP
40
80
ENDCHAR
STARTCHAR mu
ENCODING 181
SWIDTH 800 0
DWIDTH 10 0
BBX 5 8 1 -2
BITMAP
48
48
48
48
68
50
40
80
ENDCHAR
STARTCHAR paragraph
ENCODING 182
SWIDTH 800 0
DWIDTH 10 0
BBX 5 9 1 -1
BITMAP
78
E8
E8
68
28
28
28
28
28
ENDCHAR
STARTCHAR periodcentered
ENCODING 183
SWIDTH 800 0
DWIDTH 10 0
BBX 3 3 2 2
BITMAP
40
E0
40
ENDCHAR
STARTCHAR cedilla
ENCODING 184
SWIDTH 800 0
DWIDTH 10 0
BBX 3 3 2 -2
BITMAP
40
20
C0
ENDCHAR
STARTCHAR uni00B9
ENCODING 185
SWIDTH 800 0
DWIDTH 10 0
BBX 3 5 1 4
BITMAP
40
C0
40
40
E0
ENDCHAR
STARTCHAR ordmasculine
ENCODING 186
SWIDTH 800 0
DWIDTH 10 0
BBX 3 5 3 3
BITMAP
40
A0
40
00
E0
ENDCHAR
STARTCHAR guillemotright
ENCODING 187
SWIDTH 800 0
DWIDTH 10 0
BBX 5 5 1 1
BITMAP
A0
50
28
50
A0
ENDCHAR
STARTCHAR onequarter
ENCODING 188
SWIDTH 800 0
DWIDTH 10 0
BBX 5 9 1 0
BITMAP
88
90
90
A0
20
48
58
B8
88
ENDCHAR
STARTCHAR onehalf
ENCODING 189
SWIDTH 800 0
DWIDTH 10 0
BBX 5 9 1 0
BITMAP
88
90
90
A0
20
50
48
90
98
ENDCHAR
STARTCHAR threequarters
ENCODING 190
SWIDTH 800 0
DWIDTH 10 0
BBX 5 9 1 0
BITMAP
C8
50
90
60
E0
48
58
B8
88
ENDCHAR
STARTCHAR questiondown
ENCODING 191
SWIDTH 800 0
DWIDTH 10 0
BBX 5 8 1 -2
BITMAP
20
00
20
20
40
80
88
70
ENDCHAR
STARTCHAR Agrave
ENCODING 192
SWIDTH 800 0
DWIDTH 10 0
BBX 5 10 1 0
BITMAP
40
20
00
70
88
88
F8
88
88
88
ENDCHAR
STARTCHAR Aacute
ENCODING 193
SWIDTH 800 0
DWIDTH 10 0
BBX 5 10 1 0
BITMAP
10
20
00
70
88
88
F8
88
88
88
ENDCHAR
STARTCHAR Acircumflex
ENCODING 194
SWIDTH 800 0
DWIDTH 10 0
BBX 5 10 1 0
BITMAP
20
50
00
70
88
88
F8
88
88
88
ENDCHAR
STARTCHAR Atilde
ENCODING 195
SWIDTH 800 0
DWIDTH 10 0
BBX 5 10 1 0
BITMAP
68
B0
00
70
88
88
F8
88
88
88
ENDCHAR
STARTCHAR Adieresis
ENCODING 196
SWIDTH 800 0
DWIDTH 10 0
BBX 5 9 1 0
BITMAP
50
00
70
88
88
F8
88
88
88
ENDCHAR
STARTCHAR Aring
ENCODING 197
SWIDTH 800 0
DWIDTH 10 0
BBX 5 10 1 0
BITMAP
20
50
20
00
70
88
88
F8
88
88
ENDCHAR
STARTCHAR AE
ENCODING 198
SWIDTH 800 0
DWIDTH 10 0
BBX 5 8 1 0
BITMAP
78
A0
A0
B8
E0
A0
A0
B8
ENDCHAR
STARTCHAR Ccedilla
ENCODING 199
SWIDTH 800 0
DWIDTH 10 0
BBX 5 11 1 -3
BITMAP
70
88
80
80
80
80
88
70
20
20
40
ENDCHAR
STARTCHAR Egrave
ENCODING 200
SWIDTH 800 0
DWIDTH 10 0
BBX 5 10 1 0
BITMAP
40
20
00
F8
80
80
F0
80
80
F8
ENDCHAR
STARTCHAR Eacute
ENCODING 201
SWIDTH 800 0
DWIDTH 10 0
BBX 5 10 1 0
BITMAP
10
20
00
F8
80
80
F0
80
80
F8
ENDCHAR
STARTCHAR Ecircumflex
ENCODING 202
SWIDTH 800 0
DWIDTH 10 0
BBX 5 10 1 0
BITMAP
20
50
00
F8
80
80
F0
80
80
F8
ENDCHAR
STARTCHAR Edieresis
ENCODING 203
SWIDTH 800 0
DWIDTH 10 0
BBX 5 9 1 0
BITMAP
50
00
F8
80
80
F0
80
80
F8
ENDCHAR
STARTCHAR Igrave
ENCODING 204
SWIDTH 800 0
DWIDTH 10 0
BBX 3 10 2 0
BITMAP
80
40
00
E0
40
40
40
40
40
E0
ENDCHAR
STARTCHAR Iacute
ENCODING 205
SWIDTH 800 0
DWIDTH 10 0
BBX 3 10 2 0
BITMAP
20
40
00
E0
40
40
40
40
40
E0
ENDCHAR
STARTCHAR Icircumflex
ENCODING 206
SWIDTH 800 0
DWIDTH 10 0
BBX 3 10 2 0
BITMAP
40
A0
00
E0
40
40
40
40
40
E0
ENDCHAR
STARTCHAR Idieresis
ENCODING 207
SWIDTH 800 0
DWIDTH 10 0
BBX 3 9 2 0
BITMAP
A0
00
E0
40
40
40
40
40
E0
ENDCHAR
STARTCHAR Eth
ENCODING 208
SWIDTH 800 0
DWIDTH 10 0
BBX 5 7 1 0
BITMAP
70
48
48
E8
48
48
70
ENDCHAR
STARTCHAR Ntilde
ENCODING 209
SWIDTH 800 0
DWIDTH 10 0
BBX 5 10 1 0
BITMAP
68
B0
00
88
C8
C8
A8
98
98
88
ENDCHAR
STARTCHAR Ograve
ENCODING 210
SWIDTH 800 0
DWIDTH 10 0
BBX 5 10 1 0
BITMAP
40
20
00
70
88
88
88
88
88
70
ENDCHAR
STARTCHAR Oacute
ENCODING 211
SWIDTH 800 0
DWIDTH 10 0
BBX 5 10 1 0
BITMAP
10
20
00
70
88
88
88
88
88
70
ENDCHAR
STARTCHAR Ocircumflex
ENCODING 212
SWIDTH 800 0
DWIDTH 10 0
BBX 5 10 1 0
BITMAP
20
50
00
70
88
88
88
88
88
70
ENDCHAR
STARTCHAR Otilde
ENCODING 213
SWIDTH 800 0
DWIDTH 10 0
BBX 5 10 1 0
BITMAP
68
B0
00
70
88
88
88
88
88
70
ENDCHAR
STARTCHAR Odieresis
ENCODING 214
SWIDTH 800 0
DWIDTH 10 0
BBX 5 10 1 0
BITMAP
50
00
70
88
88
88
88
88
88
70
ENDCHAR
STARTCHAR multiply
ENCODING 215
SWIDTH 800 0
DWIDTH 10 0
BBX 5 5 1 1
BITMAP
88
50
20
50
88
ENDCHAR
STARTCHAR Oslash
ENCODING 216
SWIDTH 800 0
DWIDTH 10 0
BBX 5 10 1 -1
BITMAP
08
70
98
98
A8
A8
C8
C8
70
80
ENDCHAR
STARTCHAR Ugrave
ENCODING 217
SWIDTH 800 0
DWIDTH 10 0
BBX 5 10 1 0
BITMAP
40
20
00
88
88
88
88
88
88
70
ENDCHAR
STARTCHAR Uacute
ENCODING 218
SWIDTH 800 0
DWIDTH 10 0
BBX 5 10 1 0
BITMAP
10
20
00
88
88
88
88
88
88
70
ENDCHAR
STARTCHAR Ucircumflex
ENCODING 219
SWIDTH 800 0
DWIDTH 10 0
BBX 5 10 1 0
BITMAP
20
50
00
88
88
88
88
88
88
70
ENDCHAR
STARTCHAR Udieresis
ENCODING 220
SWIDTH 800 0
DWIDTH 10 0
BBX 5 9 1 0
BITMAP
50
00
88
88
88
88
88
88
70
ENDCHAR
STARTCHAR Yacute
ENCODING 221
SWIDTH 800 0
DWIDTH 10 0
BBX 5 10 1 0
BITMAP
10
20
00
88
88
88
50
20
20
20
ENDCHAR
STARTCHAR Thorn
ENCODING 222
SWIDTH 800 0
DWIDTH 10 0
BBX 5 8 1 0
BITMAP
80
80
F0
88
88
F0
80
80
ENDCHAR
STARTCHAR germandbls
ENCODING 223
SWIDTH 800 0
DWIDTH 10 0
BBX 5 8 1 0
BITMAP
60
90
90
A0
98
88
88
B0
ENDCHAR
STARTCHAR agrave
ENCODING 224
SWIDTH 800 0
DWIDTH 10 0
BBX 5 9 1 0
BITMAP
40
20
00
78
88
88
88
98
68
ENDCHAR
STARTCHAR aacute
ENCODING 225
SWIDTH 800 0
DWIDTH 10 0
BBX 5 9 1 0
BITMAP
10
20
00
78
88
88
88
98
68
ENDCHAR
STARTCHAR acircumflex
ENCODING 226
SWIDTH 800 0
DWIDTH 10 0
BBX 5 9 1 0
BITMAP
20
50
00
78
88
88
88
98
68
ENDCHAR
STARTCHAR atilde
ENCODING 227
SWIDTH 800 0
DWIDTH 10 0
BBX 5 9 1 0
BITMAP
68
B0
00
78
88
88
88
98
68
ENDCHAR
STARTCHAR adieresis
ENCODING 228
SWIDTH 800 0
DWIDTH 10 0
BBX 5 9 1 0
BITMAP
50
00
00
78
88
88
88
98
68
ENDCHAR
STARTCHAR aring
ENCODING 229
SWIDTH 800 0
DWIDTH 10 0
BBX 5 10 1 0
BITMAP
20
50
20
00
78
88
88
88
98
68
ENDCHAR
STARTCHAR ae
ENCODING 230
SWIDTH 800 0
DWIDTH 10 0
BBX 5 6 1 0
BITMAP
70
A8
B8
A0
A8
50
ENDCHAR
STARTCHAR ccedilla
ENCODING 231
SWIDTH 800 0
DWIDTH 10 0
BBX 5 9 1 -3
BITMAP
70
88
80
80
88
70
20
20
40
ENDCHAR
STARTCHAR egrave
ENCODING 232
SWIDTH 800 0
DWIDTH 10 0
BBX 5 9 1 0
BITMAP
40
20
00
70
88
F8
80
88
70
ENDCHAR
STARTCHAR eacute
ENCODING 233
SWIDTH 800 0
DWIDTH 10 0
BBX 5 9 1 0
BITMAP
10
20
00
70
88
F8
80
88
70
ENDCHAR
STARTCHAR ecircumflex
ENCODING 234
SWIDTH 800 0
DWIDTH 10 0
BBX 5 9 1 0
BITMAP
20
50
00
70
88
F8
80
88
70
ENDCHAR
STARTCHAR edieresis
ENCODING 235
SWIDTH 800 0
DWIDTH 10 0
BBX 5 9 1 0
BITMAP
50
00
00
70
88
F8
80
88
70
ENDCHAR
STARTCHAR igrave
ENCODING 236
SWIDTH 800 0
DWIDTH 10 0
BBX 4 9 2 0
BITMAP
80
40
00
C0
40
40
40
40
30
ENDCHAR
STARTCHAR iacute
ENCODING 237
SWIDTH 800 0
DWIDTH 10 0
BBX 4 9 2 0
BITMAP
20
40
00
C0
40
40
40
40
30
ENDCHAR
STARTCHAR icircumflex
ENCODING 238
SWIDTH 800 0
DWIDTH 10 0
BBX 4 9 2 0
BITMAP
40
A0
00
C0
40
40
40
40
30
ENDCHAR
STARTCHAR idieresis
ENCODING 239
SWIDTH 800 0
DWIDTH 10 0
BBX 4 9 2 0
BITMAP
A0
00
00
C0
40
40
40
40
30
ENDCHAR
STARTCHAR eth
ENCODING 240
SWIDTH 800 0
DWIDTH 10 0
BBX 5 9 1 0
BITMAP
68
10
28
08
78
88
88
88
70
ENDCHAR
STARTCHAR ntilde
ENCODING 241
SWIDTH 800 0
DWIDTH 10 0
BBX 5 9 1 0
BITMAP
68
B0
00
F0
88
88
88
88
88
ENDCHAR
STARTCHAR ograve
ENCODING 242
SWIDTH 800 0
DWIDTH 10 0
BBX 5 8 1 0
BITMAP
40
20
00
70
88
88
88
70
ENDCHAR
STARTCHAR oacute
ENCODING 243
SWIDTH 800 0
DWIDTH 10 0
BBX 5 8 1 0
BITMAP
10
20
00
70
88
88
88
70
ENDCHAR
STARTCHAR ocircumflex
ENCODING 244
SWIDTH 800 0
DWIDTH 10 0
BBX 5 8 1 0
BITMAP
20
50
00
70
88
88
88
70
ENDCHAR
STARTCHAR otilde
ENCODING 245
SWIDTH 800 0
DWIDTH 10 0
BBX 5 8 1 0
BITMAP
68
B0
00
70
88
88
88
70
ENDCHAR
STARTCHAR odieresis
ENCODING 246
SWIDTH 800 0
DWIDTH 10 0
BBX 5 7 1 0
BITMAP
50
00
70
88
88
88
70
ENDCHAR
STARTCHAR divide
ENCODING 247
SWIDTH 800 0
DWIDTH 10 0
BBX 5 5 1 1
BITMAP
20
00
F8
00
20
ENDCHAR
STARTCHAR oslash
ENCODING 248
SWIDTH 800 0
DWIDTH 10 0
BBX 5 8 1 -1
BITMAP
08
70
98
A8
A8
C8
70
80
ENDCHAR
STARTCHAR ugrave
ENCODING 249
SWIDTH 800 0
DWIDTH 10 0
BBX 5 9 1 0
BITMAP
40
20
00
88
88
88
88
88
78
ENDCHAR
STARTCHAR uacute
ENCODING 250
SWIDTH 800 0
DWIDTH 10 0
BBX 5 9 1 0
BITMAP
10
20
00
88
88
88
88
88
78
ENDCHAR
STARTCHAR ucircumflex
ENCODING 251
SWIDTH 800 0
DWIDTH 10 0
BBX 5 9 1 0
BITMAP
20
50
00
88
88
88
88
88
78
ENDCHAR
STARTCHAR udieresis
ENCODING 252
SWIDTH 800 0
DWIDTH 10 0
BBX 5 9 1 0
BITMAP
50
00
00
88
88
88
88
88
78
ENDCHAR
STARTCHAR yacute
ENCODING 253
SWIDTH 800 0
DWIDTH 10 0
BBX 5 12 1 -3
BITMAP
10
20
00
88
88
88
88
88
78
08
08
70
ENDCHAR
STARTCHAR thorn
ENCODING 254
SWIDTH 800 0
DWIDTH 10 0
BBX 5 10 1 -2
BITMAP
80
80
F0
88
88
88
88
F0
80
80
ENDCHAR
STARTCHAR ydieresis
ENCODING 255
SWIDTH 800 0
DWIDTH 10 0
BBX 5 11 1 -3
BITMAP
50
00
88
88
88
88
88
78
08
08
70
ENDCHAR
STARTCHAR Amacron
ENCODING 256
SWIDTH 800 0
DWIDTH 10 0
BBX 5 9 1 0
BITMAP
70
00
70
88
88
F8
88
88
88
ENDCHAR
STARTCHAR amacron
ENCODING 257
SWIDTH 800 0
DWIDTH 10 0
BBX 5 8 1 0
BITMAP
70
00
78
88
88
88
98
68
ENDCHAR
STARTCHAR Abreve
ENCODING 258
SWIDTH 800 0
DWIDTH 10 0
BBX 5 10 1 0
BITMAP
50
70
00
70
88
88
F8
88
88
88
ENDCHAR
STARTCHAR abreve
ENCODING 259
SWIDTH 800 0
DWIDTH 10 0
BBX 5 9 1 0
BITMAP
50
70
00
78
88
88
88
98
68
ENDCHAR
STARTCHAR Aogonek
ENCODING 260
SWIDTH 800 0
DWIDTH 10 0
BBX 5 10 1 -2
BITMAP
70
88
88
88
F8
88
88
88
10
18
ENDCHAR
STARTCHAR aogonek
ENCODING 261
SWIDTH 800 0
DWIDTH 10 0
BBX 5 8 1 -2
BITMAP
70
88
88
88
98
68
10
18
ENDCHAR
STARTCHAR Cacute
ENCODING 262
SWIDTH 800 0
DWIDTH 10 0
BBX 5 10 1 0
BITMAP
10
20
00
70
88
80
80
80
88
70
ENDCHAR
STARTCHAR cacute
ENCODING 263
SWIDTH 800 0
DWIDTH 10 0
BBX 5 9 1 0
BITMAP
10
20
00
70
88
80
80
88
70
ENDCHAR
STARTCHAR Ccircumflex
ENCODING 264
SWIDTH 800 0
DWIDTH 10 0
BBX 5 10 1 0
BITMAP
20
50
00
70
88
80
80
80
88
70
ENDCHAR
STARTCHAR ccircumflex
ENCODING 265
SWIDTH 800 0
DWIDTH 10 0
BBX 5 9 1 0
BITMAP
20
50
00
70
88
80
80
88
70
ENDCHAR
STARTCHAR Cdotaccent
ENCODING 266
SWIDTH 800 0
DWIDTH 10 0
BBX 5 10 1 0
BITMAP
20
00
70
88
80
80
80
80
88
70
ENDCHAR
STARTCHAR cdotaccent
ENCODING 267
SWIDTH 800 0
DWIDTH 10 0
BBX 5 8 1 0
BITMAP
20
00
70
88
80
80
88
70
ENDCHAR
STARTCHAR Ccaron
ENCODING 268
SWIDTH 800 0
DWIDTH 10 0
BBX 5 10 1 0
BITMAP
50
20
00
70
88
80
80
80
88
70
ENDCHAR
STARTCHAR ccaron
ENCODING 269
SWIDTH 800 0
DWIDTH 10 0
BBX 5 9 1 0
BITMAP
50
20
00
70
88
80
80
88
70
ENDCHAR
STARTCHAR Dcaron
ENCODING 270
SWIDTH 800 0
DWIDTH 10 0
BBX 5 10 1 0
BITMAP
50
20
00
E0
90
88
88
88
90
E0
ENDCHAR
STARTCHAR dcaron
ENCODING 271
SWIDTH 800 0
DWIDTH 10 0
BBX 6 9 1 0
BITMAP
14
18
10
70
90
90
90
90
70
ENDCHAR
STARTCHAR Dcroat
ENCODING 272
SWIDTH 800 0
DWIDTH 10 0
BBX 5 8 1 0
BITMAP
60
50
48
E8
48
48
50
60
ENDCHAR
STARTCHAR dcroat
ENCODING 273
SWIDTH 800 0
DWIDTH 10 0
BBX 5 9 1 0
BITMAP
10
78
10
70
90
90
90
90
70
ENDCHAR
STARTCHAR Emacron
ENCODING 274
SWIDTH 800 0
DWIDTH 10 0
BBX 5 10 1 0
BITMAP
70
00
F8
80
80
F0
80
80
80
F8
ENDCHAR
STARTCHAR emacron
ENCODING 275
SWIDTH 800 0
DWIDTH 10 0
BBX 5 8 1 0
BITMAP
70
00
70
88
F8
80
88
70
ENDCHAR
STARTCHAR Ebreve
ENCODING 276
SWIDTH 800 0
DWIDTH 10 0
BBX 5 10 1 0
BITMAP
50
70
00
F8
80
80
F0
80
80
F8
ENDCHAR
STARTCHAR ebreve
ENCODING 277
SWIDTH 800 0
DWIDTH 10 0
BBX 5 9 1 0
BITMAP
50
70
00
70
88
F8
80
88
70
ENDCHAR
STARTCHAR Edotaccent
ENCODING 278
SWIDTH 800 0
DWIDTH 10 0
BBX 5 10 1 0
BITMAP
20
00
F8
80
80
F0
80
80
80
F8
ENDCHAR
STARTCHAR edotaccent
ENCODING 279
SWIDTH 800 0
DWIDTH 10 0
BBX 5 8 1 0
BITMAP
20
00
70
88
F8
80
88
70
ENDCHAR
STARTCHAR Eogonek
ENCODING 280
SWIDTH 800 0
DWIDTH 10 0
BBX 5 10 1 -2
BITMAP
F8
80
80
F0
80
80
80
F8
10
18
ENDCHAR
STARTCHAR eogonek
ENCODING 281
SWIDTH 800 0
DWIDTH 10 0
BBX 5 8 1 -2
BITMAP
70
88
F8
80
88
70
10
18
ENDCHAR
STARTCHAR Ecaron
ENCODING 282
SWIDTH 800 0
DWIDTH 10 0
BBX 5 10 1 0
BITMAP
50
20
00
F8
80
80
F0
80
80
F8
ENDCHAR
STARTCHAR ecaron
ENCODING 283
SWIDTH 800 0
DWIDTH 10 0
BBX 5 9 1 0
BITMAP
50
20
00
70
88
F8
80
88
70
ENDCHAR
STARTCHAR Gcircumflex
ENCODING 284
SWIDTH 800 0
DWIDTH 10 0
BBX 5 10 1 0
BITMAP
20
50
00
70
88
80
98
88
88
70
ENDCHAR
STARTCHAR gcircumflex
ENCODING 285
SWIDTH 800 0
DWIDTH 10 0
BBX 5 12 1 -3
BITMAP
20
50
00
78
88
88
88
88
78
08
08
70
ENDCHAR
STARTCHAR Gbreve
ENCODING 286
SWIDTH 800 0
DWIDTH 10 0
BBX 5 10 1 0
BITMAP
50
70
00
70
88
80
98
88
88
70
ENDCHAR
STARTCHAR gbreve
ENCODING 287
SWIDTH 800 0
DWIDTH 10 0
BBX 5 12 1 -3
BITMAP
50
70
00
78
88
88
88
88
78
08
08
70
ENDCHAR
STARTCHAR Gdotaccent
ENCODING 288
SWIDTH 800 0
DWIDTH 10 0
BBX 5 10 1 0
BITMAP
20
00
70
88
80
80
98
88
88
70
ENDCHAR
STARTCHAR gdotaccent
ENCODING 289
SWIDTH 800 0
DWIDTH 10 0
BBX 5 11 1 -3
BITMAP
20
00
78
88
88
88
88
78
08
08
70
ENDCHAR
STARTCHAR Gcommaaccent
ENCODING 290
SWIDTH 800 0
DWIDTH 10 0
BBX 5 11 1 -3
BITMAP
70
88
80
80
98
88
88
70
00
20
40
ENDCHAR
STARTCHAR gcommaaccent
ENCODING 291
SWIDTH 800 0
DWIDTH 10 0
BBX 5 12 1 -3
BITMAP
10
20
00
78
88
88
88
88
78
08
08
70
ENDCHAR
STARTCHAR Hcircumflex
ENCODING 292
SWIDTH 800 0
DWIDTH 10 0
BBX 5 10 1 0
BITMAP
20
50
00
88
88
88
F8
88
88
88
ENDCHAR
STARTCHAR hcircumflex
ENCODING 293
SWIDTH 800 0
DWIDTH 10 0
BBX 5 10 1 0
BITMAP
40
A0
00
40
40
70
48
48
48
48
ENDCHAR
STARTCHAR Hbar
ENCODING 294
SWIDTH 800 0
DWIDTH 10 0
BBX 7 8 0 0
BITMAP
44
FE
44
7C
44
44
44
44
ENDCHAR
STARTCHAR hbar
ENCODING 295
SWIDTH 800 0
DWIDTH 10 0
BBX 5 9 1 0
BITMAP
40
E0
40
70
48
48
48
48
48
ENDCHAR
STARTCHAR Itilde
ENCODING 296
SWIDTH 800 0
DWIDTH 10 0
BBX 5 10 1 0
BITMAP
68
B0
00
70
20
20
20
20
20
70
ENDCHAR
STARTCHAR itilde
ENCODING 297
SWIDTH 800 0
DWIDTH 10 0
BBX 5 9 1 0
BITMAP
68
B0
00
60
20
20
20
20
18
ENDCHAR
STARTCHAR Imacron
ENCODING 298
SWIDTH 800 0
DWIDTH 10 0
BBX 3 10 2 0
BITMAP
E0
00
E0
40
40
40
40
40
40
E0
ENDCHAR
STARTCHAR imacron
ENCODING 299
SWIDTH 800 0
DWIDTH 10 0
BBX 4 9 2 0
BITMAP
E0
00
00
C0
40
40
40
40
30
ENDCHAR
STARTCHAR Ibreve
ENCODING 300
SWIDTH 800 0
DWIDTH 10 0
BBX 3 10 2 0
BITMAP
A0
E0
00
E0
40
40
40
40
40
E0
ENDCHAR
STARTCHAR ibreve
ENCODING 301
SWIDTH 800 0
DWIDTH 10 0
BBX 4 9 2 0
BITMAP
A0
E0
00
C0
40
40
40
40
30
ENDCHAR
STARTCHAR Iogonek
ENCODING 302
SWIDTH 800 0
DWIDTH 10 0
BBX 3 10 2 -2
BITMAP
E0
40
40
40
40
40
40
E0
40
60
ENDCHAR
STARTCHAR iogonek
ENCODING 303
SWIDTH 800 0
DWIDTH 10 0
BBX 4 10 2 -2
BITMAP
40
00
C0
40
40
40
40
30
20
30
ENDCHAR
STARTCHAR Idotaccent
ENCODING 304
SWIDTH 800 0
DWIDTH 10 0
BBX 3 10 2 0
BITMAP
40
00
E0
40
40
40
40
40
40
E0
ENDCHAR
STARTCHAR dotlessi
ENCODING 305
SWIDTH 800 0
DWIDTH 10 0
BBX 4 6 2 0
BITMAP
C0
40
40
40
40
30
ENDCHAR
STARTCHAR IJ
ENCODING 306
SWIDTH 800 0
DWIDTH 10 0
BBX 5 11 1 -2
BITMAP
F8
48
48
48
48
48
48
48
E8
08
10
ENDCHAR
STARTCHAR ij
ENCODING 307
SWIDTH 800 0
DWIDTH 10 0
BBX 5 10 1 -2
BITMAP
48
00
D8
48
48
48
48
28
08
10
ENDCHAR
STARTCHAR Jcircumflex
ENCODING 308
SWIDTH 800 0
DWIDTH 10 0
BBX 5 10 1 0
BITMAP
10
28
00
38
08
08
08
88
88
70
ENDCHAR
STARTCHAR jcircumflex
ENCODING 309
SWIDTH 800 0
DWIDTH 10 0
BBX 5 11 1 -2
BITMAP
10
28
00
30
10
10
10
10
10
10
E0
ENDCHAR
STARTCHAR Kcommaaccent
ENCODING 310
SWIDTH 800 0
DWIDTH 10 0
BBX 5 10 1 -2
BITMAP
88
90
A0
E0
90
90
88
88
20
40
ENDCHAR
STARTCHAR kcommaaccent
ENCODING 311
SWIDTH 800 0
DWIDTH 10 0
BBX 5 11 1 -2
BITMAP
80
80
80
88
90
A0
E0
90
88
20
40
ENDCHAR
STARTCHAR kgreenlandic
ENCODING 312
SWIDTH 800 0
DWIDTH 10 0
BBX 5 6 1 0
BITMAP
88
90
A0
E0
90
88
ENDCHAR
STARTCHAR Lacute
ENCODING 313
SWIDTH 800 0
DWIDTH 10 0
BBX 5 10 1 0
BITMAP
40
80
00
80
80
80
80
80
80
F8
ENDCHAR
STARTCHAR lacute
ENCODING 314
SWIDTH 800 0
DWIDTH 10 0
BBX 3 10 2 0
BITMAP
20
40
00
C0
40
40
40
40
40
60
ENDCHAR
STARTCHAR Lcommaaccent
ENCODING 315
SWIDTH 800 0
DWIDTH 10 0
BBX 5 11 1 -3
BITMAP
80
80
80
80
80
80
80
F8
00
20
40
ENDCHAR
STARTCHAR lcommaaccent
ENCODING 316
SWIDTH 800 0
DWIDTH 10 0
BBX 3 12 2 -3
BITMAP
C0
40
40
40
40
40
40
40
60
00
40
80
ENDCHAR
STARTCHAR Lcaron
ENCODING 317
SWIDTH 800 0
DWIDTH 10 0
BBX 5 9 1 0
BITMAP
20
A0
80
80
80
80
80
80
F8
ENDCHAR
STARTCHAR lcaron
ENCODING 318
SWIDTH 800 0
DWIDTH 10 0
BBX 4 10 2 0
BITMAP
10
D0
40
40
40
40
40
40
40
60
ENDCHAR
STARTCHAR Ldot
ENCODING 319
SWIDTH 800 0
DWIDTH 10 0
BBX 5 8 1 0
BITMAP
80
80
80
A0
80
80
80
F8
ENDCHAR
STARTCHAR ldot
ENCODING 320
SWIDTH 800 0
DWIDTH 10 0
BBX 4 9 2 0
BITMAP
C0
40
40
40
50
40
40
40
60
ENDCHAR
STARTCHAR Lslash
ENCODING 321
SWIDTH 800 0
DWIDTH 10 0
BBX 5 8 1 0
BITMAP
40
40
50
60
40
C0
40
78
ENDCHAR
STARTCHAR lslash
ENCODING 322
SWIDTH 800 0
DWIDTH 10 0
BBX 3 9 2 0
BITMAP
C0
40
40
60
C0
40
40
40
60
ENDCHAR
STARTCHAR Nacute
ENCODING 323
SWIDTH 800 0
DWIDTH 10 0
BBX 5 10 1 0
BITMAP
10
20
00
88
C8
C8
A8
98
98
88
ENDCHAR
STARTCHAR nacute
ENCODING 324
SWIDTH 800 0
DWIDTH 10 0
BBX 5 9 1 0
BITMAP
10
20
00
F0
88
88
88
88
88
ENDCHAR
STARTCHAR Ncommaaccent
ENCODING 325
SWIDTH 800 0
DWIDTH 10 0
BBX 5 11 1 -3
BITMAP
88
C8
C8
A8
A8
98
98
88
00
20
40
ENDCHAR
STARTCHAR ncommaaccent
ENCODING 326
SWIDTH 800 0
DWIDTH 10 0
BBX 5 8 1 -2
BITMAP
F0
88
88
88
88
88
20
40
ENDCHAR
STARTCHAR Ncaron
ENCODING 327
SWIDTH 800 0
DWIDTH 10 0
BBX 5 10 1 0
BITMAP
50
20
88
C8
C8
A8
A8
98
98
88
ENDCHAR
STARTCHAR ncaron
ENCODING 328
SWIDTH 800 0
DWIDTH 10 0
BBX 5 9 1 0
BITMAP
50
20
00
F0
88
88
88
88
88
ENDCHAR
STARTCHAR napostrophe
ENCODING 329
SWIDTH 800 0
DWIDTH 10 0
BBX 5 9 1 0
BITMAP
80
80
00
70
48
48
48
48
48
ENDCHAR
STARTCHAR Eng
ENCODING 330
SWIDTH 800 0
DWIDTH 10 0
BBX 5 10 1 -2
BITMAP
B0
C8
88
88
88
88
88
88
08
10
ENDCHAR
STARTCHAR eng
ENCODING 331
SWIDTH 800 0
DWIDTH 10 0
BBX 5 8 1 -2
BITMAP
B0
C8
88
88
88
88
08
10
ENDCHAR
STARTCHAR Omacron
ENCODING 332
SWIDTH 800 0
DWIDTH 10 0
BBX 5 10 1 0
BITMAP
70
00
70
88
88
88
88
88
88
70
ENDCHAR
STARTCHAR omacron
ENCODING 333
SWIDTH 800 0
DWIDTH 10 0
BBX 5 7 1 0
BITMAP
70
00
70
88
88
88
70
ENDCHAR
STARTCHAR Obreve
ENCODING 334
SWIDTH 800 0
DWIDTH 10 0
BBX 5 10 1 0
BITMAP
50
70
00
70
88
88
88
88
88
70
ENDCHAR
STARTCHAR obreve
ENCODING 335
SWIDTH 800 0
DWIDTH 10 0
BBX 5 8 1 0
BITMAP
50
70
00
70
88
88
88
70
ENDCHAR
STARTCHAR Ohungarumlaut
ENCODING 336
SWIDTH 800 0
DWIDTH 10 0
BBX 5 10 1 0
BITMAP
28
50
00
70
88
88
88
88
88
70
ENDCHAR
STARTCHAR ohungarumlaut
ENCODING 337
SWIDTH 800 0
DWIDTH 10 0
BBX 5 8 1 0
BITMAP
28
50
00
70
88
88
88
70
ENDCHAR
STARTCHAR OE
ENCODING 338
SWIDTH 800 0
DWIDTH 10 0
BBX 5 8 1 0
BITMAP
78
A0
A0
B0
A0
A0
A0
78
ENDCHAR
STARTCHAR oe
ENCODING 339
SWIDTH 800 0
DWIDTH 10 0
BBX 5 6 1 0
BITMAP
50
A8
B8
A0
A8
50
ENDCHAR
STARTCHAR Racute
ENCODING 340
SWIDTH 800 0
DWIDTH 10 0
BBX 5 10 1 0
BITMAP
10
20
00
F0
88
88
F0
90
88
88
ENDCHAR
STARTCHAR racute
ENCODING 341
SWIDTH 800 0
DWIDTH 10 0
BBX 5 9 1 0
BITMAP
10
20
00
F0
88
80
80
80
80
ENDCHAR
STARTCHAR Rcommaaccent
ENCODING 342
SWIDTH 800 0
DWIDTH 10 0
BBX 5 10 1 -2
BITMAP
F0
88
88
F0
90
88
88
88
20
40
ENDCHAR
STARTCHAR rcommaaccent
ENCODING 343
SWIDTH 800 0
DWIDTH 10 0
BBX 6 9 0 -3
BITMAP
78
44
40
40
40
40
00
40
80
ENDCHAR
STARTCHAR Rcaron
ENCODING 344
SWIDTH 800 0
DWIDTH 10 0
BBX 5 10 1 0
BITMAP
50
70
00
F0
88
88
F0
90
88
88
ENDCHAR
STARTCHAR rcaron
ENCODING 345
SWIDTH 800 0
DWIDTH 10 0
BBX 5 9 1 0
BITMAP
50
70
00
F0
88
80
80
80
80
ENDCHAR
STARTCHAR Sacute
ENCODING 346
SWIDTH 800 0
DWIDTH 10 0
BBX 5 10 1 0
BITMAP
10
20
00
70
88
80
70
08
88
70
ENDCHAR
STARTCHAR sacute
ENCODING 347
SWIDTH 800 0
DWIDTH 10 0
BBX 5 9 1 0
BITMAP
10
20
00
78
80
70
08
08
F0
ENDCHAR
STARTCHAR Scircumflex
ENCODING 348
SWIDTH 800 0
DWIDTH 10 0
BBX 5 10 1 0
BITMAP
20
50
00
70
88
80
70
08
88
70
ENDCHAR
STARTCHAR scircumflex
ENCODING 349
SWIDTH 800 0
DWIDTH 10 0
BBX 5 9 1 0
BITMAP
20
50
00
78
80
70
08
08
F0
ENDCHAR
STARTCHAR Scedilla
ENCODING 350
SWIDTH 800 0
DWIDTH 10 0
BBX 5 10 1 -2
BITMAP
70
88
80
70
08
08
88
70
10
60
ENDCHAR
STARTCHAR scedilla
ENCODING 351
SWIDTH 800 0
DWIDTH 10 0
BBX 5 8 1 -2
BITMAP
78
80
70
08
08
F0
10
30
ENDCHAR
STARTCHAR Scaron
ENCODING 352
SWIDTH 800 0
DWIDTH 10 0
BBX 5 10 1 0
BITMAP
50
20
00
70
88
80
70
08
88
70
ENDCHAR
STARTCHAR scaron
ENCODING 353
SWIDTH 800 0
DWIDTH 10 0
BBX 5 9 1 0
BITMAP
50
20
00
78
80
70
08
08
F0
ENDCHAR
STARTCHAR Tcommaaccent
ENCODING 354
SWIDTH 800 0
DWIDTH 10 0
BBX 5 10 1 -2
BITMAP
F8
20
20
20
20
20
20
20
10
30
ENDCHAR
STARTCHAR tcommaaccent
ENCODING 355
SWIDTH 800 0
DWIDTH 10 0
BBX 5 10 1 -2
BITMAP
40
40
F0
40
40
40
40
38
10
30
ENDCHAR
STARTCHAR Tcaron
ENCODING 356
SWIDTH 800 0
DWIDTH 10 0
BBX 5 10 1 0
BITMAP
50
20
00
F8
20
20
20
20
20
20
ENDCHAR
STARTCHAR tcaron
ENCODING 357
SWIDTH 800 0
DWIDTH 10 0
BBX 5 9 1 0
BITMAP
10
50
40
F0
40
40
40
40
38
ENDCHAR
STARTCHAR Utilde
ENCODING 360
SWIDTH 800 0
DWIDTH 10 0
BBX 5 10 1 0
BITMAP
68
B0
00
88
88
88
88
88
88
70
ENDCHAR
STARTCHAR utilde
ENCODING 361
SWIDTH 800 0
DWIDTH 10 0
BBX 5 9 1 0
BITMAP
68
B0
00
88
88
88
88
88
78
ENDCHAR
STARTCHAR Umacron
ENCODING 362
SWIDTH 800 0
DWIDTH 10 0
BBX 5 10 1 0
BITMAP
70
00
88
88
88
88
88
88
88
70
ENDCHAR
STARTCHAR umacron
ENCODING 363
SWIDTH 800 0
DWIDTH 10 0
BBX 5 8 1 0
BITMAP
70
00
88
88
88
88
88
78
ENDCHAR
STARTCHAR Ubreve
ENCODING 364
SWIDTH 800 0
DWIDTH 10 0
BBX 5 10 1 0
BITMAP
20
50
20
88
88
88
88
88
88
70
ENDCHAR
STARTCHAR ubreve
ENCODING 365
SWIDTH 800 0
DWIDTH 10 0
BBX 5 10 1 0
BITMAP
20
50
20
00
88
88
88
88
88
78
ENDCHAR
STARTCHAR Uring
ENCODING 366
SWIDTH 800 0
DWIDTH 10 0
BBX 5 10 1 0
BITMAP
20
50
20
88
88
88
88
88
88
70
ENDCHAR
STARTCHAR uring
ENCODING 367
SWIDTH 800 0
DWIDTH 10 0
BBX 5 10 1 0
BITMAP
20
50
20
00
88
88
88
88
88
78
ENDCHAR
STARTCHAR Uhungarumlaut
ENCODING 368
SWIDTH 800 0
DWIDTH 10 0
BBX 5 10 1 0
BITMAP
28
50
00
88
88
88
88
88
88
70
ENDCHAR
STARTCHAR uhungarumlaut
ENCODING 369
SWIDTH 800 0
DWIDTH 10 0
BBX 5 9 1 0
BITMAP
28
50
00
88
88
88
88
88
78
ENDCHAR
STARTCHAR Ydieresis
ENCODING 376
SWIDTH 800 0
DWIDTH 10 0
BBX 5 9 1 0
BITMAP
50
00
88
88
88
50
20
20
20
ENDCHAR
STARTCHAR Zacute
ENCODING 377
SWIDTH 800 0
DWIDTH 10 0
BBX 5 10 1 0
BITMAP
10
20
00
F8
08
10
20
40
80
F8
ENDCHAR
STARTCHAR zacute
ENCODING 378
SWIDTH 800 0
DWIDTH 10 0
BBX 5 9 1 0
BITMAP
10
20
00
F8
10
20
40
80
F8
ENDCHAR
STARTCHAR Zdotaccent
ENCODING 379
SWIDTH 800 0
DWIDTH 10 0
BBX 5 10 1 0
BITMAP
20
00
F8
10
20
20
40
40
80
F8
ENDCHAR
STARTCHAR zdotaccent
ENCODING 380
SWIDTH 800 0
DWIDTH 10 0
BBX 5 8 1 0
BITMAP
20
00
F8
10
20
40
80
F8
ENDCHAR
STARTCHAR Zcaron
ENCODING 381
SWIDTH 800 0
DWIDTH 10 0
BBX 5 10 1 0
BITMAP
50
20
00
F8
08
10
20
40
80
F8
ENDCHAR
STARTCHAR zcaron
ENCODING 382
SWIDTH 800 0
DWIDTH 10 0
BBX 5 9 1 0
BITMAP
50
20
00
F8
10
20
40
80
F8
ENDCHAR
STARTCHAR florin
ENCODING 402
SWIDTH 800 0
DWIDTH 10 0
BBX 5 11 1 -2
BITMAP
18
20
20
78
20
20
20
20
20
20
C0
ENDCHAR
STARTCHAR uni01C3
ENCODING 451
SWIDTH 800 0
DWIDTH 10 0
BBX 1 7 3 0
BITMAP
80
80
80
80
80
00
80
ENDCHAR
STARTCHAR uni0246
ENCODING 582
SWIDTH 800 0
DWIDTH 10 0
BBX 5 11 1 -2
BITMAP
08
F8
88
90
F8
90
A0
A0
F8
40
40
ENDCHAR
STARTCHAR uni0247
ENCODING 583
SWIDTH 800 0
DWIDTH 10 0
BBX 5 8 1 -1
BITMAP
10
70
A8
F8
A0
C8
70
40
ENDCHAR
STARTCHAR circumflex
ENCODING 710
SWIDTH 800 0
DWIDTH 10 0
BBX 5 3 1 6
BITMAP
20
50
88
ENDCHAR
STARTCHAR tilde
ENCODING 732
SWIDTH 800 0
DWIDTH 10 0
BBX 5 2 1 6
BITMAP
68
B0
ENDCHAR
STARTCHAR Alpha
ENCODING 913
SWIDTH 800 0
DWIDTH 10 0
BBX 5 8 1 0
BITMAP
20
20
50
50
70
88
88
88
ENDCHAR
STARTCHAR Beta
ENCODING 914
SWIDTH 800 0
DWIDTH 10 0
BBX 5 8 1 0
BITMAP
E0
90
90
F0
88
88
88
F0
ENDCHAR
STARTCHAR Gamma
ENCODING 915
SWIDTH 800 0
DWIDTH 10 0
BBX 5 8 1 0
BITMAP
F8
88
80
80
80
80
80
80
ENDCHAR
STARTCHAR uni0394
ENCODING 916
SWIDTH 800 0
DWIDTH 10 0
BBX 5 8 1 0
BITMAP
20
20
50
50
50
88
88
F8
ENDCHAR
STARTCHAR Epsilon
ENCODING 917
SWIDTH 800 0
DWIDTH 10 0
BBX 5 8 1 0
BITMAP
F8
80
80
80
E0
80
80
F8
ENDCHAR
STARTCHAR Zeta
ENCODING 918
SWIDTH 800 0
DWIDTH 10 0
BBX 5 8 1 0
BITMAP
F8
10
20
20
40
40
80
F8
ENDCHAR
STARTCHAR Eta
ENCODING 919
SWIDTH 800 0
DWIDTH 10 0
BBX 5 8 1 0
BITMAP
88
88
88
F8
88
88
88
88
ENDCHAR
STARTCHAR Theta
ENCODING 920
SWIDTH 800 0
DWIDTH 10 0
BBX 5 8 1 0
BITMAP
70
88
88
88
F8
88
88
70
ENDCHAR
STARTCHAR Iota
ENCODING 921
SWIDTH 800 0
DWIDTH 10 0
BBX 3 8 2 0
BITMAP
E0
40
40
40
40
40
40
E0
ENDCHAR
STARTCHAR Kappa
ENCODING 922
SWIDTH 800 0
DWIDTH 10 0
BBX 5 8 1 0
BITMAP
88
90
A0
C0
C0
A0
90
88
ENDCHAR
STARTCHAR Lambda
ENCODING 923
SWIDTH 800 0
DWIDTH 10 0
BBX 5 8 1 0
BITMAP
20
20
50
50
50
88
88
88
ENDCHAR
STARTCHAR Mu
ENCODING 924
SWIDTH 800 0
DWIDTH 10 0
BBX 5 8 1 0
BITMAP
88
88
D8
D8
A8
A8
88
88
ENDCHAR
STARTCHAR Nu
ENCODING 925
SWIDTH 800 0
DWIDTH 10 0
BBX 5 8 1 0
BITMAP
88
C8
C8
A8
A8
98
98
88
ENDCHAR
STARTCHAR Xi
ENCODING 926
SWIDTH 800 0
DWIDTH 10 0
BBX 5 8 1 0
BITMAP
F8
88
00
70
00
00
88
F8
ENDCHAR
STARTCHAR Omicron
ENCODING 927
SWIDTH 800 0
DWIDTH 10 0
BBX 5 8 1 0
BITMAP
70
88
88
88
88
88
88
70
ENDCHAR
STARTCHAR Pi
ENCODING 928
SWIDTH 800 0
DWIDTH 10 0
BBX 5 8 1 0
BITMAP
F8
88
88
88
88
88
88
88
ENDCHAR
STARTCHAR Rho
ENCODING 929
SWIDTH 800 0
DWIDTH 10 0
BBX 5 8 1 0
BITMAP
F0
88
88
88
F0
80
80
80
ENDCHAR
STARTCHAR Sigma
ENCODING 931
SWIDTH 800 0
DWIDTH 10 0
BBX 6 8 0 0
BITMAP
FC
44
20
10
10
20
44
FC
ENDCHAR
STARTCHAR Tau
ENCODING 932
SWIDTH 800 0
DWIDTH 10 0
BBX 5 8 1 0
BITMAP
F8
20
20
20
20
20
20
20
ENDCHAR
STARTCHAR Upsilon
ENCODING 933
SWIDTH 800 0
DWIDTH 10 0
BBX 5 8 1 0
BITMAP
88
88
88
78
08
08
88
78
ENDCHAR
STARTCHAR Phi
ENCODING 934
SWIDTH 800 0
DWIDTH 10 0
BBX 5 9 1 -1
BITMAP
F8
20
70
A8
A8
A8
70
20
F8
ENDCHAR
STARTCHAR Chi
ENCODING 935
SWIDTH 800 0
DWIDTH 10 0
BBX 5 8 1 0
BITMAP
88
88
50
20
20
50
88
88
ENDCHAR
STARTCHAR Psi
ENCODING 936
SWIDTH 800 0
DWIDTH 10 0
BBX 5 8 1 0
BITMAP
A8
A8
A8
A8
A8
70
20
70
ENDCHAR
STARTCHAR uni03A9
ENCODING 937
SWIDTH 800 0
DWIDTH 10 0
BBX 5 8 1 0
BITMAP
70
88
88
88
88
D8
50
D8
ENDCHAR
STARTCHAR Iotadieresis
ENCODING 938
SWIDTH 800 0
DWIDTH 10 0
BBX 3 9 2 0
BITMAP
A0
00
E0
40
40
40
40
40
E0
ENDCHAR
STARTCHAR Upsilondieresis
ENCODING 939
SWIDTH 800 0
DWIDTH 10 0
BBX 5 9 1 0
BITMAP
50
00
88
88
50
20
20
20
20
ENDCHAR
STARTCHAR alphatonos
ENCODING 940
SWIDTH 800 0
DWIDTH 10 0
BBX 5 9 1 0
BITMAP
10
20
00
68
98
90
90
90
68
ENDCHAR
STARTCHAR alpha
ENCODING 945
SWIDTH 800 0
DWIDTH 10 0
BBX 5 6 1 0
BITMAP
68
98
90
90
90
68
ENDCHAR
STARTCHAR beta
ENCODING 946
SWIDTH 800 0
DWIDTH 10 0
BBX 5 11 1 -3
BITMAP
70
88
88
B0
88
88
88
F0
80
80
80
ENDCHAR
STARTCHAR gamma
ENCODING 947
SWIDTH 800 0
DWIDTH 10 0
BBX 5 10 1 -3
BITMAP
08
08
70
B0
30
30
50
50
70
20
ENDCHAR
STARTCHAR delta
ENCODING 948
SWIDTH 800 0
DWIDTH 10 0
BBX 5 7 1 0
BITMAP
F8
80
70
88
88
88
70
ENDCHAR
STARTCHAR epsilon
ENCODING 949
SWIDTH 800 0
DWIDTH 10 0
BBX 5 6 1 0
BITMAP
70
88
60
80
88
70
ENDCHAR
STARTCHAR zeta
ENCODING 950
SWIDTH 800 0
DWIDTH 10 0
BBX 5 9 1 -2
BITMAP
F8
30
40
80
80
80
78
08
10
ENDCHAR
STARTCHAR eta
ENCODING 951
SWIDTH 800 0
DWIDTH 10 0
BBX 5 8 1 -2
BITMAP
F0
88
88
88
88
88
08
08
ENDCHAR
STARTCHAR theta
ENCODING 952
SWIDTH 800 0
DWIDTH 10 0
BBX 5 7 1 0
BITMAP
70
88
88
88
F8
88
70
ENDCHAR
STARTCHAR iota
ENCODING 953
SWIDTH 800 0
DWIDTH 10 0
BBX 3 6 2 0
BITMAP
C0
40
40
40
40
20
ENDCHAR
STARTCHAR kappa
ENCODING 954
SWIDTH 800 0
DWIDTH 10 0
BBX 5 6 1 0
BITMAP
88
90
A0
E0
90
88
ENDCHAR
STARTCHAR lambda
ENCODING 955
SWIDTH 800 0
DWIDTH 10 0
BBX 5 8 1 0
BITMAP
C0
20
20
20
50
50
88
88
ENDCHAR
STARTCHAR uni03BC
ENCODING 956
SWIDTH 800 0
DWIDTH 10 0
BBX 5 9 1 -3
BITMAP
88
88
88
88
98
E8
80
80
80
ENDCHAR
STARTCHAR nu
ENCODING 957
SWIDTH 800 0
DWIDTH 10 0
BBX 5 6 1 0
BITMAP
B0
88
48
48
30
20
ENDCHAR
STARTCHAR xi
ENCODING 958
SWIDTH 800 0
DWIDTH 10 0
BBX 5 9 1 -2
BITMAP
F8
40
78
80
80
80
78
08
10
ENDCHAR
STARTCHAR omicron
ENCODING 959
SWIDTH 800 0
DWIDTH 10 0
BBX 5 6 1 0
BITMAP
70
88
88
88
88
70
ENDCHAR
STARTCHAR pi
ENCODING 960
SWIDTH 800 0
DWIDTH 10 0
BBX 5 6 1 0
BITMAP
F8
50
50
50
50
48
ENDCHAR
STARTCHAR rho
ENCODING 961
SWIDTH 800 0
DWIDTH 10 0
BBX 5 9 1 -3
BITMAP
70
88
88
88
C8
B0
80
80
80
ENDCHAR
STARTCHAR sigma1
ENCODING 962
SWIDTH 800 0
DWIDTH 10 0
BBX 5 9 1 -3
BITMAP
70
88
80
80
80
78
08
08
10
ENDCHAR
STARTCHAR sigma
ENCODING 963
SWIDTH 800 0
DWIDTH 10 0
BBX 5 6 1 0
BITMAP
78
90
88
88
88
70
ENDCHAR
STARTCHAR tau
ENCODING 964
SWIDTH 800 0
DWIDTH 10 0
BBX 5 6 1 0
BITMAP
F8
20
20
20
20
18
ENDCHAR
STARTCHAR upsilon
ENCODING 965
SWIDTH 800 0
DWIDTH 10 0
BBX 5 6 1 0
BITMAP
90
88
88
88
90
60
ENDCHAR
STARTCHAR phi
ENCODING 966
SWIDTH 800 0
DWIDTH 10 0
BBX 5 9 1 -3
BITMAP
30
A8
A8
A8
A8
70
20
20
20
ENDCHAR
STARTCHAR chi
ENCODING 967
SWIDTH 800 0
DWIDTH 10 0
BBX 5 8 1 -2
BITMAP
88
48
50
20
20
58
80
80
ENDCHAR
STARTCHAR psi
ENCODING 968
SWIDTH 800 0
DWIDTH 10 0
BBX 5 9 1 -3
BITMAP
A8
A8
A8
A8
A8
70
20
20
20
ENDCHAR
STARTCHAR omega
ENCODING 969
SWIDTH 800 0
DWIDTH 10 0
BBX 5 6 1 0
BITMAP
88
88
88
A8
A8
50
ENDCHAR
STARTCHAR uni0400
ENCODING 1024
SWIDTH 800 0
DWIDTH 10 0
BBX 5 10 1 0
BITMAP
40
20
00
F8
80
80
F0
80
80
F8
ENDCHAR
STARTCHAR afii10023
ENCODING 1025
SWIDTH 800 0
DWIDTH 10 0
BBX 5 10 1 0
BITMAP
50
00
F8
80
80
F0
80
80
80
F8
ENDCHAR
STARTCHAR afii10051
ENCODING 1026
SWIDTH 800 0
DWIDTH 10 0
BBX 5 10 1 -2
BITMAP
F0
40
40
58
68
48
48
48
08
30
ENDCHAR
STARTCHAR afii10052
ENCODING 1027
SWIDTH 800 0
DWIDTH 10 0
BBX 4 10 2 0
BITMAP
20
40
00
F0
80
80
80
80
80
80
ENDCHAR
STARTCHAR afii10053
ENCODING 1028
SWIDTH 800 0
DWIDTH 10 0
BBX 5 8 1 0
BITMAP
30
48
80
F0
80
80
48
30
ENDCHAR
STARTCHAR afii10054
ENCODING 1029
SWIDTH 800 0
DWIDTH 10 0
BBX 5 8 1 0
BITMAP
70
88
80
70
08
08
88
70
ENDCHAR
STARTCHAR afii10055
ENCODING 1030
SWIDTH 800 0
DWIDTH 10 0
BBX 3 8 2 0
BITMAP
E0
40
40
40
40
40
40
E0
ENDCHAR
STARTCHAR afii10056
ENCODING 1031
SWIDTH 800 0
DWIDTH 10 0
BBX 3 10 2 0
BITMAP
A0
00
E0
40
40
40
40
40
40
E0
ENDCHAR
STARTCHAR afii10057
ENCODING 1032
SWIDTH 800 0
DWIDTH 10 0
BBX 4 8 2 0
BITMAP
70
20
20
20
20
20
20
C0
ENDCHAR
STARTCHAR afii10058
ENCODING 1033
SWIDTH 800 0
DWIDTH 10 0
BBX 6 8 0 0
BITMAP
70
50
50
58
54
54
54
98
ENDCHAR
STARTCHAR afii10059
ENCODING 1034
SWIDTH 800 0
DWIDTH 10 0
BBX 5 8 1 0
BITMAP
A0
A0
A0
F0
A8
A8
A8
B0
ENDCHAR
STARTCHAR afii10060
ENCODING 1035
SWIDTH 800 0
DWIDTH 10 0
BBX 5 8 1 0
BITMAP
F0
40
40
58
68
48
48
48
ENDCHAR
STARTCHAR afii10061
ENCODING 1036
SWIDTH 800 0
DWIDTH 10 0
BBX 5 10 1 0
BITMAP
10
20
88
88
90
A0
D0
90
88
88
ENDCHAR
STARTCHAR uni040D
ENCODING 1037
SWIDTH 800 0
DWIDTH 10 0
BBX 5 10 1 0
BITMAP
40
20
88
98
98
A8
A8
C8
C8
88
ENDCHAR
STARTCHAR afii10062
ENCODING 1038
SWIDTH 800 0
DWIDTH 10 0
BBX 5 10 1 0
BITMAP
50
20
88
88
88
50
50
20
20
C0
ENDCHAR
STARTCHAR afii10145
ENCODING 1039
SWIDTH 800 0
DWIDTH 10 0
BBX 5 10 1 -2
BITMAP
88
88
88
88
88
88
88
F8
20
20
ENDCHAR
STARTCHAR afii10017
ENCODING 1040
SWIDTH 800 0
DWIDTH 10 0
BBX 5 8 1 0
BITMAP
20
20
50
50
70
88
88
88
ENDCHAR
STARTCHAR afii10018
ENCODING 1041
SWIDTH 800 0
DWIDTH 10 0
BBX 5 8 1 0
BITMAP
F0
80
80
F0
88
88
88
F0
ENDCHAR
STARTCHAR afii10019
ENCODING 1042
SWIDTH 800 0
DWIDTH 10 0
BBX 5 8 1 0
BITMAP
F0
88
88
F0
88
88
88
F0
ENDCHAR
STARTCHAR afii10020
ENCODING 1043
SWIDTH 800 0
DWIDTH 10 0
BBX 4 8 2 0
BITMAP
F0
80
80
80
80
80
80
80
ENDCHAR
STARTCHAR afii10021
ENCODING 1044
SWIDTH 800 0
DWIDTH 10 0
BBX 5 9 1 -1
BITMAP
70
50
50
50
50
50
90
F8
88
ENDCHAR
STARTCHAR afii10022
ENCODING 1045
SWIDTH 800 0
DWIDTH 10 0
BBX 5 8 1 0
BITMAP
F8
80
80
F0
80
80
80
F8
ENDCHAR
STARTCHAR afii10024
ENCODING 1046
SWIDTH 800 0
DWIDTH 10 0
BBX 5 8 1 0
BITMAP
A8
A8
A8
70
70
A8
A8
A8
ENDCHAR
STARTCHAR afii10025
ENCODING 1047
SWIDTH 800 0
DWIDTH 10 0
BBX 5 8 1 0
BITMAP
F0
88
08
30
08
08
88
70
ENDCHAR
STARTCHAR afii10026
ENCODING 1048
SWIDTH 800 0
DWIDTH 10 0
BBX 5 8 1 0
BITMAP
88
98
98
A8
A8
C8
C8
88
ENDCHAR
STARTCHAR afii10027
ENCODING 1049
SWIDTH 800 0
DWIDTH 10 0
BBX 5 10 1 0
BITMAP
50
20
88
98
98
A8
A8
C8
C8
88
ENDCHAR
STARTCHAR afii10028
ENCODING 1050
SWIDTH 800 0
DWIDTH 10 0
BBX 5 8 1 0
BITMAP
88
88
90
A0
D0
90
88
88
ENDCHAR
STARTCHAR afii10029
ENCODING 1051
SWIDTH 800 0
DWIDTH 10 0
BBX 5 8 1 0
BITMAP
78
48
48
48
48
48
48
88
ENDCHAR
STARTCHAR afii10030
ENCODING 1052
SWIDTH 800 0
DWIDTH 10 0
BBX 5 8 1 0
BITMAP
88
88
D8
D8
A8
A8
88
88
ENDCHAR
STARTCHAR afii10031
ENCODING 1053
SWIDTH 800 0
DWIDTH 10 0
BBX 5 8 1 0
BITMAP
88
88
88
F8
88
88
88
88
ENDCHAR
STARTCHAR afii10032
ENCODING 1054
SWIDTH 800 0
DWIDTH 10 0
BBX 5 8 1 0
BITMAP
70
88
88
88
88
88
88
70
ENDCHAR
STARTCHAR afii10033
ENCODING 1055
SWIDTH 800 0
DWIDTH 10 0
BBX 5 8 1 0
BITMAP
F8
88
88
88
88
88
88
88
ENDCHAR
STARTCHAR afii10034
ENCODING 1056
SWIDTH 800 0
DWIDTH 10 0
BBX 5 8 1 0
BITMAP
F0
88
88
88
F0
80
80
80
ENDCHAR
STARTCHAR afii10035
ENCODING 1057
SWIDTH 800 0
DWIDTH 10 0
BBX 5 8 1 0
BITMAP
70
88
80
80
80
80
88
70
ENDCHAR
STARTCHAR afii10036
ENCODING 1058
SWIDTH 800 0
DWIDTH 10 0
BBX 5 8 1 0
BITMAP
F8
20
20
20
20
20
20
20
ENDCHAR
STARTCHAR afii10037
ENCODING 1059
SWIDTH 800 0
DWIDTH 10 0
BBX 5 8 1 0
BITMAP
88
88
88
88
50
50
20
C0
ENDCHAR
STARTCHAR afii10038
ENCODING 1060
SWIDTH 800 0
DWIDTH 10 0
BBX 5 8 1 0
BITMAP
20
70
A8
A8
A8
A8
70
20
ENDCHAR
STARTCHAR afii10039
ENCODING 1061
SWIDTH 800 0
DWIDTH 10 0
BBX 5 8 1 0
BITMAP
88
88
50
20
20
50
88
88
ENDCHAR
STARTCHAR afii10040
ENCODING 1062
SWIDTH 800 0
DWIDTH 10 0
BBX 5 9 1 -1
BITMAP
90
90
90
90
90
90
90
F8
08
ENDCHAR
STARTCHAR afii10041
ENCODING 1063
SWIDTH 800 0
DWIDTH 10 0
BBX 5 8 1 0
BITMAP
88
88
88
88
78
08
08
08
ENDCHAR
STARTCHAR afii10042
ENCODING 1064
SWIDTH 800 0
DWIDTH 10 0
BBX 5 8 1 0
BITMAP
A8
A8
A8
A8
A8
A8
A8
F8
ENDCHAR
STARTCHAR afii10043
ENCODING 1065
SWIDTH 800 0
DWIDTH 10 0
BBX 6 10 1 -2
BITMAP
A8
A8
A8
A8
A8
A8
A8
F8
04
1C
ENDCHAR
STARTCHAR afii10044
ENCODING 1066
SWIDTH 800 0
DWIDTH 10 0
BBX 6 8 0 0
BITMAP
E0
20
20
38
24
24
24
38
ENDCHAR
STARTCHAR afii10045
ENCODING 1067
SWIDTH 800 0
DWIDTH 10 0
BBX 5 8 1 0
BITMAP
88
88
88
C8
A8
A8
A8
C8
ENDCHAR
STARTCHAR afii10046
ENCODING 1068
SWIDTH 800 0
DWIDTH 10 0
BBX 5 8 1 0
BITMAP
80
80
80
F0
88
88
88
F0
ENDCHAR
STARTCHAR afii10047
ENCODING 1069
SWIDTH 800 0
DWIDTH 10 0
BBX 5 8 1 0
BITMAP
60
90
08
78
08
08
90
60
ENDCHAR
STARTCHAR afii10048
ENCODING 1070
SWIDTH 800 0
DWIDTH 10 0
BBX 5 8 1 0
BITMAP
90
A8
A8
E8
A8
A8
A8
90
ENDCHAR
STARTCHAR afii10049
ENCODING 1071
SWIDTH 800 0
DWIDTH 10 0
BBX 5 8 1 0
BITMAP
78
88
88
88
78
28
48
88
ENDCHAR
STARTCHAR afii10065
ENCODING 1072
SWIDTH 800 0
DWIDTH 10 0
BBX 5 6 1 0
BITMAP
70
08
78
88
98
68
ENDCHAR
STARTCHAR afii10066
ENCODING 1073
SWIDTH 800 0
DWIDTH 10 0
BBX 5 9 1 0
BITMAP
08
70
80
B0
C8
88
88
88
70
ENDCHAR
STARTCHAR afii10067
ENCODING 1074
SWIDTH 800 0
DWIDTH 10 0
BBX 5 6 1 0
BITMAP
F0
88
F0
88
88
F0
ENDCHAR
STARTCHAR afii10068
ENCODING 1075
SWIDTH 800 0
DWIDTH 10 0
BBX 4 6 2 0
BITMAP
F0
80
80
80
80
80
ENDCHAR
STARTCHAR afii10069
ENCODING 1076
SWIDTH 800 0
DWIDTH 10 0
BBX 5 7 1 -1
BITMAP
70
50
50
50
90
F8
88
ENDCHAR
STARTCHAR afii10070
ENCODING 1077
SWIDTH 800 0
DWIDTH 10 0
BBX 5 6 1 0
BITMAP
70
88
F8
80
88
70
ENDCHAR
STARTCHAR afii10072
ENCODING 1078
SWIDTH 800 0
DWIDTH 10 0
BBX 5 6 1 0
BITMAP
A8
A8
70
70
A8
A8
ENDCHAR
STARTCHAR afii10073
ENCODING 1079
SWIDTH 800 0
DWIDTH 10 0
BBX 5 6 1 0
BITMAP
70
88
30
08
88
70
ENDCHAR
STARTCHAR afii10074
ENCODING 1080
SWIDTH 800 0
DWIDTH 10 0
BBX 5 6 1 0
BITMAP
98
98
A8
A8
C8
C8
ENDCHAR
STARTCHAR afii10075
ENCODING 1081
SWIDTH 800 0
DWIDTH 10 0
BBX 5 9 1 0
BITMAP
50
20
00
98
98
A8
A8
C8
C8
ENDCHAR
STARTCHAR afii10076
ENCODING 1082
SWIDTH 800 0
DWIDTH 10 0
BBX 5 6 1 0
BITMAP
88
90
A0
D0
90
88
ENDCHAR
STARTCHAR afii10077
ENCODING 1083
SWIDTH 800 0
DWIDTH 10 0
BBX 5 6 1 0
BITMAP
78
48
48
48
48
88
ENDCHAR
STARTCHAR afii10078
ENCODING 1084
SWIDTH 800 0
DWIDTH 10 0
BBX 5 6 1 0
BITMAP
88
D8
D8
A8
A8
88
ENDCHAR
STARTCHAR afii10079
ENCODING 1085
SWIDTH 800 0
DWIDTH 10 0
BBX 5 6 1 0
BITMAP
88
88
88
F8
88
88
ENDCHAR
STARTCHAR afii10080
ENCODING 1086
SWIDTH 800 0
DWIDTH 10 0
BBX 5 6 1 0
BITMAP
70
88
88
88
88
70
ENDCHAR
STARTCHAR afii10081
ENCODING 1087
SWIDTH 800 0
DWIDTH 10 0
BBX 5 6 1 0
BITMAP
F8
88
88
88
88
88
ENDCHAR
STARTCHAR afii10082
ENCODING 1088
SWIDTH 800 0
DWIDTH 10 0
BBX 5 9 1 -3
BITMAP
B0
C8
88
88
C8
B0
80
80
80
ENDCHAR
STARTCHAR afii10083
ENCODING 1089
SWIDTH 800 0
DWIDTH 10 0
BBX 5 6 1 0
BITMAP
70
88
80
80
88
70
ENDCHAR
STARTCHAR afii10084
ENCODING 1090
SWIDTH 800 0
DWIDTH 10 0
BBX 5 6 1 0
BITMAP
F8
20
20
20
20
20
ENDCHAR
STARTCHAR afii10085
ENCODING 1091
SWIDTH 800 0
DWIDTH 10 0
BBX 5 8 1 -2
BITMAP
88
88
88
50
50
20
20
C0
ENDCHAR
STARTCHAR afii10086
ENCODING 1092
SWIDTH 800 0
DWIDTH 10 0
BBX 5 10 1 -2
BITMAP
20
20
70
A8
A8
A8
A8
70
20
20
ENDCHAR
STARTCHAR afii10087
ENCODING 1093
SWIDTH 800 0
DWIDTH 10 0
BBX 5 6 1 0
BITMAP
88
50
20
20
50
88
ENDCHAR
STARTCHAR afii10088
ENCODING 1094
SWIDTH 800 0
DWIDTH 10 0
BBX 5 7 1 -1
BITMAP
90
90
90
90
90
F8
08
ENDCHAR
STARTCHAR afii10089
ENCODING 1095
SWIDTH 800 0
DWIDTH 10 0
BBX 5 6 1 0
BITMAP
88
88
88
78
08
08
ENDCHAR
STARTCHAR afii10090
ENCODING 1096
SWIDTH 800 0
DWIDTH 10 0
BBX 5 6 1 0
BITMAP
A8
A8
A8
A8
A8
F8
ENDCHAR
STARTCHAR afii10091
ENCODING 1097
SWIDTH 800 0
DWIDTH 10 0
BBX 6 8 1 -2
BITMAP
A8
A8
A8
A8
A8
F8
04
1C
ENDCHAR
STARTCHAR afii10092
ENCODING 1098
SWIDTH 800 0
DWIDTH 10 0
BBX 5 6 1 0
BITMAP
C0
40
70
48
48
70
ENDCHAR
STARTCHAR afii10093
ENCODING 1099
SWIDTH 800 0
DWIDTH 10 0
BBX 5 6 1 0
BITMAP
88
88
C8
A8
A8
C8
ENDCHAR
STARTCHAR afii10094
ENCODING 1100
SWIDTH 800 0
DWIDTH 10 0
BBX 4 6 2 0
BITMAP
80
80
E0
90
90
E0
ENDCHAR
STARTCHAR afii10095
ENCODING 1101
SWIDTH 800 0
DWIDTH 10 0
BBX 5 6 1 0
BITMAP
F0
08
78
08
08
F0
ENDCHAR
STARTCHAR afii10096
ENCODING 1102
SWIDTH 800 0
DWIDTH 10 0
BBX 5 6 1 0
BITMAP
90
A8
E8
A8
A8
90
ENDCHAR
STARTCHAR afii10097
ENCODING 1103
SWIDTH 800 0
DWIDTH 10 0
BBX 5 6 1 0
BITMAP
78
88
88
78
48
88
ENDCHAR
STARTCHAR uni0450
ENCODING 1104
SWIDTH 800 0
DWIDTH 10 0
BBX 5 9 1 0
BITMAP
40
20
00
70
88
F8
80
88
70
ENDCHAR
STARTCHAR afii10071
ENCODING 1105
SWIDTH 800 0
DWIDTH 10 0
BBX 5 9 1 0
BITMAP
50
00
00
70
88
F8
80
88
70
ENDCHAR
STARTCHAR afii10099
ENCODING 1106
SWIDTH 800 0
DWIDTH 10 0
BBX 5 10 1 -2
BITMAP
40
40
F0
40
58
68
48
48
08
30
ENDCHAR
STARTCHAR afii10100
ENCODING 1107
SWIDTH 800 0
DWIDTH 10 0
BBX 4 9 2 0
BITMAP
20
40
00
F0
80
80
80
80
80
ENDCHAR
STARTCHAR afii10101
ENCODING 1108
SWIDTH 800 0
DWIDTH 10 0
BBX 5 6 1 0
BITMAP
70
88
E0
80
88
70
ENDCHAR
STARTCHAR afii10102
ENCODING 1109
SWIDTH 800 0
DWIDTH 10 0
BBX 5 6 1 0
BITMAP
70
88
60
10
88
70
ENDCHAR
STARTCHAR afii10103
ENCODING 1110
SWIDTH 800 0
DWIDTH 10 0
BBX 3 8 2 0
BITMAP
40
00
40
C0
40
40
40
E0
ENDCHAR
STARTCHAR afii10104
ENCODING 1111
SWIDTH 800 0
DWIDTH 10 0
BBX 3 8 2 0
BITMAP
A0
00
40
C0
40
40
40
E0
ENDCHAR
STARTCHAR afii10105
ENCODING 1112
SWIDTH 800 0
DWIDTH 10 0
BBX 3 10 2 -2
BITMAP
20
00
60
20
20
20
20
20
A0
40
ENDCHAR
STARTCHAR afii10106
ENCODING 1113
SWIDTH 800 0
DWIDTH 10 0
BBX 6 6 0 0
BITMAP
70
50
58
54
54
98
ENDCHAR
STARTCHAR afii10107
ENCODING 1114
SWIDTH 800 0
DWIDTH 10 0
BBX 5 6 1 0
BITMAP
A0
A0
F0
A8
A8
B0
ENDCHAR
STARTCHAR afii10108
ENCODING 1115
SWIDTH 800 0
DWIDTH 10 0
BBX 5 8 1 0
BITMAP
40
40
F0
40
58
68
48
48
ENDCHAR
STARTCHAR afii10109
ENCODING 1116
SWIDTH 800 0
DWIDTH 10 0
BBX 5 9 1 0
BITMAP
10
20
00
88
90
A0
D0
90
88
ENDCHAR
STARTCHAR uni045D
ENCODING 1117
SWIDTH 800 0
DWIDTH 10 0
BBX 5 9 1 0
BITMAP
40
20
00
98
98
A8
A8
C8
C8
ENDCHAR
STARTCHAR afii10110
ENCODING 1118
SWIDTH 800 0
DWIDTH 10 0
BBX 5 11 1 -2
BITMAP
50
20
00
88
88
88
50
50
20
20
C0
ENDCHAR
STARTCHAR afii10193
ENCODING 1119
SWIDTH 800 0
DWIDTH 10 0
BBX 5 8 1 -2
BITMAP
88
88
88
88
88
F8
20
20
ENDCHAR
STARTCHAR uni0460
ENCODING 1120
SWIDTH 800 0
DWIDTH 10 0
BBX 5 8 1 0
BITMAP
50
88
88
A8
A8
A8
A8
50
ENDCHAR
STARTCHAR uni0461
ENCODING 1121
SWIDTH 800 0
DWIDTH 10 0
BBX 5 6 1 0
BITMAP
50
88
88
A8
A8
50
ENDCHAR
STARTCHAR afii10146
ENCODING 1122
SWIDTH 800 0
DWIDTH 10 0
BBX 5 8 1 0
BITMAP
40
F0
40
70
48
48
48
F0
ENDCHAR
STARTCHAR afii10194
ENCODING 1123
SWIDTH 800 0
DWIDTH 10 0
BBX 5 8 1 0
BITMAP
40
40
F0
40
70
48
48
70
ENDCHAR
STARTCHAR uni0464
ENCODING 1124
SWIDTH 800 0
DWIDTH 10 0
BBX 5 8 1 0
BITMAP
98
A0
A0
F0
A0
A0
A0
98
ENDCHAR
STARTCHAR uni0465
ENCODING 1125
SWIDTH 800 0
DWIDTH 10 0
BBX 5 6 1 0
BITMAP
98
A0
F0
A0
A0
98
ENDCHAR
STARTCHAR uni0466
ENCODING 1126
SWIDTH 800 0
DWIDTH 10 0
BBX 5 8 1 0
BITMAP
20
20
50
50
70
A8
A8
A8
ENDCHAR
STARTCHAR uni0467
ENCODING 1127
SWIDTH 800 0
DWIDTH 10 0
BBX 5 6 1 0
BITMAP
20
50
50
F8
A8
A8
ENDCHAR
STARTCHAR uni0468
ENCODING 1128
SWIDTH 800 0
DWIDTH 10 0
BBX 5 8 1 0
BITMAP
A0
A0
D0
D0
F0
A8
A8
A8
ENDCHAR
STARTCHAR uni0469
ENCODING 1129
SWIDTH 800 0
DWIDTH 10 0
BBX 5 6 1 0
BITMAP
A0
A0
D0
F0
A8
A8
ENDCHAR
STARTCHAR uni046A
ENCODING 1130
SWIDTH 800 0
DWIDTH 10 0
BBX 5 8 1 0
BITMAP
F8
88
50
50
70
A8
A8
A8
ENDCHAR
STARTCHAR uni046B
ENCODING 1131
SWIDTH 800 0
DWIDTH 10 0
BBX 5 6 1 0
BITMAP
F8
88
50
70
A8
A8
ENDCHAR
STARTCHAR uni046C
ENCODING 1132
SWIDTH 800 0
DWIDTH 10 0
BBX 5 8 1 0
BITMAP
F8
88
D0
D0
F0
A8
A8
A8
ENDCHAR
STARTCHAR uni046D
ENCODING 1133
SWIDTH 800 0
DWIDTH 10 0
BBX 5 6 1 0
BITMAP
F8
88
D0
F0
A8
A8
ENDCHAR
STARTCHAR uni046E
ENCODING 1134
SWIDTH 800 0
DWIDTH 10 0
BBX 5 12 1 -2
BITMAP
50
20
70
88
08
30
08
08
08
70
80
70
ENDCHAR
STARTCHAR uni046F
ENCODING 1135
SWIDTH 800 0
DWIDTH 10 0
BBX 5 10 1 -2
BITMAP
50
20
70
88
30
08
08
70
80
70
ENDCHAR
STARTCHAR uni0470
ENCODING 1136
SWIDTH 800 0
DWIDTH 10 0
BBX 6 8 1 0
BITMAP
AC
A8
A8
A8
A8
A8
70
20
ENDCHAR
STARTCHAR uni0471
ENCODING 1137
SWIDTH 800 0
DWIDTH 10 0
BBX 5 8 1 -2
BITMAP
A8
A8
A8
A8
A8
70
20
20
ENDCHAR
STARTCHAR afii10147
ENCODING 1138
SWIDTH 800 0
DWIDTH 10 0
BBX 5 8 1 0
BITMAP
70
88
88
F8
88
88
88
70
ENDCHAR
STARTCHAR afii10195
ENCODING 1139
SWIDTH 800 0
DWIDTH 10 0
BBX 5 6 1 0
BITMAP
70
88
F8
88
88
70
ENDCHAR
STARTCHAR afii10148
ENCODING 1140
SWIDTH 800 0
DWIDTH 10 0
BBX 6 8 1 0
BITMAP
8C
88
88
50
50
50
20
20
ENDCHAR
STARTCHAR afii10196
ENCODING 1141
SWIDTH 800 0
DWIDTH 10 0
BBX 5 6 1 0
BITMAP
88
88
50
50
20
20
ENDCHAR
STARTCHAR uni0476
ENCODING 1142
SWIDTH 800 0
DWIDTH 10 0
BBX 6 10 1 0
BITMAP
A0
50
00
8C
88
50
50
50
20
20
ENDCHAR
STARTCHAR uni0477
ENCODING 1143
SWIDTH 800 0
DWIDTH 10 0
BBX 5 9 1 0
BITMAP
A0
50
00
88
88
50
50
20
20
ENDCHAR
STARTCHAR uni0478
ENCODING 1144
SWIDTH 800 0
DWIDTH 10 0
BBX 5 8 1 0
BITMAP
88
88
50
20
70
A8
88
70
ENDCHAR
STARTCHAR uni0479
ENCODING 1145
SWIDTH 800 0
DWIDTH 10 0
BBX 5 6 1 0
BITMAP
88
88
70
88
88
70
ENDCHAR
STARTCHAR uni047A
ENCODING 1146
SWIDTH 800 0
DWIDTH 10 0
BBX 5 8 1 0
BITMAP
70
A8
88
88
88
88
A8
70
ENDCHAR
STARTCHAR uni047B
ENCODING 1147
SWIDTH 800 0
DWIDTH 10 0
BBX 5 6 1 0
BITMAP
70
A8
88
88
A8
70
ENDCHAR
STARTCHAR uni047C
ENCODING 1148
SWIDTH 800 0
DWIDTH 10 0
BBX 5 10 1 0
BITMAP
70
00
20
88
88
88
88
88
A8
50
ENDCHAR
STARTCHAR uni047D
ENCODING 1149
SWIDTH 800 0
DWIDTH 10 0
BBX 5 8 1 0
BITMAP
70
00
A8
88
88
88
A8
50
ENDCHAR
STARTCHAR uni047E
ENCODING 1150
SWIDTH 800 0
DWIDTH 10 0
BBX 5 10 1 0
BITMAP
F8
A8
00
88
88
88
88
A8
A8
50
ENDCHAR
STARTCHAR uni047F
ENCODING 1151
SWIDTH 800 0
DWIDTH 10 0
BBX 5 9 1 0
BITMAP
F8
A8
00
A8
A8
A8
A8
70
50
ENDCHAR
STARTCHAR uni0480
ENCODING 1152
SWIDTH 800 0
DWIDTH 10 0
BBX 5 10 1 -2
BITMAP
70
88
80
80
80
80
80
70
10
10
ENDCHAR
STARTCHAR uni0481
ENCODING 1153
SWIDTH 800 0
DWIDTH 10 0
BBX 5 8 1 -2
BITMAP
70
88
80
80
80
70
10
10
ENDCHAR
STARTCHAR uni0482
ENCODING 1154
SWIDTH 800 0
DWIDTH 10 0
BBX 5 8 1 0
BITMAP
10
10
E0
38
E0
38
40
40
ENDCHAR
STARTCHAR uni048A
ENCODING 1162
SWIDTH 800 0
DWIDTH 10 0
BBX 5 12 1 -2
BITMAP
50
20
88
98
98
A8
A8
C8
C8
88
08
10
ENDCHAR
STARTCHAR uni048B
ENCODING 1163
SWIDTH 800 0
DWIDTH 10 0
BBX 5 11 1 -2
BITMAP
50
20
00
98
98
A8
A8
C8
C8
08
10
ENDCHAR
STARTCHAR uni048C
ENCODING 1164
SWIDTH 800 0
DWIDTH 10 0
BBX 5 8 1 0
BITMAP
40
40
E0
40
70
48
48
F0
ENDCHAR
STARTCHAR uni048D
ENCODING 1165
SWIDTH 800 0
DWIDTH 10 0
BBX 5 8 1 0
BITMAP
40
40
40
E0
40
70
48
70
ENDCHAR
STARTCHAR uni048E
ENCODING 1166
SWIDTH 800 0
DWIDTH 10 0
BBX 5 8 1 0
BITMAP
F0
88
88
A8
F0
88
80
80
ENDCHAR
STARTCHAR uni048F
ENCODING 1167
SWIDTH 800 0
DWIDTH 10 0
BBX 5 9 1 -3
BITMAP
B0
C8
88
88
A8
F0
88
80
80
ENDCHAR
STARTCHAR afii10050
ENCODING 1168
SWIDTH 800 0
DWIDTH 10 0
BBX 4 9 2 0
BITMAP
10
F0
80
80
80
80
80
80
80
ENDCHAR
STARTCHAR afii10098
ENCODING 1169
SWIDTH 800 0
DWIDTH 10 0
BBX 4 7 2 0
BITMAP
10
F0
80
80
80
80
80
ENDCHAR
STARTCHAR uni0492
ENCODING 1170
SWIDTH 800 0
DWIDTH 10 0
BBX 5 8 1 0
BITMAP
78
40
40
40
F0
40
40
40
ENDCHAR
STARTCHAR uni0493
ENCODING 1171
SWIDTH 800 0
DWIDTH 10 0
BBX 5 6 1 0
BITMAP
78
40
F0
40
40
40
ENDCHAR
STARTCHAR uni0494
ENCODING 1172
SWIDTH 800 0
DWIDTH 10 0
BBX 4 10 2 -2
BITMAP
F0
80
80
80
E0
90
90
90
10
20
ENDCHAR
STARTCHAR uni0495
ENCODING 1173
SWIDTH 800 0
DWIDTH 10 0
BBX 4 8 2 -2
BITMAP
F0
80
80
E0
90
90
10
20
ENDCHAR
STARTCHAR uni0496
ENCODING 1174
SWIDTH 800 0
DWIDTH 10 0
BBX 5 10 1 -2
BITMAP
A8
A8
A8
70
70
A8
A8
A8
08
08
ENDCHAR
STARTCHAR uni0497
ENCODING 1175
SWIDTH 800 0
DWIDTH 10 0
BBX 5 8 1 -2
BITMAP
A8
A8
70
70
A8
A8
08
08
ENDCHAR
STARTCHAR uni0498
ENCODING 1176
SWIDTH 800 0
DWIDTH 10 0
BBX 5 10 1 -2
BITMAP
F0
88
08
30
08
08
88
70
20
60
ENDCHAR
STARTCHAR uni0499
ENCODING 1177
SWIDTH 800 0
DWIDTH 10 0
BBX 5 8 1 -2
BITMAP
70
88
30
08
88
70
20
60
ENDCHAR
STARTCHAR uni049A
ENCODING 1178
SWIDTH 800 0
DWIDTH 10 0
BBX 5 10 1 -2
BITMAP
90
90
90
A0
E0
A0
90
98
08
08
ENDCHAR
STARTCHAR uni049B
ENCODING 1179
SWIDTH 800 0
DWIDTH 10 0
BBX 5 8 1 -2
BITMAP
90
90
A0
E0
90
98
08
08
ENDCHAR
STARTCHAR uni049C
ENCODING 1180
SWIDTH 800 0
DWIDTH 10 0
BBX 5 8 1 0
BITMAP
88
A8
B0
A0
F0
B0
A8
88
ENDCHAR
STARTCHAR uni049D
ENCODING 1181
SWIDTH 800 0
DWIDTH 10 0
BBX 5 6 1 0
BITMAP
88
A8
B0
F0
A8
88
ENDCHAR
STARTCHAR uni049E
ENCODING 1182
SWIDTH 800 0
DWIDTH 10 0
BBX 6 8 0 0
BITMAP
44
E4
48
50
68
48
44
44
ENDCHAR
STARTCHAR uni049F
ENCODING 1183
SWIDTH 800 0
DWIDTH 10 0
BBX 6 8 0 0
BITMAP
40
F0
44
48
50
68
48
44
ENDCHAR
STARTCHAR uni04A0
ENCODING 1184
SWIDTH 800 0
DWIDTH 10 0
BBX 6 8 0 0
BITMAP
E4
24
28
28
38
24
24
24
ENDCHAR
STARTCHAR uni04A1
ENCODING 1185
SWIDTH 800 0
DWIDTH 10 0
BBX 6 6 0 0
BITMAP
E4
28
28
38
24
24
ENDCHAR
STARTCHAR uni04A2
ENCODING 1186
SWIDTH 800 0
DWIDTH 10 0
BBX 5 10 1 -2
BITMAP
90
90
90
F0
90
90
90
98
08
08
ENDCHAR
STARTCHAR uni04A3
ENCODING 1187
SWIDTH 800 0
DWIDTH 10 0
BBX 5 8 1 -2
BITMAP
90
90
F0
90
90
98
08
08
ENDCHAR
STARTCHAR uni04A4
ENCODING 1188
SWIDTH 800 0
DWIDTH 10 0
BBX 6 8 1 0
BITMAP
9C
90
90
F0
90
90
90
90
ENDCHAR
STARTCHAR uni04A5
ENCODING 1189
SWIDTH 800 0
DWIDTH 10 0
BBX 6 6 1 0
BITMAP
9C
90
F0
90
90
90
ENDCHAR
STARTCHAR uni04A6
ENCODING 1190
SWIDTH 800 0
DWIDTH 10 0
BBX 5 10 1 -2
BITMAP
E0
A0
A0
A0
B0
A8
A8
A8
08
10
ENDCHAR
STARTCHAR uni04A7
ENCODING 1191
SWIDTH 800 0
DWIDTH 10 0
BBX 5 8 1 -2
BITMAP
E0
A0
A0
B0
A8
A8
08
10
ENDCHAR
STARTCHAR uni04A8
ENCODING 1192
SWIDTH 800 0
DWIDTH 10 0
BBX 5 8 1 0
BITMAP
40
90
A8
A8
A8
A8
90
68
ENDCHAR
STARTCHAR uni04A9
ENCODING 1193
SWIDTH 800 0
DWIDTH 10 0
BBX 5 6 1 0
BITMAP
40
90
A8
A8
90
68
ENDCHAR
STARTCHAR uni04AA
ENCODING 1194
SWIDTH 800 0
DWIDTH 10 0
BBX 5 10 1 -2
BITMAP
70
88
80
80
80
80
88
70
10
30
ENDCHAR
STARTCHAR uni04AB
ENCODING 1195
SWIDTH 800 0
DWIDTH 10 0
BBX 5 8 1 -2
BITMAP
70
88
80
80
88
70
10
30
ENDCHAR
STARTCHAR uni04AC
ENCODING 1196
SWIDTH 800 0
DWIDTH 10 0
BBX 5 10 1 -2
BITMAP
F8
20
20
20
20
20
20
30
10
10
ENDCHAR
STARTCHAR uni04AD
ENCODING 1197
SWIDTH 800 0
DWIDTH 10 0
BBX 5 8 1 -2
BITMAP
F8
20
20
20
20
30
10
10
ENDCHAR
STARTCHAR uni04AE
ENCODING 1198
SWIDTH 800 0
DWIDTH 10 0
BBX 5 8 1 0
BITMAP
88
88
50
50
20
20
20
20
ENDCHAR
STARTCHAR uni04AF
ENCODING 1199
SWIDTH 800 0
DWIDTH 10 0
BBX 5 8 1 -2
BITMAP
88
88
50
50
20
20
20
20
ENDCHAR
STARTCHAR uni04B0
ENCODING 1200
SWIDTH 800 0
DWIDTH 10 0
BBX 5 8 1 0
BITMAP
88
88
50
50
20
70
20
20
ENDCHAR
STARTCHAR uni04B1
ENCODING 1201
SWIDTH 800 0
DWIDTH 10 0
BBX 5 8 1 -2
BITMAP
88
88
50
50
20
70
20
20
ENDCHAR
STARTCHAR uni04B2
ENCODING 1202
SWIDTH 800 0
DWIDTH 10 0
BBX 5 10 1 -2
BITMAP
88
88
50
20
20
50
88
88
08
08
ENDCHAR
STARTCHAR uni04B3
ENCODING 1203
SWIDTH 800 0
DWIDTH 10 0
BBX 5 8 1 -2
BITMAP
88
50
20
20
50
88
08
08
ENDCHAR
STARTCHAR uni04B4
ENCODING 1204
SWIDTH 800 0
DWIDTH 10 0
BBX 6 9 1 -1
BITMAP
E8
48
48
48
48
48
48
7C
04
ENDCHAR
STARTCHAR uni04B5
ENCODING 1205
SWIDTH 800 0
DWIDTH 10 0
BBX 6 7 1 -1
BITMAP
E8
48
48
48
48
7C
04
ENDCHAR
STARTCHAR uni04B6
ENCODING 1206
SWIDTH 800 0
DWIDTH 10 0
BBX 5 10 1 -2
BITMAP
90
90
90
90
70
10
10
18
08
08
ENDCHAR
STARTCHAR uni04B7
ENCODING 1207
SWIDTH 800 0
DWIDTH 10 0
BBX 5 8 1 -2
BITMAP
90
90
90
70
10
18
08
08
ENDCHAR
STARTCHAR uni04B8
ENCODING 1208
SWIDTH 800 0
DWIDTH 10 0
BBX 5 8 1 0
BITMAP
88
88
88
A8
78
28
08
08
ENDCHAR
STARTCHAR uni04B9
ENCODING 1209
SWIDTH 800 0
DWIDTH 10 0
BBX 5 6 1 0
BITMAP
88
88
A8
78
28
08
ENDCHAR
STARTCHAR uni04BA
ENCODING 1210
SWIDTH 800 0
DWIDTH 10 0
BBX 5 8 1 0
BITMAP
80
80
80
F0
88
88
88
88
ENDCHAR
STARTCHAR uni04BB
ENCODING 1211
SWIDTH 800 0
DWIDTH 10 0
BBX 5 6 1 0
BITMAP
80
80
F0
88
88
88
ENDCHAR
STARTCHAR uni04BC
ENCODING 1212
SWIDTH 800 0
DWIDTH 10 0
BBX 5 8 1 0
BITMAP
10
28
A8
78
20
20
28
10
ENDCHAR
STARTCHAR uni04BD
ENCODING 1213
SWIDTH 800 0
DWIDTH 10 0
BBX 5 6 1 0
BITMAP
10
A8
78
20
28
10
ENDCHAR
STARTCHAR uni04BE
ENCODING 1214
SWIDTH 800 0
DWIDTH 10 0
BBX 5 10 1 -2
BITMAP
10
28
A8
78
20
20
28
10
10
10
ENDCHAR
STARTCHAR uni04BF
ENCODING 1215
SWIDTH 800 0
DWIDTH 10 0
BBX 5 8 1 -2
BITMAP
10
A8
78
20
28
10
10
10
ENDCHAR
STARTCHAR uni04C0
ENCODING 1216
SWIDTH 800 0
DWIDTH 10 0
BBX 3 8 2 0
BITMAP
E0
40
40
40
40
40
40
E0
ENDCHAR
STARTCHAR uni04C1
ENCODING 1217
SWIDTH 800 0
DWIDTH 10 0
BBX 5 10 1 0
BITMAP
50
20
00
A8
A8
A8
70
A8
A8
A8
ENDCHAR
STARTCHAR uni04C2
ENCODING 1218
SWIDTH 800 0
DWIDTH 10 0
BBX 5 9 1 0
BITMAP
50
20
00
A8
A8
70
70
A8
A8
ENDCHAR
STARTCHAR uni04C3
ENCODING 1219
SWIDTH 800 0
DWIDTH 10 0
BBX 5 10 1 -2
BITMAP
88
88
90
A0
D0
90
88
88
08
30
ENDCHAR
STARTCHAR uni04C4
ENCODING 1220
SWIDTH 800 0
DWIDTH 10 0
BBX 5 8 1 -2
BITMAP
88
90
A0
D0
90
88
08
30
ENDCHAR
STARTCHAR uni04C5
ENCODING 1221
SWIDTH 800 0
DWIDTH 10 0
BBX 5 10 1 -2
BITMAP
78
48
48
48
48
48
48
88
08
10
ENDCHAR
STARTCHAR uni04C6
ENCODING 1222
SWIDTH 800 0
DWIDTH 10 0
BBX 5 8 1 -2
BITMAP
78
48
48
48
48
88
08
10
ENDCHAR
STARTCHAR uni04C7
ENCODING 1223
SWIDTH 800 0
DWIDTH 10 0
BBX 5 9 1 -1
BITMAP
88
88
88
F8
88
88
88
88
30
ENDCHAR
STARTCHAR uni04C8
ENCODING 1224
SWIDTH 800 0
DWIDTH 10 0
BBX 5 7 1 -1
BITMAP
88
88
88
F8
88
88
30
ENDCHAR
STARTCHAR uni04C9
ENCODING 1225
SWIDTH 800 0
DWIDTH 10 0
BBX 5 10 1 -2
BITMAP
88
88
88
F8
88
88
88
88
08
10
ENDCHAR
STARTCHAR uni04CA
ENCODING 1226
SWIDTH 800 0
DWIDTH 10 0
BBX 5 8 1 -2
BITMAP
88
88
88
F8
88
88
08
10
ENDCHAR
STARTCHAR uni04CB
ENCODING 1227
SWIDTH 800 0
DWIDTH 10 0
BBX 5 10 1 -2
BITMAP
88
88
88
88
78
08
08
18
10
10
ENDCHAR
STARTCHAR uni04CC
ENCODING 1228
SWIDTH 800 0
DWIDTH 10 0
BBX 5 7 1 -1
BITMAP
88
88
88
78
08
18
10
ENDCHAR
STARTCHAR uni04CD
ENCODING 1229
SWIDTH 800 0
DWIDTH 10 0
BBX 5 10 1 -2
BITMAP
88
88
D8
D8
A8
A8
88
88
08
10
ENDCHAR
STARTCHAR uni04CE
ENCODING 1230
SWIDTH 800 0
DWIDTH 10 0
BBX 5 8 1 -2
BITMAP
88
D8
D8
A8
A8
88
08
10
ENDCHAR
STARTCHAR uni04CF
ENCODING 1231
SWIDTH 800 0
DWIDTH 10 0
BBX 2 8 2 0
BITMAP
C0
40
40
40
40
40
40
40
ENDCHAR
STARTCHAR uni04D0
ENCODING 1232
SWIDTH 800 0
DWIDTH 10 0
BBX 5 10 1 0
BITMAP
50
20
00
20
20
50
70
50
88
88
ENDCHAR
STARTCHAR uni04D1
ENCODING 1233
SWIDTH 800 0
DWIDTH 10 0
BBX 5 9 1 0
BITMAP
50
20
00
70
08
78
88
98
68
ENDCHAR
STARTCHAR uni04D2
ENCODING 1234
SWIDTH 800 0
DWIDTH 10 0
BBX 5 10 1 0
BITMAP
50
00
20
20
50
50
70
88
88
88
ENDCHAR
STARTCHAR uni04D3
ENCODING 1235
SWIDTH 800 0
DWIDTH 10 0
BBX 5 8 1 0
BITMAP
50
00
70
08
78
88
98
68
ENDCHAR
STARTCHAR uni04D4
ENCODING 1236
SWIDTH 800 0
DWIDTH 10 0
BBX 5 8 1 0
BITMAP
38
30
50
58
70
50
90
98
ENDCHAR
STARTCHAR uni04D5
ENCODING 1237
SWIDTH 800 0
DWIDTH 10 0
BBX 5 6 1 0
BITMAP
D0
28
78
A0
A8
50
ENDCHAR
STARTCHAR uni04D6
ENCODING 1238
SWIDTH 800 0
DWIDTH 10 0
BBX 5 10 1 0
BITMAP
50
20
00
F8
80
80
F0
80
80
F8
ENDCHAR
STARTCHAR uni04D7
ENCODING 1239
SWIDTH 800 0
DWIDTH 10 0
BBX 5 9 1 0
BITMAP
50
20
00
70
88
F8
80
88
70
ENDCHAR
STARTCHAR uni04D8
ENCODING 1240
SWIDTH 800 0
DWIDTH 10 0
BBX 5 8 1 0
BITMAP
70
88
08
08
F8
88
88
70
ENDCHAR
STARTCHAR afii10846
ENCODING 1241
SWIDTH 800 0
DWIDTH 10 0
BBX 5 6 1 0
BITMAP
70
88
08
F8
88
70
ENDCHAR
STARTCHAR uni04DA
ENCODING 1242
SWIDTH 800 0
DWIDTH 10 0
BBX 5 10 1 0
BITMAP
50
00
70
88
08
08
F8
88
88
70
ENDCHAR
STARTCHAR uni04DB
ENCODING 1243
SWIDTH 800 0
DWIDTH 10 0
BBX 5 8 1 0
BITMAP
50
00
70
88
08
F8
88
70
ENDCHAR
STARTCHAR uni04DC
ENCODING 1244
SWIDTH 800 0
DWIDTH 10 0
BBX 5 10 1 0
BITMAP
50
00
A8
A8
A8
70
70
A8
A8
A8
ENDCHAR
STARTCHAR uni04DD
ENCODING 1245
SWIDTH 800 0
DWIDTH 10 0
BBX 5 8 1 0
BITMAP
50
00
A8
A8
70
70
A8
A8
ENDCHAR
STARTCHAR uni04DE
ENCODING 1246
SWIDTH 800 0
DWIDTH 10 0
BBX 5 10 1 0
BITMAP
50
00
F0
88
08
30
08
08
88
70
ENDCHAR
STARTCHAR uni04DF
ENCODING 1247
SWIDTH 800 0
DWIDTH 10 0
BBX 5 8 1 0
BITMAP
50
00
70
88
30
08
88
70
ENDCHAR
STARTCHAR uni04E0
ENCODING 1248
SWIDTH 800 0
DWIDTH 10 0
BBX 5 8 1 0
BITMAP
F8
08
10
30
08
08
88
70
ENDCHAR
STARTCHAR uni04E1
ENCODING 1249
SWIDTH 800 0
DWIDTH 10 0
BBX 5 8 1 -2
BITMAP
F8
08
10
20
70
08
88
70
ENDCHAR
STARTCHAR uni04E2
ENCODING 1250
SWIDTH 800 0
DWIDTH 10 0
BBX 5 10 1 0
BITMAP
70
00
88
98
98
A8
A8
C8
C8
88
ENDCHAR
STARTCHAR uni04E3
ENCODING 1251
SWIDTH 800 0
DWIDTH 10 0
BBX 5 8 1 0
BITMAP
70
00
98
98
A8
A8
C8
C8
ENDCHAR
STARTCHAR uni04E4
ENCODING 1252
SWIDTH 800 0
DWIDTH 10 0
BBX 5 10 1 0
BITMAP
50
00
88
98
98
A8
A8
C8
C8
88
ENDCHAR
STARTCHAR uni04E5
ENCODING 1253
SWIDTH 800 0
DWIDTH 10 0
BBX 5 8 1 0
BITMAP
50
00
98
98
A8
A8
C8
C8
ENDCHAR
STARTCHAR uni04E6
ENCODING 1254
SWIDTH 800 0
DWIDTH 10 0
BBX 5 10 1 0
BITMAP
50
00
70
88
88
88
88
88
88
70
ENDCHAR
STARTCHAR uni04E7
ENCODING 1255
SWIDTH 800 0
DWIDTH 10 0
BBX 5 8 1 0
BITMAP
50
00
70
88
88
88
88
70
ENDCHAR
STARTCHAR uni04E8
ENCODING 1256
SWIDTH 800 0
DWIDTH 10 0
BBX 5 8 1 0
BITMAP
70
88
88
88
F8
88
88
70
ENDCHAR
STARTCHAR uni04E9
ENCODING 1257
SWIDTH 800 0
DWIDTH 10 0
BBX 5 6 1 0
BITMAP
70
88
88
F8
88
70
ENDCHAR
STARTCHAR uni04EA
ENCODING 1258
SWIDTH 800 0
DWIDTH 10 0
BBX 5 10 1 0
BITMAP
50
00
70
88
88
88
F8
88
88
70
ENDCHAR
STARTCHAR uni04EB
ENCODING 1259
SWIDTH 800 0
DWIDTH 10 0
BBX 5 8 1 0
BITMAP
50
00
70
88
88
F8
88
70
ENDCHAR
STARTCHAR uni04EC
ENCODING 1260
SWIDTH 800 0
DWIDTH 10 0
BBX 5 10 1 0
BITMAP
50
00
60
90
08
78
08
08
90
60
ENDCHAR
STARTCHAR uni04ED
ENCODING 1261
SWIDTH 800 0
DWIDTH 10 0
BBX 5 8 1 0
BITMAP
50
00
F0
08
78
08
08
F0
ENDCHAR
STARTCHAR uni04EE
ENCODING 1262
SWIDTH 800 0
DWIDTH 10 0
BBX 5 10 1 0
BITMAP
70
00
88
88
88
88
50
50
20
C0
ENDCHAR
STARTCHAR uni04EF
ENCODING 1263
SWIDTH 800 0
DWIDTH 10 0
BBX 5 10 1 -2
BITMAP
70
00
88
88
88
50
50
20
20
C0
ENDCHAR
STARTCHAR uni04F0
ENCODING 1264
SWIDTH 800 0
DWIDTH 10 0
BBX 5 10 1 0
BITMAP
50
00
88
88
88
88
50
50
20
C0
ENDCHAR
STARTCHAR uni04F1
ENCODING 1265
SWIDTH 800 0
DWIDTH 10 0
BBX 5 10 1 -2
BITMAP
50
00
88
88
88
50
50
20
20
C0
ENDCHAR
STARTCHAR uni04F2
ENCODING 1266
SWIDTH 800 0
DWIDTH 10 0
BBX 5 10 1 0
BITMAP
28
50
00
88
88
88
50
50
20
C0
ENDCHAR
STARTCHAR uni04F3
ENCODING 1267
SWIDTH 800 0
DWIDTH 10 0
BBX 5 11 1 -2
BITMAP
28
50
00
88
88
88
50
50
20
20
C0
ENDCHAR
STARTCHAR uni04F4
ENCODING 1268
SWIDTH 800 0
DWIDTH 10 0
BBX 5 10 1 0
BITMAP
50
00
88
88
88
88
78
08
08
08
ENDCHAR
STARTCHAR uni04F5
ENCODING 1269
SWIDTH 800 0
DWIDTH 10 0
BBX 5 8 1 0
BITMAP
50
00
88
88
88
78
08
08
ENDCHAR
STARTCHAR uni04F6
ENCODING 1270
SWIDTH 800 0
DWIDTH 10 0
BBX 4 10 2 -2
BITMAP
F0
80
80
80
80
80
80
C0
40
40
ENDCHAR
STARTCHAR uni04F7
ENCODING 1271
SWIDTH 800 0
DWIDTH 10 0
BBX 4 8 2 -2
BITMAP
F0
80
80
80
80
C0
40
40
ENDCHAR
STARTCHAR uni04F8
ENCODING 1272
SWIDTH 800 0
DWIDTH 10 0
BBX 5 10 1 0
BITMAP
50
00
88
88
88
C8
A8
A8
A8
C8
ENDCHAR
STARTCHAR uni04F9
ENCODING 1273
SWIDTH 800 0
DWIDTH 10 0
BBX 5 8 1 0
BITMAP
50
00
88
88
C8
A8
A8
C8
ENDCHAR
STARTCHAR uni04FA
ENCODING 1274
SWIDTH 800 0
DWIDTH 10 0
BBX 5 10 1 -2
BITMAP
78
40
40
40
F0
40
40
70
10
60
ENDCHAR
STARTCHAR uni04FB
ENCODING 1275
SWIDTH 800 0
DWIDTH 10 0
BBX 5 8 1 -2
BITMAP
78
40
F0
40
40
70
10
60
ENDCHAR
STARTCHAR uni04FC
ENCODING 1276
SWIDTH 800 0
DWIDTH 10 0
BBX 5 10 1 -2
BITMAP
88
88
50
20
20
50
88
88
08
30
ENDCHAR
STARTCHAR uni04FD
ENCODING 1277
SWIDTH 800 0
DWIDTH 10 0
BBX 5 8 1 -2
BITMAP
88
50
20
20
50
88
08
30
ENDCHAR
STARTCHAR uni04FE
ENCODING 1278
SWIDTH 800 0
DWIDTH 10 0
BBX 5 8 1 0
BITMAP
88
88
50
F8
70
50
88
88
ENDCHAR
STARTCHAR uni04FF
ENCODING 1279
SWIDTH 800 0
DWIDTH 10 0
BBX 5 6 1 0
BITMAP
88
50
F8
70
50
88
ENDCHAR
STARTCHAR uni0500
ENCODING 1280
SWIDTH 800 0
DWIDTH 10 0
BBX 5 8 1 0
BITMAP
38
10
70
90
90
90
90
78
ENDCHAR
STARTCHAR uni0501
ENCODING 1281
SWIDTH 800 0
DWIDTH 10 0
BBX 5 8 1 0
BITMAP
08
68
98
88
88
88
98
68
ENDCHAR
STARTCHAR uni0502
ENCODING 1282
SWIDTH 800 0
DWIDTH 10 0
BBX 5 8 1 0
BITMAP
70
20
60
A8
A8
A8
A8
70
ENDCHAR
STARTCHAR uni0503
ENCODING 1283
SWIDTH 800 0
DWIDTH 10 0
BBX 5 8 1 0
BITMAP
20
20
60
A0
A0
A8
A8
70
ENDCHAR
STARTCHAR uni0504
ENCODING 1284
SWIDTH 800 0
DWIDTH 10 0
BBX 5 8 1 0
BITMAP
C0
20
20
C8
28
28
28
10
ENDCHAR
STARTCHAR uni0505
ENCODING 1285
SWIDTH 800 0
DWIDTH 10 0
BBX 5 6 1 0
BITMAP
C0
20
28
C8
28
10
ENDCHAR
STARTCHAR uni0506
ENCODING 1286
SWIDTH 800 0
DWIDTH 10 0
BBX 5 8 1 0
BITMAP
F0
88
08
30
08
08
88
70
ENDCHAR
STARTCHAR uni0507
ENCODING 1287
SWIDTH 800 0
DWIDTH 10 0
BBX 5 6 1 0
BITMAP
70
88
30
08
88
70
ENDCHAR
STARTCHAR uni0508
ENCODING 1288
SWIDTH 800 0
DWIDTH 10 0
BBX 6 8 0 0
BITMAP
70
50
54
54
54
54
54
88
ENDCHAR
STARTCHAR uni0509
ENCODING 1289
SWIDTH 800 0
DWIDTH 10 0
BBX 6 6 0 0
BITMAP
70
50
54
54
54
88
ENDCHAR
STARTCHAR uni050A
ENCODING 1290
SWIDTH 800 0
DWIDTH 10 0
BBX 5 8 1 0
BITMAP
A0
A0
A8
E8
A8
A8
A8
90
ENDCHAR
STARTCHAR uni050B
ENCODING 1291
SWIDTH 800 0
DWIDTH 10 0
BBX 5 6 1 0
BITMAP
A0
A0
E8
A8
A8
90
ENDCHAR
STARTCHAR uni050C
ENCODING 1292
SWIDTH 800 0
DWIDTH 10 0
BBX 5 8 1 0
BITMAP
70
88
80
88
88
88
88
70
ENDCHAR
STARTCHAR uni050D
ENCODING 1293
SWIDTH 800 0
DWIDTH 10 0
BBX 5 6 1 0
BITMAP
70
88
80
88
88
70
ENDCHAR
STARTCHAR uni050E
ENCODING 1294
SWIDTH 800 0
DWIDTH 10 0
BBX 5 8 1 0
BITMAP
F8
20
20
28
28
28
28
10
ENDCHAR
STARTCHAR uni050F
ENCODING 1295
SWIDTH 800 0
DWIDTH 10 0
BBX 5 6 1 0
BITMAP
F8
20
28
28
28
10
ENDCHAR
STARTCHAR uni0510
ENCODING 1296
SWIDTH 800 0
DWIDTH 10 0
BBX 5 8 1 0
BITMAP
78
88
80
60
80
80
88
70
ENDCHAR
STARTCHAR uni0511
ENCODING 1297
SWIDTH 800 0
DWIDTH 10 0
BBX 5 6 1 0
BITMAP
70
88
60
80
88
70
ENDCHAR
STARTCHAR uni0512
ENCODING 1298
SWIDTH 800 0
DWIDTH 10 0
BBX 5 9 1 -1
BITMAP
78
48
48
48
48
48
48
88
30
ENDCHAR
STARTCHAR uni0513
ENCODING 1299
SWIDTH 800 0
DWIDTH 10 0
BBX 5 7 1 -1
BITMAP
78
48
48
48
48
88
30
ENDCHAR
STARTCHAR uni0514
ENCODING 1300
SWIDTH 800 0
DWIDTH 10 0
BBX 6 8 0 0
BITMAP
74
54
54
48
48
54
54
94
ENDCHAR
STARTCHAR uni0515
ENCODING 1301
SWIDTH 800 0
DWIDTH 10 0
BBX 6 6 0 0
BITMAP
74
54
48
48
54
94
ENDCHAR
STARTCHAR uni0516
ENCODING 1302
SWIDTH 800 0
DWIDTH 10 0
BBX 5 8 1 0
BITMAP
C8
A8
B0
A0
E0
90
88
88
ENDCHAR
STARTCHAR uni0517
ENCODING 1303
SWIDTH 800 0
DWIDTH 10 0
BBX 5 9 1 -3
BITMAP
C8
A8
B0
B0
A8
C8
80
80
80
ENDCHAR
STARTCHAR uni0518
ENCODING 1304
SWIDTH 800 0
DWIDTH 10 0
BBX 5 8 1 0
BITMAP
78
90
90
78
30
50
50
98
ENDCHAR
STARTCHAR uni0519
ENCODING 1305
SWIDTH 800 0
DWIDTH 10 0
BBX 5 6 1 0
BITMAP
70
A8
78
60
A8
90
ENDCHAR
STARTCHAR uni051A
ENCODING 1306
SWIDTH 800 0
DWIDTH 10 0
BBX 5 10 1 -2
BITMAP
70
88
88
88
88
88
88
70
20
10
ENDCHAR
STARTCHAR uni051B
ENCODING 1307
SWIDTH 800 0
DWIDTH 10 0
BBX 6 9 1 -3
BITMAP
78
88
88
88
88
78
08
08
0C
ENDCHAR
STARTCHAR uni051C
ENCODING 1308
SWIDTH 800 0
DWIDTH 10 0
BBX 5 8 1 0
BITMAP
A8
A8
A8
A8
A8
50
50
50
ENDCHAR
STARTCHAR uni051D
ENCODING 1309
SWIDTH 800 0
DWIDTH 10 0
BBX 5 6 1 0
BITMAP
A8
A8
A8
A8
50
50
ENDCHAR
STARTCHAR uni051E
ENCODING 1310
SWIDTH 800 0
DWIDTH 10 0
BBX 5 8 1 0
BITMAP
88
A8
90
A8
E0
90
88
88
ENDCHAR
STARTCHAR uni051F
ENCODING 1311
SWIDTH 800 0
DWIDTH 10 0
BBX 5 6 1 0
BITMAP
A8
90
A8
E0
90
88
ENDCHAR
STARTCHAR uni0520
ENCODING 1312
SWIDTH 800 0
DWIDTH 10 0
BBX 6 10 0 -2
BITMAP
70
50
50
50
58
54
54
94
04
08
ENDCHAR
STARTCHAR uni0521
ENCODING 1313
SWIDTH 800 0
DWIDTH 10 0
BBX 6 8 0 -2
BITMAP
70
50
50
58
54
94
04
08
ENDCHAR
STARTCHAR uni0522
ENCODING 1314
SWIDTH 800 0
DWIDTH 10 0
BBX 5 10 1 -2
BITMAP
A0
A0
A0
F0
A8
A8
A8
A8
08
10
ENDCHAR
STARTCHAR uni0523
ENCODING 1315
SWIDTH 800 0
DWIDTH 10 0
BBX 5 8 1 -2
BITMAP
A0
A0
A0
F0
A8
A8
08
10
ENDCHAR
STARTCHAR uni0524
ENCODING 1316
SWIDTH 800 0
DWIDTH 10 0
BBX 5 10 1 -2
BITMAP
F0
90
90
90
90
90
90
98
08
08
ENDCHAR
STARTCHAR uni0525
ENCODING 1317
SWIDTH 800 0
DWIDTH 10 0
BBX 5 8 1 -2
BITMAP
F0
90
90
90
90
98
08
08
ENDCHAR
STARTCHAR uni0526
ENCODING 1318
SWIDTH 800 0
DWIDTH 10 0
BBX 5 10 1 -2
BITMAP
80
80
80
E0
90
90
90
98
08
08
ENDCHAR
STARTCHAR uni0527
ENCODING 1319
SWIDTH 800 0
DWIDTH 10 0
BBX 5 8 1 -2
BITMAP
80
80
E0
90
90
98
08
08
ENDCHAR
STARTCHAR uni0528
ENCODING 1320
SWIDTH 800 0
DWIDTH 10 0
BBX 6 10 0 -2
BITMAP
24
24
24
3C
24
24
24
24
A0
40
ENDCHAR
STARTCHAR uni0529
ENCODING 1321
SWIDTH 800 0
DWIDTH 10 0
BBX 6 8 0 -2
BITMAP
24
24
24
3C
24
24
A0
40
ENDCHAR
STARTCHAR uni052A
ENCODING 1322
SWIDTH 800 0
DWIDTH 10 0
BBX 5 9 1 -1
BITMAP
28
68
68
A8
B0
A8
A8
E8
A0
ENDCHAR
STARTCHAR uni052B
ENCODING 1323
SWIDTH 800 0
DWIDTH 10 0
BBX 5 7 1 -1
BITMAP
28
68
68
B0
A8
E8
A0
ENDCHAR
STARTCHAR uni052C
ENCODING 1324
SWIDTH 800 0
DWIDTH 10 0
BBX 5 9 1 -1
BITMAP
90
B0
B0
D0
70
50
90
F8
88
ENDCHAR
STARTCHAR uni052D
ENCODING 1325
SWIDTH 800 0
DWIDTH 10 0
BBX 5 7 1 -1
BITMAP
90
B0
70
30
50
F8
88
ENDCHAR
STARTCHAR uni052E
ENCODING 1326
SWIDTH 800 0
DWIDTH 10 0
BBX 5 10 1 -2
BITMAP
70
50
50
50
50
50
50
98
08
08
ENDCHAR
STARTCHAR uni052F
ENCODING 1327
SWIDTH 800 0
DWIDTH 10 0
BBX 5 8 1 -2
BITMAP
70
50
50
50
50
98
08
08
ENDCHAR
STARTCHAR uni16A0
ENCODING 5792
SWIDTH 800 0
DWIDTH 10 0
BBX 4 8 1 0
BITMAP
90
A0
D0
A0
C0
80
80
80
ENDCHAR
STARTCHAR uni1E9E
ENCODING 7838
SWIDTH 800 0
DWIDTH 10 0
BBX 5 11 1 -3
BITMAP
60
90
90
A0
98
88
88
B0
80
80
80
ENDCHAR
STARTCHAR uni2010
ENCODING 8208
SWIDTH 800 0
DWIDTH 10 0
BBX 3 1 2 3
BITMAP
E0
ENDCHAR
STARTCHAR uni2011
ENCODING 8209
SWIDTH 800 0
DWIDTH 10 0
BBX 3 1 2 3
BITMAP
E0
ENDCHAR
STARTCHAR figuredash
ENCODING 8210
SWIDTH 800 0
DWIDTH 10 0
BBX 5 1 1 3
BITMAP
F8
ENDCHAR
STARTCHAR endash
ENCODING 8211
SWIDTH 800 0
DWIDTH 10 0
BBX 5 1 1 3
BITMAP
F8
ENDCHAR
STARTCHAR emdash
ENCODING 8212
SWIDTH 800 0
DWIDTH 10 0
BBX 7 1 0 3
BITMAP
FE
ENDCHAR
STARTCHAR afii00208
ENCODING 8213
SWIDTH 800 0
DWIDTH 10 0
BBX 7 1 0 3
BITMAP
FE
ENDCHAR
STARTCHAR uni2016
ENCODING 8214
SWIDTH 800 0
DWIDTH 10 0
BBX 3 13 2 -3
BITMAP
A0
A0
A0
A0
A0
A0
A0
A0
A0
A0
A0
A0
A0
ENDCHAR
STARTCHAR underscoredbl
ENCODING 8215
SWIDTH 800 0
DWIDTH 10 0
BBX 7 3 0 -2
BITMAP
FE
00
FE
ENDCHAR
STARTCHAR quoteleft
ENCODING 8216
SWIDTH 800 0
DWIDTH 10 0
BBX 2 4 3 5
BITMAP
40
80
80
C0
ENDCHAR
STARTCHAR quoteright
ENCODING 8217
SWIDTH 800 0
DWIDTH 10 0
BBX 2 4 2 5
BITMAP
C0
40
40
80
ENDCHAR
STARTCHAR quotesinglbase
ENCODING 8218
SWIDTH 800 0
DWIDTH 10 0
BBX 2 4 2 -2
BITMAP
C0
40
40
80
ENDCHAR
STARTCHAR quotereversed
ENCODING 8219
SWIDTH 800 0
DWIDTH 10 0
BBX 2 4 2 5
BITMAP
C0
80
80
40
ENDCHAR
STARTCHAR quotedblleft
ENCODING 8220
SWIDTH 800 0
DWIDTH 10 0
BBX 5 4 1 5
BITMAP
48
90
90
D8
ENDCHAR
STARTCHAR quotedblright
ENCODING 8221
SWIDTH 800 0
DWIDTH 10 0
BBX 5 4 1 5
BITMAP
D8
48
48
90
ENDCHAR
STARTCHAR quotedblbase
ENCODING 8222
SWIDTH 800 0
DWIDTH 10 0
BBX 5 4 1 -2
BITMAP
D8
48
48
90
ENDCHAR
STARTCHAR uni201F
ENCODING 8223
SWIDTH 800 0
DWIDTH 10 0
BBX 5 4 1 5
BITMAP
D8
90
90
48
ENDCHAR
STARTCHAR dagger
ENCODING 8224
SWIDTH 800 0
DWIDTH 10 0
BBX 5 9 1 -1
BITMAP
20
20
F8
20
20
20
20
20
20
ENDCHAR
STARTCHAR daggerdbl
ENCODING 8225
SWIDTH 800 0
DWIDTH 10 0
BBX 5 9 1 -1
BITMAP
20
20
F8
20
20
20
F8
20
20
ENDCHAR
STARTCHAR bullet
ENCODING 8226
SWIDTH 800 0
DWIDTH 10 0
BBX 5 5 1 1
BITMAP
70
F8
F8
F8
70
ENDCHAR
STARTCHAR uni2023
ENCODING 8227
SWIDTH 800 0
DWIDTH 10 0
BBX 3 5 1 1
BITMAP
80
C0
E0
C0
80
ENDCHAR
STARTCHAR onedotenleader
ENCODING 8228
SWIDTH 800 0
DWIDTH 10 0
BBX 1 1 3 0
BITMAP
80
ENDCHAR
STARTCHAR twodotenleader
ENCODING 8229
SWIDTH 800 0
DWIDTH 10 0
BBX 3 1 2 0
BITMAP
A0
ENDCHAR
STARTCHAR ellipsis
ENCODING 8230
SWIDTH 800 0
DWIDTH 10 0
BBX 5 1 1 0
BITMAP
A8
ENDCHAR
STARTCHAR uni2027
ENCODING 8231
SWIDTH 800 0
DWIDTH 10 0
BBX 1 1 3 3
BITMAP
80
ENDCHAR
STARTCHAR perthousand
ENCODING 8240
SWIDTH 800 0
DWIDTH 10 0
BBX 6 9 1 0
BITMAP
40
A0
48
10
20
40
A8
54
28
ENDCHAR
STARTCHAR minute
ENCODING 8242
SWIDTH 800 0
DWIDTH 10 0
BBX 2 2 2 7
BITMAP
40
80
ENDCHAR
STARTCHAR second
ENCODING 8243
SWIDTH 800 0
DWIDTH 10 0
BBX 4 2 2 7
BITMAP
50
A0
ENDCHAR
STARTCHAR uni2034
ENCODING 8244
SWIDTH 800 0
DWIDTH 10 0
BBX 6 2 0 7
BITMAP
54
A8
ENDCHAR
STARTCHAR uni2035
ENCODING 8245
SWIDTH 800 0
DWIDTH 10 0
BBX 2 2 2 7
BITMAP
80
40
ENDCHAR
STARTCHAR uni2036
ENCODING 8246
SWIDTH 800 0
DWIDTH 10 0
BBX 4 2 2 7
BITMAP
A0
50
ENDCHAR
STARTCHAR uni2037
ENCODING 8247
SWIDTH 800 0
DWIDTH 10 0
BBX 6 2 0 7
BITMAP
A8
54
ENDCHAR
STARTCHAR uni2038
ENCODING 8248
SWIDTH 800 0
DWIDTH 10 0
BBX 5 3 1 0
BITMAP
20
50
88
ENDCHAR
STARTCHAR guilsinglleft
ENCODING 8249
SWIDTH 800 0
DWIDTH 10 0
BBX 3 5 1 1
BITMAP
20
40
80
40
20
ENDCHAR
STARTCHAR guilsinglright
ENCODING 8250
SWIDTH 800 0
DWIDTH 10 0
BBX 3 5 1 1
BITMAP
80
40
20
40
80
ENDCHAR
STARTCHAR uni2070
ENCODING 8304
SWIDTH 800 0
DWIDTH 10 0
BBX 4 5 1 4
BITMAP
60
90
90
90
60
ENDCHAR
STARTCHAR uni2074
ENCODING 8308
SWIDTH 800 0
DWIDTH 10 0
BBX 4 5 1 4
BITMAP
20
60
A0
F0
20
ENDCHAR
STARTCHAR uni2075
ENCODING 8309
SWIDTH 800 0
DWIDTH 10 0
BBX 4 5 1 4
BITMAP
F0
80
E0
10
E0
ENDCHAR
STARTCHAR uni2076
ENCODING 8310
SWIDTH 800 0
DWIDTH 10 0
BBX 4 5 1 4
BITMAP
70
80
E0
90
60
ENDCHAR
STARTCHAR uni2077
ENCODING 8311
SWIDTH 800 0
DWIDTH 10 0
BBX 4 5 1 4
BITMAP
F0
90
20
40
40
ENDCHAR
STARTCHAR uni2078
ENCODING 8312
SWIDTH 800 0
DWIDTH 10 0
BBX 4 5 1 4
BITMAP
60
90
60
90
60
ENDCHAR
STARTCHAR uni2079
ENCODING 8313
SWIDTH 800 0
DWIDTH 10 0
BBX 4 5 1 4
BITMAP
60
90
70
10
60
ENDCHAR
STARTCHAR uni2081
ENCODING 8321
SWIDTH 800 0
DWIDTH 10 0
BBX 3 5 1 -2
BITMAP
40
C0
40
40
E0
ENDCHAR
STARTCHAR Euro
ENCODING 8364
SWIDTH 800 0
DWIDTH 10 0
BBX 5 7 1 0
BITMAP
30
48
E0
40
E0
48
30
ENDCHAR
STARTCHAR uni20BD
ENCODING 8381
SWIDTH 800 0
DWIDTH 10 0
BBX 5 7 1 0
BITMAP
70
48
48
F0
40
F0
40
ENDCHAR
STARTCHAR trademark
ENCODING 8482
SWIDTH 800 0
DWIDTH 10 0
BBX 7 3 0 5
BITMAP
FE
5E
52
ENDCHAR
STARTCHAR uni2164
ENCODING 8548
SWIDTH 800 0
DWIDTH 10 0
BBX 5 8 1 0
BITMAP
88
88
88
50
50
50
20
20
ENDCHAR
STARTCHAR arrowleft
ENCODING 8592
SWIDTH 800 0
DWIDTH 10 0
BBX 7 7 1 0
BITMAP
10
20
40
FE
40
20
10
ENDCHAR
STARTCHAR arrowup
ENCODING 8593
SWIDTH 800 0
DWIDTH 10 0
BBX 7 7 0 0
BITMAP
10
38
54
92
10
10
10
ENDCHAR
STARTCHAR arrowright
ENCODING 8594
SWIDTH 800 0
DWIDTH 10 0
BBX 7 7 0 0
BITMAP
10
08
04
FE
04
08
10
ENDCHAR
STARTCHAR arrowdown
ENCODING 8595
SWIDTH 800 0
DWIDTH 10 0
BBX 7 7 0 0
BITMAP
10
10
10
92
54
38
10
ENDCHAR
STARTCHAR arrowboth
ENCODING 8596
SWIDTH 800 0
DWIDTH 10 0
BBX 5 3 1 2
BITMAP
50
F8
50
ENDCHAR
STARTCHAR arrowupdn
ENCODING 8597
SWIDTH 800 0
DWIDTH 10 0
BBX 3 6 2 1
BITMAP
40
E0
40
40
E0
40
ENDCHAR
STARTCHAR uni2196
ENCODING 8598
SWIDTH 800 0
DWIDTH 10 0
BBX 5 5 1 1
BITMAP
E0
C0
A0
10
08
ENDCHAR
STARTCHAR uni2197
ENCODING 8599
SWIDTH 800 0
DWIDTH 10 0
BBX 5 5 1 1
BITMAP
38
18
28
40
80
ENDCHAR
STARTCHAR uni2198
ENCODING 8600
SWIDTH 800 0
DWIDTH 10 0
BBX 5 5 1 1
BITMAP
80
40
28
18
38
ENDCHAR
STARTCHAR uni2199
ENCODING 8601
SWIDTH 800 0
DWIDTH 10 0
BBX 5 5 1 1
BITMAP
08
10
A0
C0
E0
ENDCHAR
STARTCHAR uni219A
ENCODING 8602
SWIDTH 800 0
DWIDTH 10 0
BBX 7 5 0 1
BITMAP
24
64
FE
68
28
ENDCHAR
STARTCHAR uni219B
ENCODING 8603
SWIDTH 800 0
DWIDTH 10 0
BBX 7 5 0 1
BITMAP
28
2C
FE
4C
48
ENDCHAR
STARTCHAR carriagereturn
ENCODING 8629
SWIDTH 800 0
DWIDTH 10 0
BBX 5 5 1 2
BITMAP
08
08
48
F8
40
ENDCHAR
STARTCHAR arrowdblleft
ENCODING 8656
SWIDTH 800 0
DWIDTH 10 0
BBX 7 7 1 0
BITMAP
10
20
7E
C0
7E
20
10
ENDCHAR
STARTCHAR arrowdblup
ENCODING 8657
SWIDTH 800 0
DWIDTH 10 0
BBX 5 7 1 0
BITMAP
20
70
D8
50
50
50
50
ENDCHAR
STARTCHAR arrowdblright
ENCODING 8658
SWIDTH 800 0
DWIDTH 10 0
BBX 6 7 1 0
BITMAP
20
10
F8
0C
F8
10
20
ENDCHAR
STARTCHAR arrowdbldown
ENCODING 8659
SWIDTH 800 0
DWIDTH 10 0
BBX 5 7 1 0
BITMAP
50
50
50
50
D8
70
20
ENDCHAR
STARTCHAR arrowdblboth
ENCODING 8660
SWIDTH 800 0
DWIDTH 10 0
BBX 7 5 0 1
BITMAP
28
7C
C6
7C
28
ENDCHAR
STARTCHAR uni21D5
ENCODING 8661
SWIDTH 800 0
DWIDTH 10 0
BBX 5 7 1 0
BITMAP
20
70
D8
50
D8
70
20
ENDCHAR
STARTCHAR uni21E0
ENCODING 8672
SWIDTH 800 0
DWIDTH 10 0
BBX 5 5 1 1
BITMAP
20
40
A8
40
20
ENDCHAR
STARTCHAR uni21E1
ENCODING 8673
SWIDTH 800 0
DWIDTH 10 0
BBX 5 7 1 0
BITMAP
20
50
A8
00
20
00
20
ENDCHAR
STARTCHAR uni21E2
ENCODING 8674
SWIDTH 800 0
DWIDTH 10 0
BBX 5 5 1 1
BITMAP
20
10
A8
10
20
ENDCHAR
STARTCHAR uni21E3
ENCODING 8675
SWIDTH 800 0
DWIDTH 10 0
BBX 5 7 1 0
BITMAP
20
00
20
00
A8
50
20
ENDCHAR
STARTCHAR universal
ENCODING 8704
SWIDTH 800 0
DWIDTH 10 0
BBX 5 7 1 0
BITMAP
88
88
70
50
50
20
20
ENDCHAR
STARTCHAR char8706
ENCODING 8706
SWIDTH 800 0
DWIDTH 10 0
BBX 6 8 1 0
BITMAP
70
08
04
04
74
8C
8C
78
ENDCHAR
STARTCHAR existential
ENCODING 8707
SWIDTH 800 0
DWIDTH 10 0
BBX 5 7 1 0
BITMAP
F8
08
08
78
08
08
F8
ENDCHAR
STARTCHAR uni2204
ENCODING 8708
SWIDTH 800 0
DWIDTH 10 0
BBX 5 9 1 -1
BITMAP
08
F8
18
28
78
28
48
F8
80
ENDCHAR
STARTCHAR emptyset
ENCODING 8709
SWIDTH 800 0
DWIDTH 10 0
BBX 5 7 1 0
BITMAP
08
70
98
A8
C8
70
80
ENDCHAR
STARTCHAR Delta
ENCODING 8710
SWIDTH 800 0
DWIDTH 10 0
BBX 5 5 1 1
BITMAP
20
50
50
88
F8
ENDCHAR
STARTCHAR gradient
ENCODING 8711
SWIDTH 800 0
DWIDTH 10 0
BBX 5 5 1 1
BITMAP
F8
88
50
50
20
ENDCHAR
STARTCHAR element
ENCODING 8712
SWIDTH 800 0
DWIDTH 10 0
BBX 5 5 1 1
BITMAP
78
80
F8
80
78
ENDCHAR
STARTCHAR notelement
ENCODING 8713
SWIDTH 800 0
DWIDTH 10 0
BBX 5 7 1 0
BITMAP
10
78
90
F8
A0
78
20
ENDCHAR
STARTCHAR uni220A
ENCODING 8714
SWIDTH 800 0
DWIDTH 10 0
BBX 4 5 1 1
BITMAP
70
80
F0
80
70
ENDCHAR
STARTCHAR suchthat
ENCODING 8715
SWIDTH 800 0
DWIDTH 10 0
BBX 5 5 1 1
BITMAP
F0
08
F8
08
F0
ENDCHAR
STARTCHAR uni220C
ENCODING 8716
SWIDTH 800 0
DWIDTH 10 0
BBX 5 7 1 0
BITMAP
20
F0
28
F8
48
F0
40
ENDCHAR
STARTCHAR uni220D
ENCODING 8717
SWIDTH 800 0
DWIDTH 10 0
BBX 4 5 2 1
BITMAP
E0
10
F0
10
E0
ENDCHAR
STARTCHAR uni220E
ENCODING 8718
SWIDTH 800 0
DWIDTH 10 0
BBX 3 4 2 0
BITMAP
E0
E0
E0
E0
ENDCHAR
STARTCHAR product
ENCODING 8719
SWIDTH 800 0
DWIDTH 10 0
BBX 5 8 1 0
BITMAP
F8
88
88
88
88
88
88
88
ENDCHAR
STARTCHAR uni2210
ENCODING 8720
SWIDTH 800 0
DWIDTH 10 0
BBX 5 8 1 0
BITMAP
88
88
88
88
88
88
88
F8
ENDCHAR
STARTCHAR char8721
ENCODING 8721
SWIDTH 800 0
DWIDTH 10 0
BBX 6 8 0 0
BITMAP
FC
44
20
10
10
20
44
FC
ENDCHAR
STARTCHAR asteriskmath
ENCODING 8727
SWIDTH 800 0
DWIDTH 10 0
BBX 5 5 1 1
BITMAP
20
A8
70
A8
20
ENDCHAR
STARTCHAR uni2218
ENCODING 8728
SWIDTH 800 0
DWIDTH 10 0
BBX 5 5 1 1
BITMAP
70
88
88
88
70
ENDCHAR
STARTCHAR uni2219
ENCODING 8729
SWIDTH 800 0
DWIDTH 10 0
BBX 3 3 2 2
BITMAP
40
E0
40
ENDCHAR
STARTCHAR infinity
ENCODING 8734
SWIDTH 800 0
DWIDTH 10 0
BBX 7 4 0 1
BITMAP
6C
92
92
6C
ENDCHAR
STARTCHAR uni2225
ENCODING 8741
SWIDTH 800 0
DWIDTH 10 0
BBX 3 10 2 -1
BITMAP
A0
A0
A0
A0
A0
A0
A0
A0
A0
A0
ENDCHAR
STARTCHAR uni2226
ENCODING 8742
SWIDTH 800 0
DWIDTH 10 0
BBX 5 10 1 -1
BITMAP
50
50
50
58
70
D0
50
50
50
50
ENDCHAR
STARTCHAR char8743
ENCODING 8743
SWIDTH 800 0
DWIDTH 10 0
BBX 5 8 1 0
BITMAP
20
20
50
50
50
88
88
88
ENDCHAR
STARTCHAR char8744
ENCODING 8744
SWIDTH 800 0
DWIDTH 10 0
BBX 6 8 0 0
BITMAP
44
44
44
28
28
28
10
10
ENDCHAR
STARTCHAR char8745
ENCODING 8745
SWIDTH 800 0
DWIDTH 10 0
BBX 5 8 1 0
BITMAP
70
88
88
88
88
88
88
88
ENDCHAR
STARTCHAR char8746
ENCODING 8746
SWIDTH 800 0
DWIDTH 10 0
BBX 5 8 1 0
BITMAP
88
88
88
88
88
88
88
70
ENDCHAR
STARTCHAR char8747
ENCODING 8747
SWIDTH 800 0
DWIDTH 10 0
BBX 5 10 1 -2
BITMAP
18
20
20
20
20
20
20
20
20
C0
ENDCHAR
STARTCHAR char8771
ENCODING 8771
SWIDTH 800 0
DWIDTH 10 0
BBX 5 4 1 2
BITMAP
68
90
00
F8
ENDCHAR
STARTCHAR char8777
ENCODING 8776
SWIDTH 800 0
DWIDTH 10 0
BBX 5 4 1 1
BITMAP
68
90
68
90
ENDCHAR
STARTCHAR char8788
ENCODING 8788
SWIDTH 800 0
DWIDTH 10 0
BBX 6 3 1 2
BITMAP
BC
00
BC
ENDCHAR
STARTCHAR char8789
ENCODING 8789
SWIDTH 800 0
DWIDTH 10 0
BBX 6 3 1 2
BITMAP
F4
00
F4
ENDCHAR
STARTCHAR notequal
ENCODING 8800
SWIDTH 800 0
DWIDTH 10 0
BBX 5 5 1 1
BITMAP
10
F8
20
F8
40
ENDCHAR
STARTCHAR equivalence
ENCODING 8801
SWIDTH 800 0
DWIDTH 10 0
BBX 5 5 1 1
BITMAP
F8
00
F8
00
F8
ENDCHAR
STARTCHAR lessequal
ENCODING 8804
SWIDTH 800 0
DWIDTH 10 0
BBX 5 7 1 0
BITMAP
18
60
80
60
18
00
F8
ENDCHAR
STARTCHAR greaterequal
ENCODING 8805
SWIDTH 800 0
DWIDTH 10 0
BBX 5 7 1 0
BITMAP
C0
30
08
30
C0
00
F8
ENDCHAR
STARTCHAR char8834
ENCODING 8834
SWIDTH 800 0
DWIDTH 10 0
BBX 5 7 1 0
BITMAP
78
80
80
80
80
80
78
ENDCHAR
STARTCHAR char8835
ENCODING 8835
SWIDTH 800 0
DWIDTH 10 0
BBX 5 7 1 0
BITMAP
F0
08
08
08
08
08
F0
ENDCHAR
STARTCHAR char8838
ENCODING 8838
SWIDTH 800 0
DWIDTH 10 0
BBX 5 8 1 0
BITMAP
78
80
80
80
80
78
00
F8
ENDCHAR
STARTCHAR char8839
ENCODING 8839
SWIDTH 800 0
DWIDTH 10 0
BBX 5 8 1 0
BITMAP
F0
08
08
08
08
F0
00
F8
ENDCHAR
STARTCHAR uni229D
ENCODING 8861
SWIDTH 800 0
DWIDTH 10 0
BBX 5 5 1 1
BITMAP
70
88
F8
88
70
ENDCHAR
STARTCHAR uni229E
ENCODING 8862
SWIDTH 800 0
DWIDTH 10 0
BBX 5 5 1 1
BITMAP
F8
A8
F8
A8
F8
ENDCHAR
STARTCHAR uni229F
ENCODING 8863
SWIDTH 800 0
DWIDTH 10 0
BBX 5 5 1 1
BITMAP
F8
88
F8
88
F8
ENDCHAR
STARTCHAR house
ENCODING 8962
SWIDTH 800 0
DWIDTH 10 0
BBX 5 6 1 1
BITMAP
20
50
88
88
88
F8
ENDCHAR
STARTCHAR uni2318
ENCODING 8984
SWIDTH 800 0
DWIDTH 10 0
BBX 7 7 0 0
BITMAP
44
AA
7C
28
7C
AA
44
ENDCHAR
STARTCHAR uni2387
ENCODING 9095
SWIDTH 800 0
DWIDTH 10 0
BBX 7 6 0 0
BITMAP
04
0E
14
10
20
EE
ENDCHAR
STARTCHAR uni2388
ENCODING 9096
SWIDTH 800 0
DWIDTH 10 0
BBX 7 7 0 0
BITMAP
92
7C
6C
D6
6C
7C
92
ENDCHAR
STARTCHAR uni23CE
ENCODING 9166
SWIDTH 800 0
DWIDTH 10 0
BBX 5 6 1 1
BITMAP
08
08
08
48
F8
40
ENDCHAR
STARTCHAR uni23F4
ENCODING 9204
SWIDTH 800 0
DWIDTH 10 0
BBX 4 7 1 1
BITMAP
10
30
70
F0
70
30
10
ENDCHAR
STARTCHAR uni23F5
ENCODING 9205
SWIDTH 800 0
DWIDTH 10 0
BBX 4 7 1 1
BITMAP
80
C0
E0
F0
E0
C0
80
ENDCHAR
STARTCHAR uni23F6
ENCODING 9206
SWIDTH 800 0
DWIDTH 10 0
BBX 5 3 1 2
BITMAP
20
70
F8
ENDCHAR
STARTCHAR uni23F7
ENCODING 9207
SWIDTH 800 0
DWIDTH 10 0
BBX 5 3 1 2
BITMAP
F8
70
20
ENDCHAR
STARTCHAR uni23F8
ENCODING 9208
SWIDTH 800 0
DWIDTH 10 0
BBX 3 6 2 1
BITMAP
A0
A0
A0
A0
A0
A0
ENDCHAR
STARTCHAR uni23F9
ENCODING 9209
SWIDTH 800 0
DWIDTH 10 0
BBX 5 5 1 1
BITMAP
F8
F8
F8
F8
F8
ENDCHAR
STARTCHAR uni23FA
ENCODING 9210
SWIDTH 800 0
DWIDTH 10 0
BBX 5 5 1 1
BITMAP
70
F8
F8
F8
70
ENDCHAR
STARTCHAR uni23FB
ENCODING 9211
SWIDTH 800 0
DWIDTH 10 0
BBX 7 8 0 0
BITMAP
10
10
54
92
92
82
44
38
ENDCHAR
STARTCHAR uni23FC
ENCODING 9212
SWIDTH 800 0
DWIDTH 10 0
BBX 7 7 0 0
BITMAP
38
44
92
92
92
44
38
ENDCHAR
STARTCHAR uni240A
ENCODING 9226
SWIDTH 800 0
DWIDTH 10 0
BBX 5 10 1 -2
BITMAP
80
80
80
F0
00
78
40
78
40
40
ENDCHAR
STARTCHAR uni2424
ENCODING 9252
SWIDTH 800 0
DWIDTH 10 0
BBX 5 10 1 -2
BITMAP
90
D0
B0
90
00
40
40
40
40
78
ENDCHAR
STARTCHAR SF100000
ENCODING 9472
SWIDTH 800 0
DWIDTH 10 0
BBX 7 1 0 3
BITMAP
FE
ENDCHAR
STARTCHAR uni2501
ENCODING 9473
SWIDTH 800 0
DWIDTH 10 0
BBX 7 2 0 3
BITMAP
FE
FE
ENDCHAR
STARTCHAR SF110000
ENCODING 9474
SWIDTH 800 0
DWIDTH 10 0
BBX 1 13 3 -3
BITMAP
80
80
80
80
80
80
80
80
80
80
80
80
80
ENDCHAR
STARTCHAR uni2503
ENCODING 9475
SWIDTH 800 0
DWIDTH 10 0
BBX 2 13 3 -3
BITMAP
C0
C0
C0
C0
C0
C0
C0
C0
C0
C0
C0
C0
C0
ENDCHAR
STARTCHAR uni2504
ENCODING 9476
SWIDTH 800 0
DWIDTH 10 0
BBX 6 1 0 3
BITMAP
B4
ENDCHAR
STARTCHAR uni2505
ENCODING 9477
SWIDTH 800 0
DWIDTH 10 0
BBX 6 2 0 3
BITMAP
B4
B4
ENDCHAR
STARTCHAR uni2506
ENCODING 9478
SWIDTH 800 0
DWIDTH 10 0
BBX 1 12 3 -3
BITMAP
80
80
80
00
80
80
80
80
00
80
80
80
ENDCHAR
STARTCHAR uni2507
ENCODING 9479
SWIDTH 800 0
DWIDTH 10 0
BBX 2 12 3 -3
BITMAP
C0
C0
C0
00
C0
C0
C0
C0
00
C0
C0
C0
ENDCHAR
STARTCHAR uni2508
ENCODING 9480
SWIDTH 800 0
DWIDTH 10 0
BBX 7 1 0 3
BITMAP
AA
ENDCHAR
STARTCHAR uni2509
ENCODING 9481
SWIDTH 800 0
DWIDTH 10 0
BBX 7 2 0 3
BITMAP
AA
AA
ENDCHAR
STARTCHAR uni250A
ENCODING 9482
SWIDTH 800 0
DWIDTH 10 0
BBX 1 12 3 -3
BITMAP
80
80
00
80
80
00
80
80
80
00
80
80
ENDCHAR
STARTCHAR uni250B
ENCODING 9483
SWIDTH 800 0
DWIDTH 10 0
BBX 2 12 3 -3
BITMAP
C0
C0
00
C0
C0
00
C0
C0
C0
00
C0
C0
ENDCHAR
STARTCHAR SF010000
ENCODING 9484
SWIDTH 800 0
DWIDTH 10 0
BBX 4 7 3 -3
BITMAP
F0
80
80
80
80
80
80
ENDCHAR
STARTCHAR uni250D
ENCODING 9485
SWIDTH 800 0
DWIDTH 10 0
BBX 4 8 3 -3
BITMAP
F0
F0
80
80
80
80
80
80
ENDCHAR
STARTCHAR uni250E
ENCODING 9486
SWIDTH 800 0
DWIDTH 10 0
BBX 4 7 3 -3
BITMAP
F0
C0
C0
C0
C0
C0
C0
ENDCHAR
STARTCHAR uni250F
ENCODING 9487
SWIDTH 800 0
DWIDTH 10 0
BBX 4 8 3 -3
BITMAP
F0
F0
C0
C0
C0
C0
C0
C0
ENDCHAR
STARTCHAR SF030000
ENCODING 9488
SWIDTH 800 0
DWIDTH 10 0
BBX 4 7 0 -3
BITMAP
F0
10
10
10
10
10
10
ENDCHAR
STARTCHAR uni2511
ENCODING 9489
SWIDTH 800 0
DWIDTH 10 0
BBX 4 8 0 -3
BITMAP
F0
F0
10
10
10
10
10
10
ENDCHAR
STARTCHAR uni2512
ENCODING 9490
SWIDTH 800 0
DWIDTH 10 0
BBX 5 7 0 -3
BITMAP
F8
18
18
18
18
18
18
ENDCHAR
STARTCHAR uni2513
ENCODING 9491
SWIDTH 800 0
DWIDTH 10 0
BBX 5 8 0 -3
BITMAP
F8
F8
18
18
18
18
18
18
ENDCHAR
STARTCHAR SF020000
ENCODING 9492
SWIDTH 800 0
DWIDTH 10 0
BBX 4 7 3 3
BITMAP
80
80
80
80
80
80
F0
ENDCHAR
STARTCHAR uni2515
ENCODING 9493
SWIDTH 800 0
DWIDTH 10 0
BBX 4 7 3 3
BITMAP
80
80
80
80
80
F0
F0
ENDCHAR
STARTCHAR uni2516
ENCODING 9494
SWIDTH 800 0
DWIDTH 10 0
BBX 4 7 3 3
BITMAP
C0
C0
C0
C0
C0
C0
F0
ENDCHAR
STARTCHAR uni2517
ENCODING 9495
SWIDTH 800 0
DWIDTH 10 0
BBX 4 7 3 3
BITMAP
C0
C0
C0
C0
C0
F0
F0
ENDCHAR
STARTCHAR SF040000
ENCODING 9496
SWIDTH 800 0
DWIDTH 10 0
BBX 4 7 0 3
BITMAP
10
10
10
10
10
10
F0
ENDCHAR
STARTCHAR uni2519
ENCODING 9497
SWIDTH 800 0
DWIDTH 10 0
BBX 4 7 0 3
BITMAP
10
10
10
10
10
F0
F0
ENDCHAR
STARTCHAR uni251A
ENCODING 9498
SWIDTH 800 0
DWIDTH 10 0
BBX 5 7 0 3
BITMAP
18
18
18
18
18
18
F8
ENDCHAR
STARTCHAR uni251B
ENCODING 9499
SWIDTH 800 0
DWIDTH 10 0
BBX 5 7 0 3
BITMAP
18
18
18
18
18
F8
F8
ENDCHAR
STARTCHAR SF080000
ENCODING 9500
SWIDTH 800 0
DWIDTH 10 0
BBX 4 13 3 -3
BITMAP
80
80
80
80
80
80
F0
80
80
80
80
80
80
ENDCHAR
STARTCHAR uni251D
ENCODING 9501
SWIDTH 800 0
DWIDTH 10 0
BBX 4 13 3 -3
BITMAP
80
80
80
80
80
F0
F0
80
80
80
80
80
80
ENDCHAR
STARTCHAR uni251E
ENCODING 9502
SWIDTH 800 0
DWIDTH 10 0
BBX 4 13 3 -3
BITMAP
C0
C0
C0
C0
C0
C0
F0
80
80
80
80
80
80
ENDCHAR
STARTCHAR uni251F
ENCODING 9503
SWIDTH 800 0
DWIDTH 10 0
BBX 4 13 3 -3
BITMAP
80
80
80
80
80
80
F0
C0
C0
C0
C0
C0
C0
ENDCHAR
STARTCHAR uni2520
ENCODING 9504
SWIDTH 800 0
DWIDTH 10 0
BBX 4 13 3 -3
BITMAP
C0
C0
C0
C0
C0
C0
F0
C0
C0
C0
C0
C0
C0
ENDCHAR
STARTCHAR uni2521
ENCODING 9505
SWIDTH 800 0
DWIDTH 10 0
BBX 4 13 3 -3
BITMAP
C0
C0
C0
C0
C0
F0
F0
80
80
80
80
80
80
ENDCHAR
STARTCHAR uni2522
ENCODING 9506
SWIDTH 800 0
DWIDTH 10 0
BBX 4 13 3 -3
BITMAP
80
80
80
80
80
F0
F0
C0
C0
C0
C0
C0
C0
ENDCHAR
STARTCHAR uni2523
ENCODING 9507
SWIDTH 800 0
DWIDTH 10 0
BBX 4 13 3 -3
BITMAP
C0
C0
C0
C0
C0
F0
F0
C0
C0
C0
C0
C0
C0
ENDCHAR
STARTCHAR SF090000
ENCODING 9508
SWIDTH 800 0
DWIDTH 10 0
BBX 4 13 0 -3
BITMAP
10
10
10
10
10
10
F0
10
10
10
10
10
10
ENDCHAR
STARTCHAR uni2525
ENCODING 9509
SWIDTH 800 0
DWIDTH 10 0
BBX 4 13 0 -3
BITMAP
10
10
10
10
10
F0
F0
10
10
10
10
10
10
ENDCHAR
STARTCHAR uni2526
ENCODING 9510
SWIDTH 800 0
DWIDTH 10 0
BBX 5 13 0 -3
BITMAP
18
18
18
18
18
18
F8
10
10
10
10
10
10
ENDCHAR
STARTCHAR uni2527
ENCODING 9511
SWIDTH 800 0
DWIDTH 10 0
BBX 5 13 0 -3
BITMAP
10
10
10
10
10
10
F8
18
18
18
18
18
18
ENDCHAR
STARTCHAR uni2528
ENCODING 9512
SWIDTH 800 0
DWIDTH 10 0
BBX 5 13 0 -3
BITMAP
18
18
18
18
18
18
F8
18
18
18
18
18
18
ENDCHAR
STARTCHAR uni2529
ENCODING 9513
SWIDTH 800 0
DWIDTH 10 0
BBX 5 13 0 -3
BITMAP
18
18
18
18
18
F8
F8
10
10
10
10
10
10
ENDCHAR
STARTCHAR uni252A
ENCODING 9514
SWIDTH 800 0
DWIDTH 10 0
BBX 5 13 0 -3
BITMAP
10
10
10
10
10
F8
F8
18
18
18
18
18
18
ENDCHAR
STARTCHAR uni252B
ENCODING 9515
SWIDTH 800 0
DWIDTH 10 0
BBX 5 13 0 -3
BITMAP
18
18
18
18
18
F8
F8
18
18
18
18
18
18
ENDCHAR
STARTCHAR SF060000
ENCODING 9516
SWIDTH 800 0
DWIDTH 10 0
BBX 7 7 0 -3
BITMAP
FE
10
10
10
10
10
10
ENDCHAR
STARTCHAR uni252D
ENCODING 9517
SWIDTH 800 0
DWIDTH 10 0
BBX 7 8 0 -3
BITMAP
F0
FE
10
10
10
10
10
10
ENDCHAR
STARTCHAR uni252E
ENCODING 9518
SWIDTH 800 0
DWIDTH 10 0
BBX 7 8 0 -3
BITMAP
1E
FE
10
10
10
10
10
10
ENDCHAR
STARTCHAR uni252F
ENCODING 9519
SWIDTH 800 0
DWIDTH 10 0
BBX 7 8 0 -3
BITMAP
FE
FE
10
10
10
10
10
10
ENDCHAR
STARTCHAR uni2530
ENCODING 9520
SWIDTH 800 0
DWIDTH 10 0
BBX 7 7 0 -3
BITMAP
FE
18
18
18
18
18
18
ENDCHAR
STARTCHAR uni2531
ENCODING 9521
SWIDTH 800 0
DWIDTH 10 0
BBX 7 8 0 -3
BITMAP
F8
FE
18
18
18
18
18
18
ENDCHAR
STARTCHAR uni2532
ENCODING 9522
SWIDTH 800 0
DWIDTH 10 0
BBX 7 8 0 -3
BITMAP
1E
FE
18
18
18
18
18
18
ENDCHAR
STARTCHAR uni2533
ENCODING 9523
SWIDTH 800 0
DWIDTH 10 0
BBX 7 8 0 -3
BITMAP
FE
FE
18
18
18
18
18
18
ENDCHAR
STARTCHAR SF070000
ENCODING 9524
SWIDTH 800 0
DWIDTH 10 0
BBX 7 7 0 3
BITMAP
10
10
10
10
10
10
FE
ENDCHAR
STARTCHAR uni2535
ENCODING 9525
SWIDTH 800 0
DWIDTH 10 0
BBX 7 7 0 3
BITMAP
10
10
10
10
10
F0
FE
ENDCHAR
STARTCHAR uni2536
ENCODING 9526
SWIDTH 800 0
DWIDTH 10 0
BBX 7 7 0 3
BITMAP
10
10
10
10
10
1E
FE
ENDCHAR
STARTCHAR uni2537
ENCODING 9527
SWIDTH 800 0
DWIDTH 10 0
BBX 7 7 0 3
BITMAP
10
10
10
10
10
FE
FE
ENDCHAR
STARTCHAR uni2538
ENCODING 9528
SWIDTH 800 0
DWIDTH 10 0
BBX 7 7 0 3
BITMAP
18
18
18
18
18
18
FE
ENDCHAR
STARTCHAR uni2539
ENCODING 9529
SWIDTH 800 0
DWIDTH 10 0
BBX 7 7 0 3
BITMAP
18
18
18
18
18
F8
FE
ENDCHAR
STARTCHAR uni253A
ENCODING 9530
SWIDTH 800 0
DWIDTH 10 0
BBX 7 7 0 3
BITMAP
18
18
18
18
18
1E
FE
ENDCHAR
STARTCHAR uni253B
ENCODING 9531
SWIDTH 800 0
DWIDTH 10 0
BBX 7 7 0 3
BITMAP
18
18
18
18
18
FE
FE
ENDCHAR
STARTCHAR SF050000
ENCODING 9532
SWIDTH 800 0
DWIDTH 10 0
BBX 7 13 0 -3
BITMAP
10
10
10
10
10
10
FE
10
10
10
10
10
10
ENDCHAR
STARTCHAR uni253D
ENCODING 9533
SWIDTH 800 0
DWIDTH 10 0
BBX 7 13 0 -3
BITMAP
10
10
10
10
10
F0
FE
10
10
10
10
10
10
ENDCHAR
STARTCHAR uni253E
ENCODING 9534
SWIDTH 800 0
DWIDTH 10 0
BBX 7 13 0 -3
BITMAP
10
10
10
10
10
1E
FE
10
10
10
10
10
10
ENDCHAR
STARTCHAR uni253F
ENCODING 9535
SWIDTH 800 0
DWIDTH 10 0
BBX 7 13 0 -3
BITMAP
10
10
10
10
10
FE
FE
10
10
10
10
10
10
ENDCHAR
STARTCHAR uni2540
ENCODING 9536
SWIDTH 800 0
DWIDTH 10 0
BBX 7 13 0 -3
BITMAP
18
18
18
18
18
18
FE
10
10
10
10
10
10
ENDCHAR
STARTCHAR uni2541
ENCODING 9537
SWIDTH 800 0
DWIDTH 10 0
BBX 7 13 0 -3
BITMAP
10
10
10
10
10
10
FE
18
18
18
18
18
18
ENDCHAR
STARTCHAR uni2542
ENCODING 9538
SWIDTH 800 0
DWIDTH 10 0
BBX 7 13 0 -3
BITMAP
18
18
18
18
18
18
FE
18
18
18
18
18
18
ENDCHAR
STARTCHAR uni2543
ENCODING 9539
SWIDTH 800 0
DWIDTH 10 0
BBX 7 13 0 -3
BITMAP
18
18
18
18
18
F8
FE
10
10
10
10
10
10
ENDCHAR
STARTCHAR uni2544
ENCODING 9540
SWIDTH 800 0
DWIDTH 10 0
BBX 7 13 0 -3
BITMAP
18
18
18
18
18
1E
FE
10
10
10
10
10
10
ENDCHAR
STARTCHAR uni2545
ENCODING 9541
SWIDTH 800 0
DWIDTH 10 0
BBX 7 13 0 -3
BITMAP
10
10
10
10
10
F8
FE
18
18
18
18
18
18
ENDCHAR
STARTCHAR uni2546
ENCODING 9542
SWIDTH 800 0
DWIDTH 10 0
BBX 7 13 0 -3
BITMAP
10
10
10
10
10
1E
FE
18
18
18
18
18
18
ENDCHAR
STARTCHAR uni2547
ENCODING 9543
SWIDTH 800 0
DWIDTH 10 0
BBX 7 13 0 -3
BITMAP
18
18
18
18
18
FE
FE
10
10
10
10
10
10
ENDCHAR
STARTCHAR uni2548
ENCODING 9544
SWIDTH 800 0
DWIDTH 10 0
BBX 7 13 0 -3
BITMAP
10
10
10
10
10
FE
FE
18
18
18
18
18
18
ENDCHAR
STARTCHAR uni2549
ENCODING 9545
SWIDTH 800 0
DWIDTH 10 0
BBX 7 13 0 -3
BITMAP
18
18
18
18
18
F8
FE
18
18
18
18
18
18
ENDCHAR
STARTCHAR uni254A
ENCODING 9546
SWIDTH 800 0
DWIDTH 10 0
BBX 7 13 0 -3
BITMAP
18
18
18
18
18
1E
FE
18
18
18
18
18
18
ENDCHAR
STARTCHAR uni254B
ENCODING 9547
SWIDTH 800 0
DWIDTH 10 0
BBX 7 13 0 -3
BITMAP
18
18
18
18
18
FE
FE
18
18
18
18
18
18
ENDCHAR
STARTCHAR uni254C
ENCODING 9548
SWIDTH 800 0
DWIDTH 10 0
BBX 6 1 0 3
BITMAP
DC
ENDCHAR
STARTCHAR uni254D
ENCODING 9549
SWIDTH 800 0
DWIDTH 10 0
BBX 6 2 0 3
BITMAP
DC
DC
ENDCHAR
STARTCHAR uni254E
ENCODING 9550
SWIDTH 800 0
DWIDTH 10 0
BBX 1 11 3 -3
BITMAP
80
80
80
80
80
00
80
80
80
80
80
ENDCHAR
STARTCHAR uni254F
ENCODING 9551
SWIDTH 800 0
DWIDTH 10 0
BBX 2 11 3 -3
BITMAP
C0
C0
C0
C0
C0
00
C0
C0
C0
C0
C0
ENDCHAR
STARTCHAR SF430000
ENCODING 9552
SWIDTH 800 0
DWIDTH 10 0
BBX 7 3 0 2
BITMAP
FE
00
FE
ENDCHAR
STARTCHAR SF240000
ENCODING 9553
SWIDTH 800 0
DWIDTH 10 0
BBX 3 13 2 -3
BITMAP
A0
A0
A0
A0
A0
A0
A0
A0
A0
A0
A0
A0
A0
ENDCHAR
STARTCHAR SF510000
ENCODING 9554
SWIDTH 800 0
DWIDTH 10 0
BBX 4 8 3 -3
BITMAP
F0
80
F0
80
80
80
80
80
ENDCHAR
STARTCHAR SF520000
ENCODING 9555
SWIDTH 800 0
DWIDTH 10 0
BBX 5 7 2 -3
BITMAP
F8
A0
A0
A0
A0
A0
A0
ENDCHAR
STARTCHAR SF390000
ENCODING 9556
SWIDTH 800 0
DWIDTH 10 0
BBX 5 8 2 -3
BITMAP
F8
80
B8
A0
A0
A0
A0
A0
ENDCHAR
STARTCHAR SF220000
ENCODING 9557
SWIDTH 800 0
DWIDTH 10 0
BBX 4 8 0 -3
BITMAP
F0
10
F0
10
10
10
10
10
ENDCHAR
STARTCHAR SF210000
ENCODING 9558
SWIDTH 800 0
DWIDTH 10 0
BBX 5 7 0 -3
BITMAP
F8
28
28
28
28
28
28
ENDCHAR
STARTCHAR SF250000
ENCODING 9559
SWIDTH 800 0
DWIDTH 10 0
BBX 5 8 0 -3
BITMAP
F8
08
E8
28
28
28
28
28
ENDCHAR
STARTCHAR SF500000
ENCODING 9560
SWIDTH 800 0
DWIDTH 10 0
BBX 4 8 3 2
BITMAP
80
80
80
80
80
F0
80
F0
ENDCHAR
STARTCHAR SF490000
ENCODING 9561
SWIDTH 800 0
DWIDTH 10 0
BBX 5 7 2 3
BITMAP
A0
A0
A0
A0
A0
A0
F8
ENDCHAR
STARTCHAR SF380000
ENCODING 9562
SWIDTH 800 0
DWIDTH 10 0
BBX 5 8 2 2
BITMAP
A0
A0
A0
A0
A0
B8
80
F8
ENDCHAR
STARTCHAR SF280000
ENCODING 9563
SWIDTH 800 0
DWIDTH 10 0
BBX 4 8 0 2
BITMAP
10
10
10
10
10
F0
10
F0
ENDCHAR
STARTCHAR SF270000
ENCODING 9564
SWIDTH 800 0
DWIDTH 10 0
BBX 5 7 0 3
BITMAP
28
28
28
28
28
28
F8
ENDCHAR
STARTCHAR SF260000
ENCODING 9565
SWIDTH 800 0
DWIDTH 10 0
BBX 5 8 0 2
BITMAP
28
28
28
28
28
E8
08
F8
ENDCHAR
STARTCHAR SF360000
ENCODING 9566
SWIDTH 800 0
DWIDTH 10 0
BBX 4 13 3 -3
BITMAP
80
80
80
80
80
F0
80
F0
80
80
80
80
80
ENDCHAR
STARTCHAR SF370000
ENCODING 9567
SWIDTH 800 0
DWIDTH 10 0
BBX 5 13 2 -3
BITMAP
A0
A0
A0
A0
A0
A0
B8
A0
A0
A0
A0
A0
A0
ENDCHAR
STARTCHAR SF420000
ENCODING 9568
SWIDTH 800 0
DWIDTH 10 0
BBX 5 13 2 -3
BITMAP
A0
A0
A0
A0
A0
B8
80
B8
A0
A0
A0
A0
A0
ENDCHAR
STARTCHAR SF190000
ENCODING 9569
SWIDTH 800 0
DWIDTH 10 0
BBX 4 13 0 -3
BITMAP
10
10
10
10
10
F0
10
F0
10
10
10
10
10
ENDCHAR
STARTCHAR SF200000
ENCODING 9570
SWIDTH 800 0
DWIDTH 10 0
BBX 5 13 0 -3
BITMAP
28
28
28
28
28
28
E8
28
28
28
28
28
28
ENDCHAR
STARTCHAR SF230000
ENCODING 9571
SWIDTH 800 0
DWIDTH 10 0
BBX 5 13 0 -3
BITMAP
28
28
28
28
28
E8
08
E8
28
28
28
28
28
ENDCHAR
STARTCHAR SF470000
ENCODING 9572
SWIDTH 800 0
DWIDTH 10 0
BBX 7 8 0 -3
BITMAP
FE
00
FE
10
10
10
10
10
ENDCHAR
STARTCHAR SF480000
ENCODING 9573
SWIDTH 800 0
DWIDTH 10 0
BBX 7 7 0 -3
BITMAP
FE
28
28
28
28
28
28
ENDCHAR
STARTCHAR SF410000
ENCODING 9574
SWIDTH 800 0
DWIDTH 10 0
BBX 7 8 0 -3
BITMAP
FE
00
EE
28
28
28
28
28
ENDCHAR
STARTCHAR SF450000
ENCODING 9575
SWIDTH 800 0
DWIDTH 10 0
BBX 7 8 0 2
BITMAP
10
10
10
10
10
FE
00
FE
ENDCHAR
STARTCHAR SF460000
ENCODING 9576
SWIDTH 800 0
DWIDTH 10 0
BBX 7 7 0 3
BITMAP
28
28
28
28
28
28
FE
ENDCHAR
STARTCHAR SF400000
ENCODING 9577
SWIDTH 800 0
DWIDTH 10 0
BBX 7 8 0 2
BITMAP
28
28
28
28
28
EE
00
FE
ENDCHAR
STARTCHAR SF540000
ENCODING 9578
SWIDTH 800 0
DWIDTH 10 0
BBX 7 13 0 -3
BITMAP
10
10
10
10
10
FE
10
FE
10
10
10
10
10
ENDCHAR
STARTCHAR SF530000
ENCODING 9579
SWIDTH 800 0
DWIDTH 10 0
BBX 7 13 0 -3
BITMAP
28
28
28
28
28
28
FE
28
28
28
28
28
28
ENDCHAR
STARTCHAR SF440000
ENCODING 9580
SWIDTH 800 0
DWIDTH 10 0
BBX 7 13 0 -3
BITMAP
28
28
28
28
28
EE
00
EE
28
28
28
28
28
ENDCHAR
STARTCHAR uni256D
ENCODING 9581
SWIDTH 800 0
DWIDTH 10 0
BBX 4 7 3 -3
BITMAP
70
80
80
80
80
80
80
ENDCHAR
STARTCHAR uni256E
ENCODING 9582
SWIDTH 800 0
DWIDTH 10 0
BBX 4 7 0 -3
BITMAP
E0
10
10
10
10
10
10
ENDCHAR
STARTCHAR uni256F
ENCODING 9583
SWIDTH 800 0
DWIDTH 10 0
BBX 4 7 0 3
BITMAP
10
10
10
10
10
10
E0
ENDCHAR
STARTCHAR uni2570
ENCODING 9584
SWIDTH 800 0
DWIDTH 10 0
BBX 4 7 3 3
BITMAP
80
80
80
80
80
80
70
ENDCHAR
STARTCHAR uni2571
ENCODING 9585
SWIDTH 800 0
DWIDTH 10 0
BBX 7 13 0 -3
BITMAP
02
02
04
04
08
08
10
20
20
40
40
80
80
ENDCHAR
STARTCHAR uni2572
ENCODING 9586
SWIDTH 800 0
DWIDTH 10 0
BBX 7 13 0 -3
BITMAP
80
80
40
40
20
20
10
08
08
04
04
02
02
ENDCHAR
STARTCHAR uni2573
ENCODING 9587
SWIDTH 800 0
DWIDTH 10 0
BBX 7 13 0 -3
BITMAP
82
82
44
44
28
28
10
28
28
44
44
82
82
ENDCHAR
STARTCHAR uni2574
ENCODING 9588
SWIDTH 800 0
DWIDTH 10 0
BBX 4 1 0 3
BITMAP
F0
ENDCHAR
STARTCHAR uni2575
ENCODING 9589
SWIDTH 800 0
DWIDTH 10 0
BBX 1 7 3 3
BITMAP
80
80
80
80
80
80
80
ENDCHAR
STARTCHAR uni2576
ENCODING 9590
SWIDTH 800 0
DWIDTH 10 0
BBX 4 1 3 3
BITMAP
F0
ENDCHAR
STARTCHAR uni2577
ENCODING 9591
SWIDTH 800 0
DWIDTH 10 0
BBX 1 7 3 -3
BITMAP
80
80
80
80
80
80
80
ENDCHAR
STARTCHAR uni2578
ENCODING 9592
SWIDTH 800 0
DWIDTH 10 0
BBX 4 2 0 3
BITMAP
F0
F0
ENDCHAR
STARTCHAR uni2579
ENCODING 9593
SWIDTH 800 0
DWIDTH 10 0
BBX 2 7 3 3
BITMAP
C0
C0
C0
C0
C0
C0
C0
ENDCHAR
STARTCHAR uni257A
ENCODING 9594
SWIDTH 800 0
DWIDTH 10 0
BBX 4 2 3 3
BITMAP
F0
F0
ENDCHAR
STARTCHAR uni257B
ENCODING 9595
SWIDTH 800 0
DWIDTH 10 0
BBX 2 7 3 -3
BITMAP
C0
C0
C0
C0
C0
C0
C0
ENDCHAR
STARTCHAR uni257C
ENCODING 9596
SWIDTH 800 0
DWIDTH 10 0
BBX 7 2 0 3
BITMAP
1E
FE
ENDCHAR
STARTCHAR uni257D
ENCODING 9597
SWIDTH 800 0
DWIDTH 10 0
BBX 2 13 3 -3
BITMAP
80
80
80
80
80
80
C0
C0
C0
C0
C0
C0
C0
ENDCHAR
STARTCHAR uni257E
ENCODING 9598
SWIDTH 800 0
DWIDTH 10 0
BBX 7 2 0 3
BITMAP
F0
FE
ENDCHAR
STARTCHAR uni257F
ENCODING 9599
SWIDTH 800 0
DWIDTH 10 0
BBX 2 13 3 -3
BITMAP
C0
C0
C0
C0
C0
C0
C0
80
80
80
80
80
80
ENDCHAR
STARTCHAR upblock
ENCODING 9600
SWIDTH 800 0
DWIDTH 10 0
BBX 7 7 0 3
BITMAP
FE
FE
FE
FE
FE
FE
FE
ENDCHAR
STARTCHAR uni2581
ENCODING 9601
SWIDTH 800 0
DWIDTH 10 0
BBX 7 2 0 -3
BITMAP
FE
FE
ENDCHAR
STARTCHAR uni2582
ENCODING 9602
SWIDTH 800 0
DWIDTH 10 0
BBX 7 4 0 -3
BITMAP
FE
FE
FE
FE
ENDCHAR
STARTCHAR uni2583
ENCODING 9603
SWIDTH 800 0
DWIDTH 10 0
BBX 7 5 0 -3
BITMAP
FE
FE
FE
FE
FE
ENDCHAR
STARTCHAR dnblock
ENCODING 9604
SWIDTH 800 0
DWIDTH 10 0
BBX 7 7 0 -3
BITMAP
FE
FE
FE
FE
FE
FE
FE
ENDCHAR
STARTCHAR uni2585
ENCODING 9605
SWIDTH 800 0
DWIDTH 10 0
BBX 7 9 0 -3
BITMAP
FE
FE
FE
FE
FE
FE
FE
FE
FE
ENDCHAR
STARTCHAR uni2586
ENCODING 9606
SWIDTH 800 0
DWIDTH 10 0
BBX 7 11 0 -3
BITMAP
FE
FE
FE
FE
FE
FE
FE
FE
FE
FE
FE
ENDCHAR
STARTCHAR uni2587
ENCODING 9607
SWIDTH 800 0
DWIDTH 10 0
BBX 7 12 0 -3
BITMAP
FE
FE
FE
FE
FE
FE
FE
FE
FE
FE
FE
FE
ENDCHAR
STARTCHAR block
ENCODING 9608
SWIDTH 800 0
DWIDTH 10 0
BBX 7 13 0 -3
BITMAP
FE
FE
FE
FE
FE
FE
FE
FE
FE
FE
FE
FE
FE
ENDCHAR
STARTCHAR uni2589
ENCODING 9609
SWIDTH 800 0
DWIDTH 10 0
BBX 6 13 0 -3
BITMAP
FC
FC
FC
FC
FC
FC
FC
FC
FC
FC
FC
FC
FC
ENDCHAR
STARTCHAR uni258A
ENCODING 9610
SWIDTH 800 0
DWIDTH 10 0
BBX 5 13 0 -3
BITMAP
F8
F8
F8
F8
F8
F8
F8
F8
F8
F8
F8
F8
F8
ENDCHAR
STARTCHAR uni258B
ENCODING 9611
SWIDTH 800 0
DWIDTH 10 0
BBX 4 13 0 -3
BITMAP
F0
F0
F0
F0
F0
F0
F0
F0
F0
F0
F0
F0
F0
ENDCHAR
STARTCHAR lfblock
ENCODING 9612
SWIDTH 800 0
DWIDTH 10 0
BBX 4 13 0 -3
BITMAP
F0
F0
F0
F0
F0
F0
F0
F0
F0
F0
F0
F0
F0
ENDCHAR
STARTCHAR uni258D
ENCODING 9613
SWIDTH 800 0
DWIDTH 10 0
BBX 3 13 0 -3
BITMAP
E0
E0
E0
E0
E0
E0
E0
E0
E0
E0
E0
E0
E0
ENDCHAR
STARTCHAR uni258E
ENCODING 9614
SWIDTH 800 0
DWIDTH 10 0
BBX 2 13 0 -3
BITMAP
C0
C0
C0
C0
C0
C0
C0
C0
C0
C0
C0
C0
C0
ENDCHAR
STARTCHAR uni258F
ENCODING 9615
SWIDTH 800 0
DWIDTH 10 0
BBX 1 13 0 -3
BITMAP
80
80
80
80
80
80
80
80
80
80
80
80
80
ENDCHAR
STARTCHAR rtblock
ENCODING 9616
SWIDTH 800 0
DWIDTH 10 0
BBX 4 13 3 -3
BITMAP
F0
F0
F0
F0
F0
F0
F0
F0
F0
F0
F0
F0
F0
ENDCHAR
STARTCHAR ltshade
ENCODING 9617
SWIDTH 800 0
DWIDTH 10 0
BBX 7 13 0 -3
BITMAP
88
22
88
22
88
22
88
22
88
22
88
22
88
ENDCHAR
STARTCHAR shade
ENCODING 9618
SWIDTH 800 0
DWIDTH 10 0
BBX 7 13 0 -3
BITMAP
AA
54
AA
54
AA
54
AA
54
AA
54
AA
54
AA
ENDCHAR
STARTCHAR dkshade
ENCODING 9619
SWIDTH 800 0
DWIDTH 10 0
BBX 7 13 0 -3
BITMAP
BA
EE
BA
EE
BA
EE
BA
EE
BA
EE
BA
EE
BA
ENDCHAR
STARTCHAR filledbox
ENCODING 9632
SWIDTH 800 0
DWIDTH 10 0
BBX 7 7 0 0
BITMAP
FE
FE
FE
FE
FE
FE
FE
ENDCHAR
STARTCHAR H22073
ENCODING 9633
SWIDTH 800 0
DWIDTH 10 0
BBX 7 7 0 0
BITMAP
FE
82
82
82
82
82
FE
ENDCHAR
STARTCHAR triagup
ENCODING 9650
SWIDTH 800 0
DWIDTH 10 0
BBX 7 7 0 0
BITMAP
FE
FE
7C
7C
38
38
10
ENDCHAR
STARTCHAR uni25B6
ENCODING 9654
SWIDTH 800 0
DWIDTH 10 0
BBX 5 9 1 -1
BITMAP
80
C0
E0
F0
F8
F0
E0
C0
80
ENDCHAR
STARTCHAR triagdn
ENCODING 9660
SWIDTH 800 0
DWIDTH 10 0
BBX 7 7 0 0
BITMAP
10
38
38
7C
7C
FE
FE
ENDCHAR
STARTCHAR uni25C0
ENCODING 9664
SWIDTH 800 0
DWIDTH 10 0
BBX 5 9 1 -1
BITMAP
08
18
38
78
F8
78
38
18
08
ENDCHAR
STARTCHAR circle
ENCODING 9675
SWIDTH 800 0
DWIDTH 10 0
BBX 7 7 0 0
BITMAP
38
44
82
82
82
44
38
ENDCHAR
STARTCHAR H18533
ENCODING 9679
SWIDTH 800 0
DWIDTH 10 0
BBX 5 5 1 1
BITMAP
70
F8
F8
F8
70
ENDCHAR
STARTCHAR uni2601
ENCODING 9729
SWIDTH 800 0
DWIDTH 10 0
BBX 5 3 1 2
BITMAP
30
78
F8
ENDCHAR
STARTCHAR uni2603
ENCODING 9731
SWIDTH 800 0
DWIDTH 10 0
BBX 7 10 0 0
BITMAP
90
04
50
3A
A8
38
44
44
44
38
ENDCHAR
STARTCHAR uni2610
ENCODING 9744
SWIDTH 800 0
DWIDTH 10 0
BBX 7 7 0 0
BITMAP
FE
82
82
82
82
82
FE
ENDCHAR
STARTCHAR uni2611
ENCODING 9745
SWIDTH 800 0
DWIDTH 10 0
BBX 7 7 0 0
BITMAP
FE
86
8E
DA
F2
A2
FE
ENDCHAR
STARTCHAR uni2612
ENCODING 9746
SWIDTH 800 0
DWIDTH 10 0
BBX 7 7 0 0
BITMAP
FE
82
AA
92
AA
82
FE
ENDCHAR
STARTCHAR uni2615
ENCODING 9749
SWIDTH 800 0
DWIDTH 10 0
BBX 7 10 0 0
BITMAP
10
20
20
10
70
AE
8A
FC
F8
70
ENDCHAR
STARTCHAR uni2630
ENCODING 9776
SWIDTH 800 0
DWIDTH 10 0
BBX 7 7 0 0
BITMAP
FE
00
00
FE
00
00
FE
ENDCHAR
STARTCHAR uni2631
ENCODING 9777
SWIDTH 800 0
DWIDTH 10 0
BBX 7 7 0 0
BITMAP
EE
00
00
FE
00
00
FE
ENDCHAR
STARTCHAR uni2632
ENCODING 9778
SWIDTH 800 0
DWIDTH 10 0
BBX 7 7 0 0
BITMAP
FE
00
00
EE
00
00
FE
ENDCHAR
STARTCHAR uni2633
ENCODING 9779
SWIDTH 800 0
DWIDTH 10 0
BBX 7 7 0 0
BITMAP
EE
00
00
EE
00
00
FE
ENDCHAR
STARTCHAR uni2634
ENCODING 9780
SWIDTH 800 0
DWIDTH 10 0
BBX 7 7 0 0
BITMAP
FE
00
00
FE
00
00
EE
ENDCHAR
STARTCHAR uni2635
ENCODING 9781
SWIDTH 800 0
DWIDTH 10 0
BBX 7 7 0 0
BITMAP
EE
00
00
FE
00
00
EE
ENDCHAR
STARTCHAR uni2636
ENCODING 9782
SWIDTH 800 0
DWIDTH 10 0
BBX 7 7 0 0
BITMAP
FE
00
00
EE
00
00
EE
ENDCHAR
STARTCHAR uni2637
ENCODING 9783
SWIDTH 800 0
DWIDTH 10 0
BBX 7 7 0 0
BITMAP
EE
00
00
EE
00
00
EE
ENDCHAR
STARTCHAR uni2638
ENCODING 9784
SWIDTH 800 0
DWIDTH 10 0
BBX 7 7 0 0
BITMAP
BA
54
BA
EE
BA
54
BA
ENDCHAR
STARTCHAR smileface
ENCODING 9786
SWIDTH 800 0
DWIDTH 10 0
BBX 6 5 0 1
BITMAP
48
00
00
84
78
ENDCHAR
STARTCHAR uni263F
ENCODING 9791
SWIDTH 800 0
DWIDTH 10 0
BBX 5 10 1 -2
BITMAP
88
88
70
88
88
88
70
20
70
20
ENDCHAR
STARTCHAR spade
ENCODING 9824
SWIDTH 800 0
DWIDTH 10 0
BBX 7 8 0 0
BITMAP
10
38
7C
FE
FE
54
10
38
ENDCHAR
STARTCHAR uni2661
ENCODING 9825
SWIDTH 800 0
DWIDTH 10 0
BBX 7 7 0 0
BITMAP
6C
92
82
82
44
28
10
ENDCHAR
STARTCHAR uni2662
ENCODING 9826
SWIDTH 800 0
DWIDTH 10 0
BBX 5 8 1 0
BITMAP
20
50
50
88
88
50
50
20
ENDCHAR
STARTCHAR club
ENCODING 9827
SWIDTH 800 0
DWIDTH 10 0
BBX 7 8 0 0
BITMAP
10
38
10
54
FE
54
10
38
ENDCHAR
STARTCHAR uni2664
ENCODING 9828
SWIDTH 800 0
DWIDTH 10 0
BBX 7 8 0 0
BITMAP
10
28
44
82
AA
54
10
38
ENDCHAR
STARTCHAR heart
ENCODING 9829
SWIDTH 800 0
DWIDTH 10 0
BBX 7 7 0 0
BITMAP
6C
FE
FE
FE
7C
38
10
ENDCHAR
STARTCHAR diamond
ENCODING 9830
SWIDTH 800 0
DWIDTH 10 0
BBX 5 8 1 0
BITMAP
20
70
70
F8
F8
70
70
20
ENDCHAR
STARTCHAR uni2667
ENCODING 9831
SWIDTH 800 0
DWIDTH 10 0
BBX 7 8 0 0
BITMAP
10
28
10
54
AA
54
10
38
ENDCHAR
STARTCHAR uni2669
ENCODING 9833
SWIDTH 800 0
DWIDTH 10 0
BBX 2 7 2 0
BITMAP
40
40
40
40
40
C0
C0
ENDCHAR
STARTCHAR musicalnote
ENCODING 9834
SWIDTH 800 0
DWIDTH 10 0
BBX 4 7 2 0
BITMAP
60
50
40
40
40
C0
C0
ENDCHAR
STARTCHAR musicalnotedbl
ENCODING 9835
SWIDTH 800 0
DWIDTH 10 0
BBX 6 8 0 0
BITMAP
70
4C
44
44
44
C4
CC
0C
ENDCHAR
STARTCHAR uni266C
ENCODING 9836
SWIDTH 800 0
DWIDTH 10 0
BBX 6 7 0 0
BITMAP
7C
44
7C
44
44
CC
CC
ENDCHAR
STARTCHAR uni266D
ENCODING 9837
SWIDTH 800 0
DWIDTH 10 0
BBX 3 7 2 0
BITMAP
80
80
80
E0
A0
A0
C0
ENDCHAR
STARTCHAR uni266E
ENCODING 9838
SWIDTH 800 0
DWIDTH 10 0
BBX 3 8 2 -1
BITMAP
80
80
E0
A0
A0
E0
20
20
ENDCHAR
STARTCHAR uni266F
ENCODING 9839
SWIDTH 800 0
DWIDTH 10 0
BBX 5 8 1 -1
BITMAP
10
58
70
D0
58
70
D0
40
ENDCHAR
STARTCHAR uni2713
ENCODING 10003
SWIDTH 800 0
DWIDTH 10 0
BBX 5 6 1 0
BITMAP
08
08
10
90
60
20
ENDCHAR
STARTCHAR uni2714
ENCODING 10004
SWIDTH 800 0
DWIDTH 10 0
BBX 5 7 1 0
BITMAP
08
08
18
90
F0
60
20
ENDCHAR
STARTCHAR uni2715
ENCODING 10005
SWIDTH 800 0
DWIDTH 10 0
BBX 5 5 1 1
BITMAP
88
50
20
50
88
ENDCHAR
STARTCHAR uni2716
ENCODING 10006
SWIDTH 800 0
DWIDTH 10 0
BBX 5 5 1 1
BITMAP
D8
F8
70
F8
D8
ENDCHAR
STARTCHAR uni2717
ENCODING 10007
SWIDTH 800 0
DWIDTH 10 0
BBX 5 8 1 -1
BITMAP
48
50
70
20
70
50
88
80
ENDCHAR
STARTCHAR uni2718
ENCODING 10008
SWIDTH 800 0
DWIDTH 10 0
BBX 5 9 1 -1
BITMAP
88
D8
50
70
70
70
D8
88
80
ENDCHAR
STARTCHAR uni2719
ENCODING 10009
SWIDTH 800 0
DWIDTH 10 0
BBX 7 7 0 0
BITMAP
38
28
EE
82
EE
28
38
ENDCHAR
STARTCHAR uni271A
ENCODING 10010
SWIDTH 800 0
DWIDTH 10 0
BBX 7 7 0 0
BITMAP
38
38
FE
FE
FE
38
38
ENDCHAR
STARTCHAR uni271B
ENCODING 10011
SWIDTH 800 0
DWIDTH 10 0
BBX 5 5 1 1
BITMAP
20
20
D8
20
20
ENDCHAR
STARTCHAR uni271C
ENCODING 10012
SWIDTH 800 0
DWIDTH 10 0
BBX 7 7 0 0
BITMAP
38
38
C6
C6
C6
38
38
ENDCHAR
STARTCHAR uni2726
ENCODING 10022
SWIDTH 800 0
DWIDTH 10 0
BBX 5 5 1 1
BITMAP
20
70
F8
70
20
ENDCHAR
STARTCHAR uni272D
ENCODING 10029
SWIDTH 800 0
DWIDTH 10 0
BBX 5 6 1 1
BITMAP
20
20
F8
70
70
88
ENDCHAR
STARTCHAR uni272E
ENCODING 10030
SWIDTH 800 0
DWIDTH 10 0
BBX 5 6 1 1
BITMAP
20
20
F8
70
70
88
ENDCHAR
STARTCHAR uni2739
ENCODING 10041
SWIDTH 800 0
DWIDTH 10 0
BBX 7 7 0 0
BITMAP
AA
7C
FE
7C
FE
7C
AA
ENDCHAR
STARTCHAR uni274E
ENCODING 10062
SWIDTH 800 0
DWIDTH 10 0
BBX 7 7 0 0
BITMAP
FE
BA
D6
EE
D6
BA
FE
ENDCHAR
STARTCHAR uni276E
ENCODING 10094
SWIDTH 800 0
DWIDTH 10 0
BBX 4 9 2 -1
BITMAP
30
30
60
60
C0
60
60
30
30
ENDCHAR
STARTCHAR uni276F
ENCODING 10095
SWIDTH 800 0
DWIDTH 10 0
BBX 4 9 2 -1
BITMAP
C0
C0
60
60
30
60
60
C0
C0
ENDCHAR
STARTCHAR uni279C
ENCODING 10140
SWIDTH 800 0
DWIDTH 10 0
BBX 6 6 1 0
BITMAP
30
18
FC
FC
18
30
ENDCHAR
STARTCHAR uni27E8
ENCODING 10216
SWIDTH 800 0
DWIDTH 10 0
BBX 3 9 2 -1
BITMAP
20
20
40
40
80
40
40
20
20
ENDCHAR
STARTCHAR uni27E9
ENCODING 10217
SWIDTH 800 0
DWIDTH 10 0
BBX 3 9 2 -1
BITMAP
80
80
40
40
20
40
40
80
80
ENDCHAR
STARTCHAR uni27EA
ENCODING 10218
SWIDTH 800 0
DWIDTH 10 0
BBX 5 9 1 -1
BITMAP
28
28
50
50
A0
50
50
28
28
ENDCHAR
STARTCHAR uni27EB
ENCODING 10219
SWIDTH 800 0
DWIDTH 10 0
BBX 5 9 1 -1
BITMAP
A0
A0
50
50
28
50
50
A0
A0
ENDCHAR
STARTCHAR uni2801
ENCODING 10241
SWIDTH 800 0
DWIDTH 10 0
BBX 2 2 1 7
BITMAP
C0
C0
ENDCHAR
STARTCHAR uni2802
ENCODING 10242
SWIDTH 800 0
DWIDTH 10 0
BBX 2 2 1 4
BITMAP
C0
C0
ENDCHAR
STARTCHAR uni2803
ENCODING 10243
SWIDTH 800 0
DWIDTH 10 0
BBX 2 5 1 4
BITMAP
C0
C0
00
C0
C0
ENDCHAR
STARTCHAR uni2804
ENCODING 10244
SWIDTH 800 0
DWIDTH 10 0
BBX 2 2 1 1
BITMAP
C0
C0
ENDCHAR
STARTCHAR uni2805
ENCODING 10245
SWIDTH 800 0
DWIDTH 10 0
BBX 2 8 1 1
BITMAP
C0
C0
00
00
00
00
C0
C0
ENDCHAR
STARTCHAR uni2806
ENCODING 10246
SWIDTH 800 0
DWIDTH 10 0
BBX 2 5 1 1
BITMAP
C0
C0
00
C0
C0
ENDCHAR
STARTCHAR uni2807
ENCODING 10247
SWIDTH 800 0
DWIDTH 10 0
BBX 2 8 1 1
BITMAP
C0
C0
00
C0
C0
00
C0
C0
ENDCHAR
STARTCHAR uni2808
ENCODING 10248
SWIDTH 800 0
DWIDTH 10 0
BBX 2 2 4 7
BITMAP
C0
C0
ENDCHAR
STARTCHAR uni2809
ENCODING 10249
SWIDTH 800 0
DWIDTH 10 0
BBX 5 2 1 7
BITMAP
D8
D8
ENDCHAR
STARTCHAR uni280A
ENCODING 10250
SWIDTH 800 0
DWIDTH 10 0
BBX 2 2 1 4
BITMAP
C0
C0
ENDCHAR
STARTCHAR uni280B
ENCODING 10251
SWIDTH 800 0
DWIDTH 10 0
BBX 2 5 1 4
BITMAP
C0
C0
00
C0
C0
ENDCHAR
STARTCHAR uni280C
ENCODING 10252
SWIDTH 800 0
DWIDTH 10 0
BBX 2 2 1 1
BITMAP
C0
C0
ENDCHAR
STARTCHAR uni280D
ENCODING 10253
SWIDTH 800 0
DWIDTH 10 0
BBX 2 8 1 1
BITMAP
C0
C0
00
00
00
00
C0
C0
ENDCHAR
STARTCHAR uni280E
ENCODING 10254
SWIDTH 800 0
DWIDTH 10 0
BBX 2 5 1 1
BITMAP
C0
C0
00
C0
C0
ENDCHAR
STARTCHAR uni280F
ENCODING 10255
SWIDTH 800 0
DWIDTH 10 0
BBX 2 8 1 1
BITMAP
C0
C0
00
C0
C0
00
C0
C0
ENDCHAR
STARTCHAR uni2810
ENCODING 10256
SWIDTH 800 0
DWIDTH 10 0
BBX 2 2 4 4
BITMAP
C0
C0
ENDCHAR
STARTCHAR uni2811
ENCODING 10257
SWIDTH 800 0
DWIDTH 10 0
BBX 5 5 1 4
BITMAP
C0
C0
00
18
18
ENDCHAR
STARTCHAR uni2812
ENCODING 10258
SWIDTH 800 0
DWIDTH 10 0
BBX 5 2 1 4
BITMAP
D8
D8
ENDCHAR
STARTCHAR uni2813
ENCODING 10259
SWIDTH 800 0
DWIDTH 10 0
BBX 5 5 1 4
BITMAP
C0
C0
00
D8
D8
ENDCHAR
STARTCHAR uni2814
ENCODING 10260
SWIDTH 800 0
DWIDTH 10 0
BBX 5 5 1 1
BITMAP
18
18
00
C0
C0
ENDCHAR
STARTCHAR uni2815
ENCODING 10261
SWIDTH 800 0
DWIDTH 10 0
BBX 5 8 1 1
BITMAP
C0
C0
00
18
18
00
C0
C0
ENDCHAR
STARTCHAR uni2816
ENCODING 10262
SWIDTH 800 0
DWIDTH 10 0
BBX 5 5 1 1
BITMAP
D8
D8
00
C0
C0
ENDCHAR
STARTCHAR uni2817
ENCODING 10263
SWIDTH 800 0
DWIDTH 10 0
BBX 5 8 1 1
BITMAP
C0
C0
00
D8
D8
00
C0
C0
ENDCHAR
STARTCHAR uni2818
ENCODING 10264
SWIDTH 800 0
DWIDTH 10 0
BBX 2 5 4 4
BITMAP
C0
C0
00
C0
C0
ENDCHAR
STARTCHAR uni2819
ENCODING 10265
SWIDTH 800 0
DWIDTH 10 0
BBX 5 5 1 4
BITMAP
D8
D8
00
18
18
ENDCHAR
STARTCHAR uni281A
ENCODING 10266
SWIDTH 800 0
DWIDTH 10 0
BBX 5 5 1 4
BITMAP
18
18
00
D8
D8
ENDCHAR
STARTCHAR uni281B
ENCODING 10267
SWIDTH 800 0
DWIDTH 10 0
BBX 5 5 1 4
BITMAP
D8
D8
00
D8
D8
ENDCHAR
STARTCHAR uni281C
ENCODING 10268
SWIDTH 800 0
DWIDTH 10 0
BBX 5 8 1 1
BITMAP
18
18
00
18
18
00
C0
C0
ENDCHAR
STARTCHAR uni281D
ENCODING 10269
SWIDTH 800 0
DWIDTH 10 0
BBX 5 8 1 1
BITMAP
D8
D8
00
18
18
00
C0
C0
ENDCHAR
STARTCHAR uni281E
ENCODING 10270
SWIDTH 800 0
DWIDTH 10 0
BBX 5 8 1 1
BITMAP
18
18
00
D8
D8
00
C0
C0
ENDCHAR
STARTCHAR uni281F
ENCODING 10271
SWIDTH 800 0
DWIDTH 10 0
BBX 5 8 1 1
BITMAP
D8
D8
00
D8
D8
00
C0
C0
ENDCHAR
STARTCHAR uni2820
ENCODING 10272
SWIDTH 800 0
DWIDTH 10 0
BBX 2 2 4 1
BITMAP
C0
C0
ENDCHAR
STARTCHAR uni2821
ENCODING 10273
SWIDTH 800 0
DWIDTH 10 0
BBX 5 8 1 1
BITMAP
C0
C0
00
00
00
00
18
18
ENDCHAR
STARTCHAR uni2822
ENCODING 10274
SWIDTH 800 0
DWIDTH 10 0
BBX 5 5 1 1
BITMAP
C0
C0
00
18
18
ENDCHAR
STARTCHAR uni2823
ENCODING 10275
SWIDTH 800 0
DWIDTH 10 0
BBX 5 8 1 1
BITMAP
C0
C0
00
C0
C0
00
18
18
ENDCHAR
STARTCHAR uni2824
ENCODING 10276
SWIDTH 800 0
DWIDTH 10 0
BBX 5 2 1 1
BITMAP
D8
D8
ENDCHAR
STARTCHAR uni2825
ENCODING 10277
SWIDTH 800 0
DWIDTH 10 0
BBX 5 8 1 1
BITMAP
C0
C0
00
00
00
00
D8
D8
ENDCHAR
STARTCHAR uni2826
ENCODING 10278
SWIDTH 800 0
DWIDTH 10 0
BBX 5 5 1 1
BITMAP
C0
C0
00
D8
D8
ENDCHAR
STARTCHAR uni2827
ENCODING 10279
SWIDTH 800 0
DWIDTH 10 0
BBX 5 8 1 1
BITMAP
C0
C0
00
C0
C0
00
D8
D8
ENDCHAR
STARTCHAR uni2828
ENCODING 10280
SWIDTH 800 0
DWIDTH 10 0
BBX 2 8 4 1
BITMAP
C0
C0
00
00
00
00
C0
C0
ENDCHAR
STARTCHAR uni2829
ENCODING 10281
SWIDTH 800 0
DWIDTH 10 0
BBX 5 8 1 1
BITMAP
D8
D8
00
00
00
00
18
18
ENDCHAR
STARTCHAR uni282A
ENCODING 10282
SWIDTH 800 0
DWIDTH 10 0
BBX 5 8 1 1
BITMAP
18
18
00
C0
C0
00
18
18
ENDCHAR
STARTCHAR uni282B
ENCODING 10283
SWIDTH 800 0
DWIDTH 10 0
BBX 5 8 1 1
BITMAP
D8
D8
00
C0
C0
00
18
18
ENDCHAR
STARTCHAR uni282C
ENCODING 10284
SWIDTH 800 0
DWIDTH 10 0
BBX 5 8 1 1
BITMAP
18
18
00
00
00
00
D8
D8
ENDCHAR
STARTCHAR uni282D
ENCODING 10285
SWIDTH 800 0
DWIDTH 10 0
BBX 5 8 1 1
BITMAP
D8
D8
00
00
00
00
D8
D8
ENDCHAR
STARTCHAR uni282E
ENCODING 10286
SWIDTH 800 0
DWIDTH 10 0
BBX 5 8 1 1
BITMAP
18
18
00
C0
C0
00
D8
D8
ENDCHAR
STARTCHAR uni282F
ENCODING 10287
SWIDTH 800 0
DWIDTH 10 0
BBX 5 8 1 1
BITMAP
D8
D8
00
C0
C0
00
D8
D8
ENDCHAR
STARTCHAR uni2830
ENCODING 10288
SWIDTH 800 0
DWIDTH 10 0
BBX 2 5 4 1
BITMAP
C0
C0
00
C0
C0
ENDCHAR
STARTCHAR uni2831
ENCODING 10289
SWIDTH 800 0
DWIDTH 10 0
BBX 5 8 1 1
BITMAP
C0
C0
00
18
18
00
18
18
ENDCHAR
STARTCHAR uni2832
ENCODING 10290
SWIDTH 800 0
DWIDTH 10 0
BBX 5 5 1 1
BITMAP
D8
D8
00
18
18
ENDCHAR
STARTCHAR uni2833
ENCODING 10291
SWIDTH 800 0
DWIDTH 10 0
BBX 5 8 1 1
BITMAP
C0
C0
00
D8
D8
00
18
18
ENDCHAR
STARTCHAR uni2834
ENCODING 10292
SWIDTH 800 0
DWIDTH 10 0
BBX 5 5 1 1
BITMAP
18
18
00
D8
D8
ENDCHAR
STARTCHAR uni2835
ENCODING 10293
SWIDTH 800 0
DWIDTH 10 0
BBX 5 8 1 1
BITMAP
C0
C0
00
18
18
00
D8
D8
ENDCHAR
STARTCHAR uni2836
ENCODING 10294
SWIDTH 800 0
DWIDTH 10 0
BBX 5 5 1 1
BITMAP
D8
D8
00
D8
D8
ENDCHAR
STARTCHAR uni2837
ENCODING 10295
SWIDTH 800 0
DWIDTH 10 0
BBX 5 8 1 1
BITMAP
C0
C0
00
D8
D8
00
D8
D8
ENDCHAR
STARTCHAR uni2838
ENCODING 10296
SWIDTH 800 0
DWIDTH 10 0
BBX 2 8 4 1
BITMAP
C0
C0
00
C0
C0
00
C0
C0
ENDCHAR
STARTCHAR uni2839
ENCODING 10297
SWIDTH 800 0
DWIDTH 10 0
BBX 5 8 1 1
BITMAP
D8
D8
00
18
18
00
18
18
ENDCHAR
STARTCHAR uni283A
ENCODING 10298
SWIDTH 800 0
DWIDTH 10 0
BBX 5 8 1 1
BITMAP
18
18
00
D8
D8
00
18
18
ENDCHAR
STARTCHAR uni283B
ENCODING 10299
SWIDTH 800 0
DWIDTH 10 0
BBX 5 8 1 1
BITMAP
D8
D8
00
D8
D8
00
18
18
ENDCHAR
STARTCHAR uni283C
ENCODING 10300
SWIDTH 800 0
DWIDTH 10 0
BBX 5 8 1 1
BITMAP
18
18
00
18
18
00
D8
D8
ENDCHAR
STARTCHAR uni283D
ENCODING 10301
SWIDTH 800 0
DWIDTH 10 0
BBX 5 8 1 1
BITMAP
D8
D8
00
18
18
00
D8
D8
ENDCHAR
STARTCHAR uni283E
ENCODING 10302
SWIDTH 800 0
DWIDTH 10 0
BBX 5 8 1 1
BITMAP
18
18
00
D8
D8
00
D8
D8
ENDCHAR
STARTCHAR uni283F
ENCODING 10303
SWIDTH 800 0
DWIDTH 10 0
BBX 5 8 1 1
BITMAP
D8
D8
00
D8
D8
00
D8
D8
ENDCHAR
STARTCHAR uni2840
ENCODING 10304
SWIDTH 800 0
DWIDTH 10 0
BBX 2 2 1 -2
BITMAP
C0
C0
ENDCHAR
STARTCHAR uni2841
ENCODING 10305
SWIDTH 800 0
DWIDTH 10 0
BBX 2 11 1 -2
BITMAP
C0
C0
00
00
00
00
00
00
00
C0
C0
ENDCHAR
STARTCHAR uni2842
ENCODING 10306
SWIDTH 800 0
DWIDTH 10 0
BBX 2 8 1 -2
BITMAP
C0
C0
00
00
00
00
C0
C0
ENDCHAR
STARTCHAR uni2843
ENCODING 10307
SWIDTH 800 0
DWIDTH 10 0
BBX 2 11 1 -2
BITMAP
C0
C0
00
C0
C0
00
00
00
00
C0
C0
ENDCHAR
STARTCHAR uni2844
ENCODING 10308
SWIDTH 800 0
DWIDTH 10 0
BBX 2 5 1 -2
BITMAP
C0
C0
00
C0
C0
ENDCHAR
STARTCHAR uni2845
ENCODING 10309
SWIDTH 800 0
DWIDTH 10 0
BBX 2 11 1 -2
BITMAP
C0
C0
00
00
00
00
C0
C0
00
C0
C0
ENDCHAR
STARTCHAR uni2846
ENCODING 10310
SWIDTH 800 0
DWIDTH 10 0
BBX 2 8 1 -2
BITMAP
C0
C0
00
C0
C0
00
C0
C0
ENDCHAR
STARTCHAR uni2847
ENCODING 10311
SWIDTH 800 0
DWIDTH 10 0
BBX 2 11 1 -2
BITMAP
C0
C0
00
C0
C0
00
C0
C0
00
C0
C0
ENDCHAR
STARTCHAR uni2848
ENCODING 10312
SWIDTH 800 0
DWIDTH 10 0
BBX 5 11 1 -2
BITMAP
18
18
00
00
00
00
00
00
00
C0
C0
ENDCHAR
STARTCHAR uni2849
ENCODING 10313
SWIDTH 800 0
DWIDTH 10 0
BBX 5 11 1 -2
BITMAP
D8
D8
00
00
00
00
00
00
00
C0
C0
ENDCHAR
STARTCHAR uni284A
ENCODING 10314
SWIDTH 800 0
DWIDTH 10 0
BBX 5 11 1 -2
BITMAP
18
18
00
C0
C0
00
00
00
00
C0
C0
ENDCHAR
STARTCHAR uni284B
ENCODING 10315
SWIDTH 800 0
DWIDTH 10 0
BBX 5 11 1 -2
BITMAP
D8
D8
00
C0
C0
00
00
00
00
C0
C0
ENDCHAR
STARTCHAR uni284C
ENCODING 10316
SWIDTH 800 0
DWIDTH 10 0
BBX 5 11 1 -2
BITMAP
18
18
00
00
00
00
C0
C0
00
C0
C0
ENDCHAR
STARTCHAR uni284D
ENCODING 10317
SWIDTH 800 0
DWIDTH 10 0
BBX 5 11 1 -2
BITMAP
D8
D8
00
00
00
00
C0
C0
00
C0
C0
ENDCHAR
STARTCHAR uni284E
ENCODING 10318
SWIDTH 800 0
DWIDTH 10 0
BBX 5 11 1 -2
BITMAP
18
18
00
C0
C0
00
C0
C0
00
C0
C0
ENDCHAR
STARTCHAR uni284F
ENCODING 10319
SWIDTH 800 0
DWIDTH 10 0
BBX 5 11 1 -2
BITMAP
D8
D8
00
C0
C0
00
C0
C0
00
C0
C0
ENDCHAR
STARTCHAR uni2850
ENCODING 10320
SWIDTH 800 0
DWIDTH 10 0
BBX 5 8 1 -2
BITMAP
18
18
00
00
00
00
C0
C0
ENDCHAR
STARTCHAR uni2851
ENCODING 10321
SWIDTH 800 0
DWIDTH 10 0
BBX 5 11 1 -2
BITMAP
C0
C0
00
18
18
00
00
00
00
C0
C0
ENDCHAR
STARTCHAR uni2852
ENCODING 10322
SWIDTH 800 0
DWIDTH 10 0
BBX 5 8 1 -2
BITMAP
D8
D8
00
00
00
00
C0
C0
ENDCHAR
STARTCHAR uni2853
ENCODING 10323
SWIDTH 800 0
DWIDTH 10 0
BBX 5 11 1 -2
BITMAP
C0
C0
00
D8
D8
00
00
00
00
C0
C0
ENDCHAR
STARTCHAR uni2854
ENCODING 10324
SWIDTH 800 0
DWIDTH 10 0
BBX 5 8 1 -2
BITMAP
18
18
00
C0
C0
00
C0
C0
ENDCHAR
STARTCHAR uni2855
ENCODING 10325
SWIDTH 800 0
DWIDTH 10 0
BBX 5 11 1 -2
BITMAP
C0
C0
00
18
18
00
C0
C0
00
C0
C0
ENDCHAR
STARTCHAR uni2856
ENCODING 10326
SWIDTH 800 0
DWIDTH 10 0
BBX 5 8 1 -2
BITMAP
D8
D8
00
C0
C0
00
C0
C0
ENDCHAR
STARTCHAR uni2857
ENCODING 10327
SWIDTH 800 0
DWIDTH 10 0
BBX 5 11 1 -2
BITMAP
C0
C0
00
D8
D8
00
C0
C0
00
C0
C0
ENDCHAR
STARTCHAR uni2858
ENCODING 10328
SWIDTH 800 0
DWIDTH 10 0
BBX 5 11 1 -2
BITMAP
18
18
00
18
18
00
00
00
00
C0
C0
ENDCHAR
STARTCHAR uni2859
ENCODING 10329
SWIDTH 800 0
DWIDTH 10 0
BBX 5 11 1 -2
BITMAP
D8
D8
00
18
18
00
00
00
00
C0
C0
ENDCHAR
STARTCHAR uni285A
ENCODING 10330
SWIDTH 800 0
DWIDTH 10 0
BBX 5 11 1 -2
BITMAP
18
18
00
D8
D8
00
00
00
00
C0
C0
ENDCHAR
STARTCHAR uni285B
ENCODING 10331
SWIDTH 800 0
DWIDTH 10 0
BBX 5 11 1 -2
BITMAP
D8
D8
00
D8
D8
00
00
00
00
C0
C0
ENDCHAR
STARTCHAR uni285C
ENCODING 10332
SWIDTH 800 0
DWIDTH 10 0
BBX 5 11 1 -2
BITMAP
18
18
00
18
18
00
C0
C0
00
C0
C0
ENDCHAR
STARTCHAR uni285D
ENCODING 10333
SWIDTH 800 0
DWIDTH 10 0
BBX 5 11 1 -2
BITMAP
D8
D8
00
18
18
00
C0
C0
00
C0
C0
ENDCHAR
STARTCHAR uni285E
ENCODING 10334
SWIDTH 800 0
DWIDTH 10 0
BBX 5 11 1 -2
BITMAP
18
18
00
D8
D8
00
C0
C0
00
C0
C0
ENDCHAR
STARTCHAR uni285F
ENCODING 10335
SWIDTH 800 0
DWIDTH 10 0
BBX 5 11 1 -2
BITMAP
D8
D8
00
D8
D8
00
C0
C0
00
C0
C0
ENDCHAR
STARTCHAR uni2860
ENCODING 10336
SWIDTH 800 0
DWIDTH 10 0
BBX 2 5 1 -2
BITMAP
C0
C0
00
C0
C0
ENDCHAR
STARTCHAR uni2861
ENCODING 10337
SWIDTH 800 0
DWIDTH 10 0
BBX 5 11 1 -2
BITMAP
C0
C0
00
00
00
00
18
18
00
C0
C0
ENDCHAR
STARTCHAR uni2862
ENCODING 10338
SWIDTH 800 0
DWIDTH 10 0
BBX 5 8 1 -2
BITMAP
C0
C0
00
18
18
00
C0
C0
ENDCHAR
STARTCHAR uni2863
ENCODING 10339
SWIDTH 800 0
DWIDTH 10 0
BBX 5 11 1 -2
BITMAP
C0
C0
00
C0
C0
00
18
18
00
C0
C0
ENDCHAR
STARTCHAR uni2864
ENCODING 10340
SWIDTH 800 0
DWIDTH 10 0
BBX 5 5 1 -2
BITMAP
D8
D8
00
C0
C0
ENDCHAR
STARTCHAR uni2865
ENCODING 10341
SWIDTH 800 0
DWIDTH 10 0
BBX 5 11 1 -2
BITMAP
C0
C0
00
00
00
00
D8
D8
00
C0
C0
ENDCHAR
STARTCHAR uni2866
ENCODING 10342
SWIDTH 800 0
DWIDTH 10 0
BBX 5 8 1 -2
BITMAP
C0
C0
00
D8
D8
00
C0
C0
ENDCHAR
STARTCHAR uni2867
ENCODING 10343
SWIDTH 800 0
DWIDTH 10 0
BBX 5 11 1 -2
BITMAP
C0
C0
00
C0
C0
00
D8
D8
00
C0
C0
ENDCHAR
STARTCHAR uni2868
ENCODING 10344
SWIDTH 800 0
DWIDTH 10 0
BBX 5 11 1 -2
BITMAP
18
18
00
00
00
00
18
18
00
C0
C0
ENDCHAR
STARTCHAR uni2869
ENCODING 10345
SWIDTH 800 0
DWIDTH 10 0
BBX 5 11 1 -2
BITMAP
D8
D8
00
00
00
00
18
18
00
C0
C0
ENDCHAR
STARTCHAR uni286A
ENCODING 10346
SWIDTH 800 0
DWIDTH 10 0
BBX 5 11 1 -2
BITMAP
18
18
00
C0
C0
00
18
18
00
C0
C0
ENDCHAR
STARTCHAR uni286B
ENCODING 10347
SWIDTH 800 0
DWIDTH 10 0
BBX 5 11 1 -2
BITMAP
D8
D8
00
C0
C0
00
18
18
00
C0
C0
ENDCHAR
STARTCHAR uni286C
ENCODING 10348
SWIDTH 800 0
DWIDTH 10 0
BBX 5 11 1 -2
BITMAP
18
18
00
00
00
00
D8
D8
00
C0
C0
ENDCHAR
STARTCHAR uni286D
ENCODING 10349
SWIDTH 800 0
DWIDTH 10 0
BBX 5 11 1 -2
BITMAP
D8
D8
00
00
00
00
D8
D8
00
C0
C0
ENDCHAR
STARTCHAR uni286E
ENCODING 10350
SWIDTH 800 0
DWIDTH 10 0
BBX 5 11 1 -2
BITMAP
18
18
00
C0
C0
00
D8
D8
00
C0
C0
ENDCHAR
STARTCHAR uni286F
ENCODING 10351
SWIDTH 800 0
DWIDTH 10 0
BBX 5 11 1 -2
BITMAP
D8
D8
00
C0
C0
00
D8
D8
00
C0
C0
ENDCHAR
STARTCHAR uni2870
ENCODING 10352
SWIDTH 800 0
DWIDTH 10 0
BBX 5 8 1 -2
BITMAP
18
18
00
18
18
00
C0
C0
ENDCHAR
STARTCHAR uni2871
ENCODING 10353
SWIDTH 800 0
DWIDTH 10 0
BBX 5 11 1 -2
BITMAP
C0
C0
00
18
18
00
18
18
00
C0
C0
ENDCHAR
STARTCHAR uni2872
ENCODING 10354
SWIDTH 800 0
DWIDTH 10 0
BBX 5 8 1 -2
BITMAP
D8
D8
00
18
18
00
C0
C0
ENDCHAR
STARTCHAR uni2873
ENCODING 10355
SWIDTH 800 0
DWIDTH 10 0
BBX 5 11 1 -2
BITMAP
C0
C0
00
D8
D8
00
18
18
00
C0
C0
ENDCHAR
STARTCHAR uni2874
ENCODING 10356
SWIDTH 800 0
DWIDTH 10 0
BBX 5 8 1 -2
BITMAP
18
18
00
D8
D8
00
C0
C0
ENDCHAR
STARTCHAR uni2875
ENCODING 10357
SWIDTH 800 0
DWIDTH 10 0
BBX 5 11 1 -2
BITMAP
C0
C0
00
18
18
00
D8
D8
00
C0
C0
ENDCHAR
STARTCHAR uni2876
ENCODING 10358
SWIDTH 800 0
DWIDTH 10 0
BBX 5 8 1 -2
BITMAP
D8
D8
00
D8
D8
00
C0
C0
ENDCHAR
STARTCHAR uni2877
ENCODING 10359
SWIDTH 800 0
DWIDTH 10 0
BBX 5 11 1 -2
BITMAP
C0
C0
00
D8
D8
00
D8
D8
00
C0
C0
ENDCHAR
STARTCHAR uni2878
ENCODING 10360
SWIDTH 800 0
DWIDTH 10 0
BBX 5 11 1 -2
BITMAP
18
18
00
18
18
00
18
18
00
C0
C0
ENDCHAR
STARTCHAR uni2879
ENCODING 10361
SWIDTH 800 0
DWIDTH 10 0
BBX 5 11 1 -2
BITMAP
D8
D8
00
18
18
00
18
18
00
C0
C0
ENDCHAR
STARTCHAR uni287A
ENCODING 10362
SWIDTH 800 0
DWIDTH 10 0
BBX 5 11 1 -2
BITMAP
18
18
00
D8
D8
00
18
18
00
C0
C0
ENDCHAR
STARTCHAR uni287B
ENCODING 10363
SWIDTH 800 0
DWIDTH 10 0
BBX 5 11 1 -2
BITMAP
D8
D8
00
D8
D8
00
18
18
00
C0
C0
ENDCHAR
STARTCHAR uni287C
ENCODING 10364
SWIDTH 800 0
DWIDTH 10 0
BBX 5 11 1 -2
BITMAP
18
18
00
18
18
00
D8
D8
00
C0
C0
ENDCHAR
STARTCHAR uni287D
ENCODING 10365
SWIDTH 800 0
DWIDTH 10 0
BBX 5 11 1 -2
BITMAP
D8
D8
00
18
18
00
D8
D8
00
C0
C0
ENDCHAR
STARTCHAR uni287E
ENCODING 10366
SWIDTH 800 0
DWIDTH 10 0
BBX 5 11 1 -2
BITMAP
18
18
00
D8
D8
00
D8
D8
00
C0
C0
ENDCHAR
STARTCHAR uni287F
ENCODING 10367
SWIDTH 800 0
DWIDTH 10 0
BBX 5 11 1 -2
BITMAP
D8
D8
00
D8
D8
00
D8
D8
00
C0
C0
ENDCHAR
STARTCHAR uni2880
ENCODING 10368
SWIDTH 800 0
DWIDTH 10 0
BBX 2 2 4 -2
BITMAP
C0
C0
ENDCHAR
STARTCHAR uni2881
ENCODING 10369
SWIDTH 800 0
DWIDTH 10 0
BBX 5 11 1 -2
BITMAP
C0
C0
00
00
00
00
00
00
00
18
18
ENDCHAR
STARTCHAR uni2882
ENCODING 10370
SWIDTH 800 0
DWIDTH 10 0
BBX 5 8 1 -2
BITMAP
C0
C0
00
00
00
00
18
18
ENDCHAR
STARTCHAR uni2883
ENCODING 10371
SWIDTH 800 0
DWIDTH 10 0
BBX 5 11 1 -2
BITMAP
C0
C0
00
C0
C0
00
00
00
00
18
18
ENDCHAR
STARTCHAR uni2884
ENCODING 10372
SWIDTH 800 0
DWIDTH 10 0
BBX 5 5 1 -2
BITMAP
C0
C0
00
18
18
ENDCHAR
STARTCHAR uni2885
ENCODING 10373
SWIDTH 800 0
DWIDTH 10 0
BBX 5 11 1 -2
BITMAP
C0
C0
00
00
00
00
C0
C0
00
18
18
ENDCHAR
STARTCHAR uni2886
ENCODING 10374
SWIDTH 800 0
DWIDTH 10 0
BBX 5 8 1 -2
BITMAP
C0
C0
00
C0
C0
00
18
18
ENDCHAR
STARTCHAR uni2887
ENCODING 10375
SWIDTH 800 0
DWIDTH 10 0
BBX 5 11 1 -2
BITMAP
C0
C0
00
C0
C0
00
C0
C0
00
18
18
ENDCHAR
STARTCHAR uni2888
ENCODING 10376
SWIDTH 800 0
DWIDTH 10 0
BBX 2 11 4 -2
BITMAP
C0
C0
00
00
00
00
00
00
00
C0
C0
ENDCHAR
STARTCHAR uni2889
ENCODING 10377
SWIDTH 800 0
DWIDTH 10 0
BBX 5 11 1 -2
BITMAP
D8
D8
00
00
00
00
00
00
00
18
18
ENDCHAR
STARTCHAR uni288A
ENCODING 10378
SWIDTH 800 0
DWIDTH 10 0
BBX 5 11 1 -2
BITMAP
18
18
00
C0
C0
00
00
00
00
18
18
ENDCHAR
STARTCHAR uni288B
ENCODING 10379
SWIDTH 800 0
DWIDTH 10 0
BBX 5 11 1 -2
BITMAP
D8
D8
00
C0
C0
00
00
00
00
18
18
ENDCHAR
STARTCHAR uni288C
ENCODING 10380
SWIDTH 800 0
DWIDTH 10 0
BBX 5 11 1 -2
BITMAP
18
18
00
00
00
00
C0
C0
00
18
18
ENDCHAR
STARTCHAR uni288D
ENCODING 10381
SWIDTH 800 0
DWIDTH 10 0
BBX 5 11 1 -2
BITMAP
D8
D8
00
00
00
00
C0
C0
00
18
18
ENDCHAR
STARTCHAR uni288E
ENCODING 10382
SWIDTH 800 0
DWIDTH 10 0
BBX 5 11 1 -2
BITMAP
18
18
00
C0
C0
00
C0
C0
00
18
18
ENDCHAR
STARTCHAR uni288F
ENCODING 10383
SWIDTH 800 0
DWIDTH 10 0
BBX 5 11 1 -2
BITMAP
D8
D8
00
C0
C0
00
C0
C0
00
18
18
ENDCHAR
STARTCHAR uni2890
ENCODING 10384
SWIDTH 800 0
DWIDTH 10 0
BBX 2 8 4 -2
BITMAP
C0
C0
00
00
00
00
C0
C0
ENDCHAR
STARTCHAR uni2891
ENCODING 10385
SWIDTH 800 0
DWIDTH 10 0
BBX 5 11 1 -2
BITMAP
C0
C0
00
18
18
00
00
00
00
18
18
ENDCHAR
STARTCHAR uni2892
ENCODING 10386
SWIDTH 800 0
DWIDTH 10 0
BBX 5 8 1 -2
BITMAP
D8
D8
00
00
00
00
18
18
ENDCHAR
STARTCHAR uni2893
ENCODING 10387
SWIDTH 800 0
DWIDTH 10 0
BBX 5 11 1 -2
BITMAP
C0
C0
00
D8
D8
00
00
00
00
18
18
ENDCHAR
STARTCHAR uni2894
ENCODING 10388
SWIDTH 800 0
DWIDTH 10 0
BBX 5 8 1 -2
BITMAP
18
18
00
C0
C0
00
18
18
ENDCHAR
STARTCHAR uni2895
ENCODING 10389
SWIDTH 800 0
DWIDTH 10 0
BBX 5 11 1 -2
BITMAP
C0
C0
00
18
18
00
C0
C0
00
18
18
ENDCHAR
STARTCHAR uni2896
ENCODING 10390
SWIDTH 800 0
DWIDTH 10 0
BBX 5 8 1 -2
BITMAP
D8
D8
00
C0
C0
00
18
18
ENDCHAR
STARTCHAR uni2897
ENCODING 10391
SWIDTH 800 0
DWIDTH 10 0
BBX 5 11 1 -2
BITMAP
C0
C0
00
D8
D8
00
C0
C0
00
18
18
ENDCHAR
STARTCHAR uni2898
ENCODING 10392
SWIDTH 800 0
DWIDTH 10 0
BBX 2 11 4 -2
BITMAP
C0
C0
00
C0
C0
00
00
00
00
C0
C0
ENDCHAR
STARTCHAR uni2899
ENCODING 10393
SWIDTH 800 0
DWIDTH 10 0
BBX 5 11 1 -2
BITMAP
D8
D8
00
18
18
00
00
00
00
18
18
ENDCHAR
STARTCHAR uni289A
ENCODING 10394
SWIDTH 800 0
DWIDTH 10 0
BBX 5 11 1 -2
BITMAP
18
18
00
D8
D8
00
00
00
00
18
18
ENDCHAR
STARTCHAR uni289B
ENCODING 10395
SWIDTH 800 0
DWIDTH 10 0
BBX 5 11 1 -2
BITMAP
D8
D8
00
D8
D8
00
00
00
00
18
18
ENDCHAR
STARTCHAR uni289C
ENCODING 10396
SWIDTH 800 0
DWIDTH 10 0
BBX 5 11 1 -2
BITMAP
18
18
00
18
18
00
C0
C0
00
18
18
ENDCHAR
STARTCHAR uni289D
ENCODING 10397
SWIDTH 800 0
DWIDTH 10 0
BBX 5 11 1 -2
BITMAP
D8
D8
00
18
18
00
C0
C0
00
18
18
ENDCHAR
STARTCHAR uni289E
ENCODING 10398
SWIDTH 800 0
DWIDTH 10 0
BBX 5 11 1 -2
BITMAP
18
18
00
D8
D8
00
C0
C0
00
18
18
ENDCHAR
STARTCHAR uni289F
ENCODING 10399
SWIDTH 800 0
DWIDTH 10 0
BBX 5 11 1 -2
BITMAP
D8
D8
00
D8
D8
00
C0
C0
00
18
18
ENDCHAR
STARTCHAR uni28A0
ENCODING 10400
SWIDTH 800 0
DWIDTH 10 0
BBX 2 5 4 -2
BITMAP
C0
C0
00
C0
C0
ENDCHAR
STARTCHAR uni28A1
ENCODING 10401
SWIDTH 800 0
DWIDTH 10 0
BBX 5 11 1 -2
BITMAP
C0
C0
00
00
00
00
18
18
00
18
18
ENDCHAR
STARTCHAR uni28A2
ENCODING 10402
SWIDTH 800 0
DWIDTH 10 0
BBX 5 8 1 -2
BITMAP
C0
C0
00
18
18
00
18
18
ENDCHAR
STARTCHAR uni28A3
ENCODING 10403
SWIDTH 800 0
DWIDTH 10 0
BBX 5 11 1 -2
BITMAP
C0
C0
00
C0
C0
00
18
18
00
18
18
ENDCHAR
STARTCHAR uni28A4
ENCODING 10404
SWIDTH 800 0
DWIDTH 10 0
BBX 5 5 1 -2
BITMAP
D8
D8
00
18
18
ENDCHAR
STARTCHAR uni28A5
ENCODING 10405
SWIDTH 800 0
DWIDTH 10 0
BBX 5 11 1 -2
BITMAP
C0
C0
00
00
00
00
D8
D8
00
18
18
ENDCHAR
STARTCHAR uni28A6
ENCODING 10406
SWIDTH 800 0
DWIDTH 10 0
BBX 5 8 1 -2
BITMAP
C0
C0
00
D8
D8
00
18
18
ENDCHAR
STARTCHAR uni28A7
ENCODING 10407
SWIDTH 800 0
DWIDTH 10 0
BBX 5 11 1 -2
BITMAP
C0
C0
00
C0
C0
00
D8
D8
00
18
18
ENDCHAR
STARTCHAR uni28A8
ENCODING 10408
SWIDTH 800 0
DWIDTH 10 0
BBX 2 11 4 -2
BITMAP
C0
C0
00
00
00
00
C0
C0
00
C0
C0
ENDCHAR
STARTCHAR uni28A9
ENCODING 10409
SWIDTH 800 0
DWIDTH 10 0
BBX 5 11 1 -2
BITMAP
D8
D8
00
00
00
00
18
18
00
18
18
ENDCHAR
STARTCHAR uni28AA
ENCODING 10410
SWIDTH 800 0
DWIDTH 10 0
BBX 5 11 1 -2
BITMAP
18
18
00
C0
C0
00
18
18
00
18
18
ENDCHAR
STARTCHAR uni28AB
ENCODING 10411
SWIDTH 800 0
DWIDTH 10 0
BBX 5 11 1 -2
BITMAP
D8
D8
00
C0
C0
00
18
18
00
18
18
ENDCHAR
STARTCHAR uni28AC
ENCODING 10412
SWIDTH 800 0
DWIDTH 10 0
BBX 5 11 1 -2
BITMAP
18
18
00
00
00
00
D8
D8
00
18
18
ENDCHAR
STARTCHAR uni28AD
ENCODING 10413
SWIDTH 800 0
DWIDTH 10 0
BBX 5 11 1 -2
BITMAP
D8
D8
00
00
00
00
D8
D8
00
18
18
ENDCHAR
STARTCHAR uni28AE
ENCODING 10414
SWIDTH 800 0
DWIDTH 10 0
BBX 5 11 1 -2
BITMAP
18
18
00
C0
C0
00
D8
D8
00
18
18
ENDCHAR
STARTCHAR uni28AF
ENCODING 10415
SWIDTH 800 0
DWIDTH 10 0
BBX 5 11 1 -2
BITMAP
D8
D8
00
C0
C0
00
D8
D8
00
18
18
ENDCHAR
STARTCHAR uni28B0
ENCODING 10416
SWIDTH 800 0
DWIDTH 10 0
BBX 2 8 4 -2
BITMAP
C0
C0
00
C0
C0
00
C0
C0
ENDCHAR
STARTCHAR uni28B1
ENCODING 10417
SWIDTH 800 0
DWIDTH 10 0
BBX 5 11 1 -2
BITMAP
C0
C0
00
18
18
00
18
18
00
18
18
ENDCHAR
STARTCHAR uni28B2
ENCODING 10418
SWIDTH 800 0
DWIDTH 10 0
BBX 5 8 1 -2
BITMAP
D8
D8
00
18
18
00
18
18
ENDCHAR
STARTCHAR uni28B3
ENCODING 10419
SWIDTH 800 0
DWIDTH 10 0
BBX 5 11 1 -2
BITMAP
C0
C0
00
D8
D8
00
18
18
00
18
18
ENDCHAR
STARTCHAR uni28B4
ENCODING 10420
SWIDTH 800 0
DWIDTH 10 0
BBX 5 8 1 -2
BITMAP
18
18
00
D8
D8
00
18
18
ENDCHAR
STARTCHAR uni28B5
ENCODING 10421
SWIDTH 800 0
DWIDTH 10 0
BBX 5 11 1 -2
BITMAP
C0
C0
00
18
18
00
D8
D8
00
18
18
ENDCHAR
STARTCHAR uni28B6
ENCODING 10422
SWIDTH 800 0
DWIDTH 10 0
BBX 5 8 1 -2
BITMAP
D8
D8
00
D8
D8
00
18
18
ENDCHAR
STARTCHAR uni28B7
ENCODING 10423
SWIDTH 800 0
DWIDTH 10 0
BBX 5 11 1 -2
BITMAP
C0
C0
00
D8
D8
00
D8
D8
00
18
18
ENDCHAR
STARTCHAR uni28B8
ENCODING 10424
SWIDTH 800 0
DWIDTH 10 0
BBX 2 11 4 -2
BITMAP
C0
C0
00
C0
C0
00
C0
C0
00
C0
C0
ENDCHAR
STARTCHAR uni28B9
ENCODING 10425
SWIDTH 800 0
DWIDTH 10 0
BBX 5 11 1 -2
BITMAP
D8
D8
00
18
18
00
18
18
00
18
18
ENDCHAR
STARTCHAR uni28BA
ENCODING 10426
SWIDTH 800 0
DWIDTH 10 0
BBX 5 11 1 -2
BITMAP
18
18
00
D8
D8
00
18
18
00
18
18
ENDCHAR
STARTCHAR uni28BB
ENCODING 10427
SWIDTH 800 0
DWIDTH 10 0
BBX 5 11 1 -2
BITMAP
D8
D8
00
D8
D8
00
18
18
00
18
18
ENDCHAR
STARTCHAR uni28BC
ENCODING 10428
SWIDTH 800 0
DWIDTH 10 0
BBX 5 11 1 -2
BITMAP
18
18
00
18
18
00
D8
D8
00
18
18
ENDCHAR
STARTCHAR uni28BD
ENCODING 10429
SWIDTH 800 0
DWIDTH 10 0
BBX 5 11 1 -2
BITMAP
D8
D8
00
18
18
00
D8
D8
00
18
18
ENDCHAR
STARTCHAR uni28BE
ENCODING 10430
SWIDTH 800 0
DWIDTH 10 0
BBX 5 11 1 -2
BITMAP
18
18
00
D8
D8
00
D8
D8
00
18
18
ENDCHAR
STARTCHAR uni28BF
ENCODING 10431
SWIDTH 800 0
DWIDTH 10 0
BBX 5 11 1 -2
BITMAP
D8
D8
00
D8
D8
00
D8
D8
00
18
18
ENDCHAR
STARTCHAR uni28C0
ENCODING 10432
SWIDTH 800 0
DWIDTH 10 0
BBX 5 2 1 -2
BITMAP
D8
D8
ENDCHAR
STARTCHAR uni28C1
ENCODING 10433
SWIDTH 800 0
DWIDTH 10 0
BBX 5 11 1 -2
BITMAP
C0
C0
00
00
00
00
00
00
00
D8
D8
ENDCHAR
STARTCHAR uni28C2
ENCODING 10434
SWIDTH 800 0
DWIDTH 10 0
BBX 5 8 1 -2
BITMAP
C0
C0
00
00
00
00
D8
D8
ENDCHAR
STARTCHAR uni28C3
ENCODING 10435
SWIDTH 800 0
DWIDTH 10 0
BBX 5 11 1 -2
BITMAP
C0
C0
00
C0
C0
00
00
00
00
D8
D8
ENDCHAR
STARTCHAR uni28C4
ENCODING 10436
SWIDTH 800 0
DWIDTH 10 0
BBX 5 5 1 -2
BITMAP
C0
C0
00
D8
D8
ENDCHAR
STARTCHAR uni28C5
ENCODING 10437
SWIDTH 800 0
DWIDTH 10 0
BBX 5 11 1 -2
BITMAP
C0
C0
00
00
00
00
C0
C0
00
D8
D8
ENDCHAR
STARTCHAR uni28C6
ENCODING 10438
SWIDTH 800 0
DWIDTH 10 0
BBX 5 8 1 -2
BITMAP
C0
C0
00
C0
C0
00
D8
D8
ENDCHAR
STARTCHAR uni28C7
ENCODING 10439
SWIDTH 800 0
DWIDTH 10 0
BBX 5 11 1 -2
BITMAP
C0
C0
00
C0
C0
00
C0
C0
00
D8
D8
ENDCHAR
STARTCHAR uni28C8
ENCODING 10440
SWIDTH 800 0
DWIDTH 10 0
BBX 5 11 1 -2
BITMAP
18
18
00
00
00
00
00
00
00
D8
D8
ENDCHAR
STARTCHAR uni28C9
ENCODING 10441
SWIDTH 800 0
DWIDTH 10 0
BBX 5 11 1 -2
BITMAP
D8
D8
00
00
00
00
00
00
00
D8
D8
ENDCHAR
STARTCHAR uni28CA
ENCODING 10442
SWIDTH 800 0
DWIDTH 10 0
BBX 5 11 1 -2
BITMAP
18
18
00
C0
C0
00
00
00
00
D8
D8
ENDCHAR
STARTCHAR uni28CB
ENCODING 10443
SWIDTH 800 0
DWIDTH 10 0
BBX 5 11 1 -2
BITMAP
D8
D8
00
C0
C0
00
00
00
00
D8
D8
ENDCHAR
STARTCHAR uni28CC
ENCODING 10444
SWIDTH 800 0
DWIDTH 10 0
BBX 5 11 1 -2
BITMAP
18
18
00
00
00
00
C0
C0
00
D8
D8
ENDCHAR
STARTCHAR uni28CD
ENCODING 10445
SWIDTH 800 0
DWIDTH 10 0
BBX 5 11 1 -2
BITMAP
D8
D8
00
00
00
00
C0
C0
00
D8
D8
ENDCHAR
STARTCHAR uni28CE
ENCODING 10446
SWIDTH 800 0
DWIDTH 10 0
BBX 5 11 1 -2
BITMAP
18
18
00
C0
C0
00
C0
C0
00
D8
D8
ENDCHAR
STARTCHAR uni28CF
ENCODING 10447
SWIDTH 800 0
DWIDTH 10 0
BBX 5 11 1 -2
BITMAP
D8
D8
00
C0
C0
00
C0
C0
00
D8
D8
ENDCHAR
STARTCHAR uni28D0
ENCODING 10448
SWIDTH 800 0
DWIDTH 10 0
BBX 5 8 1 -2
BITMAP
18
18
00
00
00
00
D8
D8
ENDCHAR
STARTCHAR uni28D1
ENCODING 10449
SWIDTH 800 0
DWIDTH 10 0
BBX 5 11 1 -2
BITMAP
C0
C0
00
18
18
00
00
00
00
D8
D8
ENDCHAR
STARTCHAR uni28D2
ENCODING 10450
SWIDTH 800 0
DWIDTH 10 0
BBX 5 8 1 -2
BITMAP
D8
D8
00
00
00
00
D8
D8
ENDCHAR
STARTCHAR uni28D3
ENCODING 10451
SWIDTH 800 0
DWIDTH 10 0
BBX 5 11 1 -2
BITMAP
C0
C0
00
D8
D8
00
00
00
00
D8
D8
ENDCHAR
STARTCHAR uni28D4
ENCODING 10452
SWIDTH 800 0
DWIDTH 10 0
BBX 5 8 1 -2
BITMAP
18
18
00
C0
C0
00
D8
D8
ENDCHAR
STARTCHAR uni28D5
ENCODING 10453
SWIDTH 800 0
DWIDTH 10 0
BBX 5 11 1 -2
BITMAP
C0
C0
00
18
18
00
C0
C0
00
D8
D8
ENDCHAR
STARTCHAR uni28D6
ENCODING 10454
SWIDTH 800 0
DWIDTH 10 0
BBX 5 8 1 -2
BITMAP
D8
D8
00
C0
C0
00
D8
D8
ENDCHAR
STARTCHAR uni28D7
ENCODING 10455
SWIDTH 800 0
DWIDTH 10 0
BBX 5 11 1 -2
BITMAP
C0
C0
00
D8
D8
00
C0
C0
00
D8
D8
ENDCHAR
STARTCHAR uni28D8
ENCODING 10456
SWIDTH 800 0
DWIDTH 10 0
BBX 5 11 1 -2
BITMAP
18
18
00
18
18
00
00
00
00
D8
D8
ENDCHAR
STARTCHAR uni28D9
ENCODING 10457
SWIDTH 800 0
DWIDTH 10 0
BBX 5 11 1 -2
BITMAP
D8
D8
00
18
18
00
00
00
00
D8
D8
ENDCHAR
STARTCHAR uni28DA
ENCODING 10458
SWIDTH 800 0
DWIDTH 10 0
BBX 5 11 1 -2
BITMAP
18
18
00
D8
D8
00
00
00
00
D8
D8
ENDCHAR
STARTCHAR uni28DB
ENCODING 10459
SWIDTH 800 0
DWIDTH 10 0
BBX 5 11 1 -2
BITMAP
D8
D8
00
D8
D8
00
00
00
00
D8
D8
ENDCHAR
STARTCHAR uni28DC
ENCODING 10460
SWIDTH 800 0
DWIDTH 10 0
BBX 5 11 1 -2
BITMAP
18
18
00
18
18
00
C0
C0
00
D8
D8
ENDCHAR
STARTCHAR uni28DD
ENCODING 10461
SWIDTH 800 0
DWIDTH 10 0
BBX 5 11 1 -2
BITMAP
D8
D8
00
18
18
00
C0
C0
00
D8
D8
ENDCHAR
STARTCHAR uni28DE
ENCODING 10462
SWIDTH 800 0
DWIDTH 10 0
BBX 5 11 1 -2
BITMAP
18
18
00
D8
D8
00
C0
C0
00
D8
D8
ENDCHAR
STARTCHAR uni28DF
ENCODING 10463
SWIDTH 800 0
DWIDTH 10 0
BBX 5 11 1 -2
BITMAP
D8
D8
00
D8
D8
00
C0
C0
00
D8
D8
ENDCHAR
STARTCHAR uni28E0
ENCODING 10464
SWIDTH 800 0
DWIDTH 10 0
BBX 5 5 1 -2
BITMAP
18
18
00
D8
D8
ENDCHAR
STARTCHAR uni28E1
ENCODING 10465
SWIDTH 800 0
DWIDTH 10 0
BBX 5 11 1 -2
BITMAP
C0
C0
00
00
00
00
18
18
00
D8
D8
ENDCHAR
STARTCHAR uni28E2
ENCODING 10466
SWIDTH 800 0
DWIDTH 10 0
BBX 5 8 1 -2
BITMAP
C0
C0
00
18
18
00
D8
D8
ENDCHAR
STARTCHAR uni28E3
ENCODING 10467
SWIDTH 800 0
DWIDTH 10 0
BBX 5 11 1 -2
BITMAP
C0
C0
00
C0
C0
00
18
18
00
D8
D8
ENDCHAR
STARTCHAR uni28E4
ENCODING 10468
SWIDTH 800 0
DWIDTH 10 0
BBX 5 5 1 -2
BITMAP
D8
D8
00
D8
D8
ENDCHAR
STARTCHAR uni28E5
ENCODING 10469
SWIDTH 800 0
DWIDTH 10 0
BBX 5 11 1 -2
BITMAP
C0
C0
00
00
00
00
D8
D8
00
D8
D8
ENDCHAR
STARTCHAR uni28E6
ENCODING 10470
SWIDTH 800 0
DWIDTH 10 0
BBX 5 8 1 -2
BITMAP
C0
C0
00
D8
D8
00
D8
D8
ENDCHAR
STARTCHAR uni28E7
ENCODING 10471
SWIDTH 800 0
DWIDTH 10 0
BBX 5 11 1 -2
BITMAP
C0
C0
00
C0
C0
00
D8
D8
00
D8
D8
ENDCHAR
STARTCHAR uni28E8
ENCODING 10472
SWIDTH 800 0
DWIDTH 10 0
BBX 5 11 1 -2
BITMAP
18
18
00
00
00
00
18
18
00
D8
D8
ENDCHAR
STARTCHAR uni28E9
ENCODING 10473
SWIDTH 800 0
DWIDTH 10 0
BBX 5 11 1 -2
BITMAP
D8
D8
00
00
00
00
18
18
00
D8
D8
ENDCHAR
STARTCHAR uni28EA
ENCODING 10474
SWIDTH 800 0
DWIDTH 10 0
BBX 5 11 1 -2
BITMAP
18
18
00
C0
C0
00
18
18
00
D8
D8
ENDCHAR
STARTCHAR uni28EB
ENCODING 10475
SWIDTH 800 0
DWIDTH 10 0
BBX 5 11 1 -2
BITMAP
D8
D8
00
C0
C0
00
18
18
00
D8
D8
ENDCHAR
STARTCHAR uni28EC
ENCODING 10476
SWIDTH 800 0
DWIDTH 10 0
BBX 5 11 1 -2
BITMAP
18
18
00
00
00
00
D8
D8
00
D8
D8
ENDCHAR
STARTCHAR uni28ED
ENCODING 10477
SWIDTH 800 0
DWIDTH 10 0
BBX 5 11 1 -2
BITMAP
D8
D8
00
00
00
00
D8
D8
00
D8
D8
ENDCHAR
STARTCHAR uni28EE
ENCODING 10478
SWIDTH 800 0
DWIDTH 10 0
BBX 5 11 1 -2
BITMAP
18
18
00
C0
C0
00
D8
D8
00
D8
D8
ENDCHAR
STARTCHAR uni28EF
ENCODING 10479
SWIDTH 800 0
DWIDTH 10 0
BBX 5 11 1 -2
BITMAP
D8
D8
00
C0
C0
00
D8
D8
00
D8
D8
ENDCHAR
STARTCHAR uni28F0
ENCODING 10480
SWIDTH 800 0
DWIDTH 10 0
BBX 5 8 1 -2
BITMAP
18
18
00
18
18
00
D8
D8
ENDCHAR
STARTCHAR uni28F1
ENCODING 10481
SWIDTH 800 0
DWIDTH 10 0
BBX 5 11 1 -2
BITMAP
C0
C0
00
18
18
00
18
18
00
D8
D8
ENDCHAR
STARTCHAR uni28F2
ENCODING 10482
SWIDTH 800 0
DWIDTH 10 0
BBX 5 8 1 -2
BITMAP
D8
D8
00
18
18
00
D8
D8
ENDCHAR
STARTCHAR uni28F3
ENCODING 10483
SWIDTH 800 0
DWIDTH 10 0
BBX 5 11 1 -2
BITMAP
C0
C0
00
D8
D8
00
18
18
00
D8
D8
ENDCHAR
STARTCHAR uni28F4
ENCODING 10484
SWIDTH 800 0
DWIDTH 10 0
BBX 5 8 1 -2
BITMAP
18
18
00
D8
D8
00
D8
D8
ENDCHAR
STARTCHAR uni28F5
ENCODING 10485
SWIDTH 800 0
DWIDTH 10 0
BBX 5 11 1 -2
BITMAP
C0
C0
00
18
18
00
D8
D8
00
D8
D8
ENDCHAR
STARTCHAR uni28F6
ENCODING 10486
SWIDTH 800 0
DWIDTH 10 0
BBX 5 8 1 -2
BITMAP
D8
D8
00
D8
D8
00
D8
D8
ENDCHAR
STARTCHAR uni28F7
ENCODING 10487
SWIDTH 800 0
DWIDTH 10 0
BBX 5 11 1 -2
BITMAP
C0
C0
00
D8
D8
00
D8
D8
00
D8
D8
ENDCHAR
STARTCHAR uni28F8
ENCODING 10488
SWIDTH 800 0
DWIDTH 10 0
BBX 5 11 1 -2
BITMAP
18
18
00
18
18
00
18
18
00
D8
D8
ENDCHAR
STARTCHAR uni28F9
ENCODING 10489
SWIDTH 800 0
DWIDTH 10 0
BBX 5 11 1 -2
BITMAP
D8
D8
00
18
18
00
18
18
00
D8
D8
ENDCHAR
STARTCHAR uni28FA
ENCODING 10490
SWIDTH 800 0
DWIDTH 10 0
BBX 5 11 1 -2
BITMAP
18
18
00
D8
D8
00
18
18
00
D8
D8
ENDCHAR
STARTCHAR uni28FB
ENCODING 10491
SWIDTH 800 0
DWIDTH 10 0
BBX 5 11 1 -2
BITMAP
D8
D8
00
D8
D8
00
18
18
00
D8
D8
ENDCHAR
STARTCHAR uni28FC
ENCODING 10492
SWIDTH 800 0
DWIDTH 10 0
BBX 5 11 1 -2
BITMAP
18
18
00
18
18
00
D8
D8
00
D8
D8
ENDCHAR
STARTCHAR uni28FD
ENCODING 10493
SWIDTH 800 0
DWIDTH 10 0
BBX 5 11 1 -2
BITMAP
D8
D8
00
18
18
00
D8
D8
00
D8
D8
ENDCHAR
STARTCHAR uni28FE
ENCODING 10494
SWIDTH 800 0
DWIDTH 10 0
BBX 5 11 1 -2
BITMAP
18
18
00
D8
D8
00
D8
D8
00
D8
D8
ENDCHAR
STARTCHAR uni28FF
ENCODING 10495
SWIDTH 800 0
DWIDTH 10 0
BBX 5 11 1 -2
BITMAP
D8
D8
00
D8
D8
00
D8
D8
00
D8
D8
ENDCHAR
STARTCHAR char10522
ENCODING 10521
SWIDTH 800 0
DWIDTH 10 0
BBX 5 7 0 0
BITMAP
08
08
10
E0
10
08
08
ENDCHAR
STARTCHAR char10522
ENCODING 10522
SWIDTH 800 0
DWIDTH 10 0
BBX 5 7 2 0
BITMAP
80
80
40
38
40
80
80
ENDCHAR
STARTCHAR char10524
ENCODING 10523
SWIDTH 800 0
DWIDTH 10 0
BBX 7 7 1 0
BITMAP
02
04
08
F0
08
04
02
ENDCHAR
STARTCHAR char10524
ENCODING 10524
SWIDTH 800 0
DWIDTH 10 0
BBX 8 7 0 0
BITMAP
80
40
20
9F
20
40
80
ENDCHAR
STARTCHAR uni2B22
ENCODING 11042
SWIDTH 800 0
DWIDTH 10 0
BBX 5 7 1 0
BITMAP
20
70
F8
F8
F8
70
20
ENDCHAR
STARTCHAR uni2B50
ENCODING 11088
SWIDTH 800 0
DWIDTH 10 0
BBX 5 6 1 1
BITMAP
20
20
F8
50
70
88
ENDCHAR
STARTCHAR char11102
ENCODING 11102
SWIDTH 800 0
DWIDTH 10 0
BBX 7 3 1 2
BITMAP
FE
00
FE
ENDCHAR
STARTCHAR char11103
ENCODING 11103
SWIDTH 800 0
DWIDTH 10 0
BBX 8 1 0 3
BITMAP
FF
ENDCHAR
STARTCHAR uni2B60
ENCODING 11104
SWIDTH 800 0
DWIDTH 10 0
BBX 6 3 1 2
BITMAP
40
FC
40
ENDCHAR
STARTCHAR uni2B61
ENCODING 11105
SWIDTH 800 0
DWIDTH 10 0
BBX 3 6 2 1
BITMAP
40
E0
40
40
40
40
ENDCHAR
STARTCHAR uni2B62
ENCODING 11106
SWIDTH 800 0
DWIDTH 10 0
BBX 6 3 1 2
BITMAP
08
FC
08
ENDCHAR
STARTCHAR uni2B63
ENCODING 11107
SWIDTH 800 0
DWIDTH 10 0
BBX 3 6 2 1
BITMAP
40
40
40
40
E0
40
ENDCHAR
STARTCHAR uni2B64
ENCODING 11108
SWIDTH 800 0
DWIDTH 10 0
BBX 6 3 1 2
BITMAP
48
FC
48
ENDCHAR
STARTCHAR uni2B65
ENCODING 11109
SWIDTH 800 0
DWIDTH 10 0
BBX 3 6 2 1
BITMAP
40
E0
40
40
E0
40
ENDCHAR
STARTCHAR uni2B66
ENCODING 11110
SWIDTH 800 0
DWIDTH 10 0
BBX 6 6 1 1
BITMAP
E0
C0
A0
10
08
04
ENDCHAR
STARTCHAR uni2B67
ENCODING 11111
SWIDTH 800 0
DWIDTH 10 0
BBX 6 6 1 1
BITMAP
1C
0C
14
20
40
80
ENDCHAR
STARTCHAR uni2B68
ENCODING 11112
SWIDTH 800 0
DWIDTH 10 0
BBX 6 6 1 1
BITMAP
80
40
20
14
0C
1C
ENDCHAR
STARTCHAR uni2B69
ENCODING 11113
SWIDTH 800 0
DWIDTH 10 0
BBX 6 6 1 1
BITMAP
04
08
10
A0
C0
E0
ENDCHAR
STARTCHAR uni2B80
ENCODING 11136
SWIDTH 800 0
DWIDTH 10 0
BBX 6 6 1 1
BITMAP
40
FC
40
08
FC
08
ENDCHAR
STARTCHAR uni2B81
ENCODING 11137
SWIDTH 800 0
DWIDTH 10 0
BBX 6 6 1 1
BITMAP
48
E8
48
48
5C
48
ENDCHAR
STARTCHAR uni2B82
ENCODING 11138
SWIDTH 800 0
DWIDTH 10 0
BBX 6 6 1 1
BITMAP
08
FC
08
40
FC
40
ENDCHAR
STARTCHAR uni2B83
ENCODING 11139
SWIDTH 800 0
DWIDTH 10 0
BBX 6 6 1 1
BITMAP
48
5C
48
48
E8
48
ENDCHAR
STARTCHAR uni33D1
ENCODING 13265
SWIDTH 800 0
DWIDTH 10 0
BBX 5 8 1 0
BITMAP
80
80
80
B0
A8
A8
A8
68
ENDCHAR
STARTCHAR uniE000
ENCODING 57344
SWIDTH 800 0
DWIDTH 10 0
BBX 7 9 0 -1
BITMAP
44
FE
54
FE
44
44
82
82
82
ENDCHAR
STARTCHAR uniE001
ENCODING 57345
SWIDTH 800 0
DWIDTH 10 0
BBX 7 8 0 0
BITMAP
20
10
7C
F2
FA
FE
7C
38
ENDCHAR
STARTCHAR uniE002
ENCODING 57346
SWIDTH 800 0
DWIDTH 10 0
BBX 7 8 0 0
BITMAP
20
10
7C
82
82
82
44
38
ENDCHAR
STARTCHAR uniE003
ENCODING 57347
SWIDTH 800 0
DWIDTH 10 0
BBX 7 8 0 0
BITMAP
20
10
7C
FE
DE
EE
6C
38
ENDCHAR
STARTCHAR uniE004
ENCODING 57348
SWIDTH 800 0
DWIDTH 10 0
BBX 7 8 0 0
BITMAP
20
10
7C
82
82
FE
7C
38
ENDCHAR
STARTCHAR uniE005
ENCODING 57349
SWIDTH 800 0
DWIDTH 10 0
BBX 7 9 0 0
BITMAP
20
40
20
00
FE
FA
FE
F8
70
ENDCHAR
STARTCHAR uniE006
ENCODING 57350
SWIDTH 800 0
DWIDTH 10 0
BBX 7 8 0 0
BITMAP
7C
3E
58
14
20
20
78
FC
ENDCHAR
STARTCHAR uniE007
ENCODING 57351
SWIDTH 800 0
DWIDTH 10 0
BBX 7 9 0 -1
BITMAP
60
F0
50
F0
F8
FE
7C
78
30
ENDCHAR
STARTCHAR uniE008
ENCODING 57352
SWIDTH 800 0
DWIDTH 10 0
BBX 7 8 0 0
BITMAP
20
00
6C
CE
DE
CE
6C
28
ENDCHAR
STARTCHAR uniE009
ENCODING 57353
SWIDTH 800 0
DWIDTH 10 0
BBX 2 10 2 -1
BITMAP
C0
C0
C0
C0
C0
C0
C0
00
C0
C0
ENDCHAR
STARTCHAR uniE00A
ENCODING 57354
SWIDTH 800 0
DWIDTH 10 0
BBX 5 8 1 0
BITMAP
78
70
60
F8
F8
30
60
40
ENDCHAR
STARTCHAR char57539
ENCODING 57502
SWIDTH 800 0
DWIDTH 10 0
BBX 8 3 0 2
BITMAP
FF
00
FF
ENDCHAR
STARTCHAR char57540
ENCODING 57503
SWIDTH 800 0
DWIDTH 10 0
BBX 8 1 0 3
BITMAP
FF
ENDCHAR
STARTCHAR uniE0A0
ENCODING 57504
SWIDTH 800 0
DWIDTH 10 0
BBX 5 10 1 -2
BITMAP
80
90
B8
90
90
A0
40
80
80
80
ENDCHAR
STARTCHAR uniE0A1
ENCODING 57505
SWIDTH 800 0
DWIDTH 10 0
BBX 5 10 1 -2
BITMAP
80
80
80
80
F0
00
48
68
58
48
ENDCHAR
STARTCHAR uniE0A2
ENCODING 57506
SWIDTH 800 0
DWIDTH 10 0
BBX 5 8 1 -1
BITMAP
70
50
50
F8
D8
D8
F8
F8
ENDCHAR
STARTCHAR uniE0A3
ENCODING 57507
SWIDTH 800 0
DWIDTH 10 0
BBX 5 10 1 -2
BITMAP
60
90
80
90
60
00
48
68
58
48
ENDCHAR
STARTCHAR uniE0B0
ENCODING 57520
SWIDTH 800 0
DWIDTH 10 0
BBX 7 13 0 -3
BITMAP
80
C0
E0
F0
F8
FC
FE
FC
F8
F0
E0
C0
80
ENDCHAR
STARTCHAR uniE0B1
ENCODING 57521
SWIDTH 800 0
DWIDTH 10 0
BBX 7 13 0 -3
BITMAP
80
40
20
10
08
04
02
04
08
10
20
40
80
ENDCHAR
STARTCHAR uniE0B2
ENCODING 57522
SWIDTH 800 0
DWIDTH 10 0
BBX 7 13 0 -3
BITMAP
02
06
0E
1E
3E
7E
FE
7E
3E
1E
0E
06
02
ENDCHAR
STARTCHAR uniE0B3
ENCODING 57523
SWIDTH 800 0
DWIDTH 10 0
BBX 7 13 0 -3
BITMAP
02
04
08
10
20
40
80
40
20
10
08
04
02
ENDCHAR
STARTCHAR uniE0B4
ENCODING 57524
SWIDTH 800 0
DWIDTH 10 0
BBX 7 13 0 -3
BITMAP
E0
F8
FC
FC
FE
FE
FE
FE
FE
FC
FC
F8
E0
ENDCHAR
STARTCHAR uniE0B5
ENCODING 57525
SWIDTH 800 0
DWIDTH 10 0
BBX 7 13 0 -3
BITMAP
E0
38
1C
0C
06
06
06
06
06
0C
1C
38
E0
ENDCHAR
STARTCHAR uniE0B6
ENCODING 57526
SWIDTH 800 0
DWIDTH 10 0
BBX 7 13 0 -3
BITMAP
0E
3E
7E
7E
FE
FE
FE
FE
FE
7E
7E
3E
0E
ENDCHAR
STARTCHAR uniE0B7
ENCODING 57527
SWIDTH 800 0
DWIDTH 10 0
BBX 7 13 0 -3
BITMAP
0E
38
70
60
C0
C0
C0
C0
C0
60
70
38
0E
ENDCHAR
STARTCHAR uniE0B8
ENCODING 57528
SWIDTH 800 0
DWIDTH 10 0
BBX 7 13 0 -3
BITMAP
80
80
C0
C0
E0
E0
F0
F8
F8
FC
FC
FE
FE
ENDCHAR
STARTCHAR uniE0B9
ENCODING 57529
SWIDTH 800 0
DWIDTH 10 0
BBX 7 13 0 -3
BITMAP
80
80
40
40
20
20
10
08
08
04
04
02
02
ENDCHAR
STARTCHAR uniE0BA
ENCODING 57530
SWIDTH 800 0
DWIDTH 10 0
BBX 7 13 0 -3
BITMAP
02
02
06
06
0E
0E
1E
3E
3E
7E
7E
FE
FE
ENDCHAR
STARTCHAR uniE0BB
ENCODING 57531
SWIDTH 800 0
DWIDTH 10 0
BBX 7 13 0 -3
BITMAP
02
02
04
04
08
08
10
20
20
40
40
80
80
ENDCHAR
STARTCHAR uniE0BC
ENCODING 57532
SWIDTH 800 0
DWIDTH 10 0
BBX 7 13 0 -3
BITMAP
FE
FE
FC
FC
F8
F8
F0
E0
E0
C0
C0
80
80
ENDCHAR
STARTCHAR uniE0BD
ENCODING 57533
SWIDTH 800 0
DWIDTH 10 0
BBX 7 13 0 -3
BITMAP
02
02
04
04
08
08
10
20
20
40
40
80
80
ENDCHAR
STARTCHAR uniE0BE
ENCODING 57534
SWIDTH 800 0
DWIDTH 10 0
BBX 7 13 0 -3
BITMAP
FE
FE
7E
7E
3E
3E
1E
0E
0E
06
06
02
02
ENDCHAR
STARTCHAR uniE0BF
ENCODING 57535
SWIDTH 800 0
DWIDTH 10 0
BBX 7 13 0 -3
BITMAP
80
80
40
40
20
20
10
08
08
04
04
02
02
ENDCHAR
STARTCHAR char57540
ENCODING 57537
SWIDTH 800 0
DWIDTH 10 0
BBX 4 7 3 0
BITMAP
80
40
20
10
20
40
80
ENDCHAR
STARTCHAR char57539
ENCODING 57539
SWIDTH 800 0
DWIDTH 10 0
BBX 7 7 1 0
BITMAP
80
40
3E
00
3E
40
80
ENDCHAR
STARTCHAR char57540
ENCODING 57540
SWIDTH 800 0
DWIDTH 10 0
BBX 8 7 0 0
BITMAP
A0
50
2F
10
2F
50
A0
ENDCHAR
STARTCHAR char57539
ENCODING 57541
SWIDTH 800 0
DWIDTH 10 0
BBX 7 7 1 0
BITMAP
02
04
F8
00
F8
04
02
ENDCHAR
STARTCHAR char57540
ENCODING 57542
SWIDTH 800 0
DWIDTH 10 0
BBX 7 7 1 0
BITMAP
0A
14
E8
10
E8
14
0A
ENDCHAR
STARTCHAR char57540
ENCODING 57553
SWIDTH 800 0
DWIDTH 10 0
BBX 4 7 0 0
BITMAP
10
20
40
80
40
20
10
ENDCHAR
STARTCHAR uniE0D2
ENCODING 57554
SWIDTH 800 0
DWIDTH 10 0
BBX 6 13 0 -3
BITMAP
FC
F8
F0
E0
C0
80
00
80
C0
E0
F0
F8
FC
ENDCHAR
STARTCHAR uniE0D4
ENCODING 57556
SWIDTH 800 0
DWIDTH 10 0
BBX 6 13 1 -3
BITMAP
FC
7C
3C
1C
0C
04
00
04
0C
1C
3C
7C
FC
ENDCHAR
STARTCHAR uniE5FB
ENCODING 58875
SWIDTH 800 0
DWIDTH 10 0
BBX 5 5 1 1
BITMAP
E0
D8
A8
D8
F8
ENDCHAR
STARTCHAR uniE5FE
ENCODING 58878
SWIDTH 800 0
DWIDTH 10 0
BBX 6 5 0 1
BITMAP
F0
80
7C
FC
F8
ENDCHAR
STARTCHAR uniE5FF
ENCODING 58879
SWIDTH 800 0
DWIDTH 10 0
BBX 5 5 1 1
BITMAP
E0
F8
F8
F8
F8
ENDCHAR
STARTCHAR uniE600
ENCODING 58880
SWIDTH 800 0
DWIDTH 10 0
BBX 7 13 0 -3
BITMAP
02
04
08
08
08
68
28
2C
20
20
20
40
80
ENDCHAR
STARTCHAR uniE601
ENCODING 58881
SWIDTH 800 0
DWIDTH 10 0
BBX 7 7 0 0
BITMAP
F0
00
6C
00
36
00
74
ENDCHAR
STARTCHAR uniE602
ENCODING 58882
SWIDTH 800 0
DWIDTH 10 0
BBX 7 13 0 -3
BITMAP
80
C0
E0
F0
F8
FC
FE
FC
F8
F0
E0
C0
80
ENDCHAR
STARTCHAR uniE603
ENCODING 58883
SWIDTH 800 0
DWIDTH 10 0
BBX 7 10 0 -2
BITMAP
1C
62
82
A4
98
40
2C
30
50
60
ENDCHAR
STARTCHAR uniE604
ENCODING 58884
SWIDTH 800 0
DWIDTH 10 0
BBX 7 9 0 -1
BITMAP
04
1C
5A
30
B8
70
78
F0
78
ENDCHAR
STARTCHAR uniE605
ENCODING 58885
SWIDTH 800 0
DWIDTH 10 0
BBX 6 6 0 1
BITMAP
1C
3C
7C
FC
FC
FC
ENDCHAR
STARTCHAR uniE606
ENCODING 58886
SWIDTH 800 0
DWIDTH 10 0
BBX 7 7 0 0
BITMAP
38
18
FA
C6
BE
30
38
ENDCHAR
STARTCHAR uniE607
ENCODING 58887
SWIDTH 800 0
DWIDTH 10 0
BBX 7 10 0 -2
BITMAP
C6
CC
C0
DC
FE
E6
06
86
C6
86
ENDCHAR
STARTCHAR uniE608
ENCODING 58888
SWIDTH 800 0
DWIDTH 10 0
BBX 7 7 0 0
BITMAP
74
F6
AE
FE
5C
54
94
ENDCHAR
STARTCHAR uniE609
ENCODING 58889
SWIDTH 800 0
DWIDTH 10 0
BBX 7 9 0 -1
BITMAP
44
6C
7C
7C
7C
FE
7C
38
10
ENDCHAR
STARTCHAR uniE60A
ENCODING 58890
SWIDTH 800 0
DWIDTH 10 0
BBX 6 10 0 -2
BITMAP
38
44
64
D4
F8
F8
78
CC
CC
84
ENDCHAR
STARTCHAR uniE60B
ENCODING 58891
SWIDTH 800 0
DWIDTH 10 0
BBX 7 9 0 -1
BITMAP
28
44
44
44
82
44
44
44
28
ENDCHAR
STARTCHAR uniE60C
ENCODING 58892
SWIDTH 800 0
DWIDTH 10 0
BBX 7 7 0 0
BITMAP
4C
52
50
4C
42
52
8C
ENDCHAR
STARTCHAR uniE60D
ENCODING 58893
SWIDTH 800 0
DWIDTH 10 0
BBX 7 6 0 0
BITMAP
FC
FE
C2
D6
FA
7E
ENDCHAR
STARTCHAR uniE60E
ENCODING 58894
SWIDTH 800 0
DWIDTH 10 0
BBX 7 5 0 1
BITMAP
28
44
82
44
28
ENDCHAR
STARTCHAR uniE60F
ENCODING 58895
SWIDTH 800 0
DWIDTH 10 0
BBX 7 2 0 2
BITMAP
BA
6C
ENDCHAR
STARTCHAR uniE610
ENCODING 58896
SWIDTH 800 0
DWIDTH 10 0
BBX 5 10 1 -2
BITMAP
80
40
40
F8
F8
F8
F8
70
70
70
ENDCHAR
STARTCHAR uniE611
ENCODING 58897
SWIDTH 800 0
DWIDTH 10 0
BBX 7 9 0 -1
BITMAP
D6
7C
7C
7C
FE
7C
BA
FE
38
ENDCHAR
STARTCHAR uniE612
ENCODING 58898
SWIDTH 800 0
DWIDTH 10 0
BBX 5 7 1 0
BITMAP
F8
00
F0
00
F8
00
E0
ENDCHAR
STARTCHAR uniE613
ENCODING 58899
SWIDTH 800 0
DWIDTH 10 0
BBX 5 5 1 1
BITMAP
E0
F8
F8
F8
F8
ENDCHAR
STARTCHAR uniE614
ENCODING 58900
SWIDTH 800 0
DWIDTH 10 0
BBX 7 8 0 0
BITMAP
14
14
7E
28
28
FC
50
50
ENDCHAR
STARTCHAR uniE615
ENCODING 58901
SWIDTH 800 0
DWIDTH 10 0
BBX 7 7 0 0
BITMAP
28
7C
FE
6C
FE
7C
28
ENDCHAR
STARTCHAR uniE616
ENCODING 58902
SWIDTH 800 0
DWIDTH 10 0
BBX 6 6 0 1
BITMAP
FC
84
94
94
94
FC
ENDCHAR
STARTCHAR uniE617
ENCODING 58903
SWIDTH 800 0
DWIDTH 10 0
BBX 7 8 0 0
BITMAP
10
38
7C
FE
EE
EE
EE
82
ENDCHAR
STARTCHAR uniE618
ENCODING 58904
SWIDTH 800 0
DWIDTH 10 0
BBX 7 5 0 1
BITMAP
28
44
82
44
28
ENDCHAR
STARTCHAR uniE619
ENCODING 58905
SWIDTH 800 0
DWIDTH 10 0
BBX 6 6 0 1
BITMAP
F0
18
EC
34
D4
D4
ENDCHAR
STARTCHAR uniE61A
ENCODING 58906
SWIDTH 800 0
DWIDTH 10 0
BBX 7 8 0 0
BITMAP
72
FC
D8
FE
F2
8C
58
38
ENDCHAR
STARTCHAR uniE61B
ENCODING 58907
SWIDTH 800 0
DWIDTH 10 0
BBX 7 7 0 0
BITMAP
3C
42
7E
FE
BC
FC
3C
ENDCHAR
STARTCHAR uniE61C
ENCODING 58908
SWIDTH 800 0
DWIDTH 10 0
BBX 7 10 0 -2
BITMAP
04
08
08
18
1A
5C
3C
B8
98
98
ENDCHAR
STARTCHAR uniE61D
ENCODING 58909
SWIDTH 800 0
DWIDTH 10 0
BBX 7 7 0 0
BITMAP
38
6C
D6
DE
D6
6C
38
ENDCHAR
STARTCHAR uniE61E
ENCODING 58910
SWIDTH 800 0
DWIDTH 10 0
BBX 7 7 0 0
BITMAP
60
80
94
BE
94
80
60
ENDCHAR
STARTCHAR uniE61F
ENCODING 58911
SWIDTH 800 0
DWIDTH 10 0
BBX 7 6 0 0
BITMAP
A0
AE
50
56
A8
A8
ENDCHAR
STARTCHAR uniE620
ENCODING 58912
SWIDTH 800 0
DWIDTH 10 0
BBX 7 7 0 0
BITMAP
74
8E
74
EA
FA
FA
74
ENDCHAR
STARTCHAR uniE621
ENCODING 58913
SWIDTH 800 0
DWIDTH 10 0
BBX 1 12 3 -3
BITMAP
80
80
00
80
80
00
80
80
80
00
80
80
ENDCHAR
STARTCHAR uniE622
ENCODING 58914
SWIDTH 800 0
DWIDTH 10 0
BBX 7 8 0 -1
BITMAP
E6
EE
FC
F8
78
7C
2E
26
ENDCHAR
STARTCHAR uniE623
ENCODING 58915
SWIDTH 800 0
DWIDTH 10 0
BBX 7 8 0 0
BITMAP
10
10
10
FE
38
38
6C
44
ENDCHAR
STARTCHAR uniE624
ENCODING 58916
SWIDTH 800 0
DWIDTH 10 0
BBX 7 6 0 1
BITMAP
10
38
10
44
EE
44
ENDCHAR
STARTCHAR uniE625
ENCODING 58917
SWIDTH 800 0
DWIDTH 10 0
BBX 7 6 0 0
BITMAP
6C
54
AA
AA
54
6C
ENDCHAR
STARTCHAR uniE626
ENCODING 58918
SWIDTH 800 0
DWIDTH 10 0
BBX 7 12 0 -3
BITMAP
08
38
F4
5C
7C
3E
3C
3C
7C
7E
38
08
ENDCHAR
STARTCHAR uniE627
ENCODING 58919
SWIDTH 800 0
DWIDTH 10 0
BBX 7 9 0 -1
BITMAP
BA
7C
54
6C
7C
FE
7C
7C
7C
ENDCHAR
STARTCHAR uniE628
ENCODING 58920
SWIDTH 800 0
DWIDTH 10 0
BBX 7 5 0 1
BITMAP
EE
50
4C
42
5C
ENDCHAR
STARTCHAR uniE62B
ENCODING 58923
SWIDTH 800 0
DWIDTH 10 0
BBX 7 7 0 0
BITMAP
EE
66
6C
78
70
60
40
ENDCHAR
STARTCHAR uniE62C
ENCODING 58924
SWIDTH 800 0
DWIDTH 10 0
BBX 7 7 0 0
BITMAP
76
BA
D4
EE
D4
BA
7C
ENDCHAR
STARTCHAR uniE62D
ENCODING 58925
SWIDTH 800 0
DWIDTH 10 0
BBX 6 10 0 -1
BITMAP
10
30
70
70
F8
FC
FC
FC
BC
78
ENDCHAR
STARTCHAR uniF0C5
ENCODING 61637
SWIDTH 800 0
DWIDTH 10 0
BBX 7 8 0 0
BITMAP
78
C8
9E
B2
A2
E2
22
3E
ENDCHAR
STARTCHAR uniF1FE
ENCODING 61950
SWIDTH 800 0
DWIDTH 10 0
BBX 7 7 0 0
BITMAP
80
80
90
AA
C4
80
FE
ENDCHAR
STARTCHAR uniF296
ENCODING 62102
SWIDTH 800 0
DWIDTH 10 0
BBX 7 8 0 0
BITMAP
44
44
EE
92
D6
54
28
10
ENDCHAR
STARTCHAR uniF7B7
ENCODING 63415
SWIDTH 800 0
DWIDTH 10 0
BBX 7 7 0 0
BITMAP
38
44
80
8E
82
44
38
ENDCHAR
STARTCHAR uniF81F
ENCODING 63519
SWIDTH 800 0
DWIDTH 10 0
BBX 7 7 0 0
BITMAP
38
18
FA
C6
BE
30
38
ENDCHAR
STARTCHAR uniF820
ENCODING 63520
SWIDTH 800 0
DWIDTH 10 0
BBX 7 6 0 -1
BITMAP
6A
9A
9A
E6
82
8C
ENDCHAR
ENDFONT
